<svg xmlns="http://www.w3.org/2000/svg" viewBox="0 0 72 72.01"><defs><style>.cls-1,.cls-4{fill:none;}.cls-2{fill:#d1d3d4;}.cls-3,.cls-5{fill:#414042;}.cls-4{stroke:#414042;stroke-width:2px;}.cls-4,.cls-5{stroke-miterlimit:10;}.cls-5{stroke:#d1d3d4;stroke-width:0.25px;}</style></defs><title>Asset 5</title><g id="Layer_2" data-name="Layer 2"><g id="Layer_1-2" data-name="Layer 1"><rect class="cls-1" y="0.01" width="72" height="72"/><rect class="cls-2" x="21.25" y="0.01" width="29.35" height="6.71"/><rect class="cls-3" y="0.01" width="21.4" height="6"/><rect class="cls-3" x="50.6" y="0.01" width="21.4" height="6"/><line class="cls-4" x1="21.4" y1="2.98" x2="52.38" y2="3.04"/><path class="cls-5" d="M38.23,3h-.31V2.05a1.92,1.92,0,0,0-3.84,0V3h-.31a.61.61,0,0,0-.61.61V6a.62.62,0,0,0,.61.61h4.46A.62.62,0,0,0,38.84,6V3.57A.61.61,0,0,0,38.23,3ZM36.91,3H35.09V2.05a.91.91,0,1,1,1.82,0Z"/></g></g></svg>