<svg xmlns="http://www.w3.org/2000/svg" xmlns:xlink="http://www.w3.org/1999/xlink" viewBox="0 0 303.18 232.61"><defs><style>.cls-1,.cls-10,.cls-11,.cls-3,.cls-5,.cls-6{fill:none;}.cls-2{fill:#fff;}.cls-11,.cls-12,.cls-3{stroke:#231f20;}.cls-10,.cls-11,.cls-12,.cls-13,.cls-3,.cls-5,.cls-6{stroke-miterlimit:10;}.cls-3{stroke-width:6px;}.cls-12,.cls-4{fill:#231f20;}.cls-5{stroke:#fff;}.cls-13,.cls-6{stroke:#f9ed32;}.cls-11,.cls-12,.cls-13,.cls-6{stroke-width:2px;}.cls-7{fill:#2d2a2b;}.cls-8{fill:url(#New_Pattern_Swatch_1);}.cls-13,.cls-9{fill:#f9ed32;}.cls-10{stroke:#42683b;}</style><pattern id="New_Pattern_Swatch_1" data-name="New Pattern Swatch 1" width="166.21" height="130.72" patternTransform="translate(-57.04 -1.73)" patternUnits="userSpaceOnUse" viewBox="0 0 166.21 130.72"><rect class="cls-1" width="166.21" height="130.72"/><rect class="cls-2" width="166.21" height="130.72"/><line class="cls-3" x1="19.54" x2="19.54" y2="130.72"/><line class="cls-3" x1="37.73" x2="37.73" y2="130.72"/><line class="cls-3" x1="55.92" x2="55.92" y2="130.72"/><line class="cls-3" x1="100.83" x2="100.83" y2="130.72"/><line class="cls-3" x1="119.02" x2="119.02" y2="130.72"/><line class="cls-3" x1="137.21" x2="137.21" y2="130.72"/><path class="cls-4" d="M111.23,105.6a5.63,5.63,0,0,0-4.45-3.69,13.85,13.85,0,0,0,.31-1.84c.28-3,.51-4.83-2-6.75-4-3.12-7.55-.51-9.52,3.09-1.13,2.07-3.16,3.07-3.34,5.37-.31-2.44.73-3.68-.35-5.94-1.37-2.88-5.48-1.18-7.54,1s-6,2.06-5,5.39a6.9,6.9,0,0,0,1.81,3c-2.93-.43-7.66,2.23-9.81,4.46-3.53,3.67.8,6.42,5,7.86.84.29,1.7.53,2.57.76a2.71,2.71,0,0,0-.24.35c-1.43,2.44-3.59,3.53-1.33,5,3.22,2.11,6.25,1.56,10.09,1.26,2.7-.21,9.06,1.29,9.06-1.57a4.11,4.11,0,0,0-.08-.77,4.68,4.68,0,0,0,2.33-2.93c.09-.32.17-.63.25-1,3,.86,6.38-3.91,8.85-5.82C111.14,110.36,112.89,109.57,111.23,105.6Z"/><path class="cls-5" d="M97.5,122.82c-8.49-4.79-14.77-6-20.18-3.71"/><path class="cls-5" d="M99.26,119.68c-1.54-3.48,1.74-9.12,5-10.84,2.9-1.54,2.6-7.9,3.59-8"/><path class="cls-5" d="M101.08,111.76c-3.58-4-16.85.09-14.4,6.65"/><path class="cls-5" d="M106.37,92c.22,2.52-11.12,14.69-8.87,18.36"/><path class="cls-5" d="M90.37,112.2c-2.88-5.2-18.58,3.52-19-3.37"/><path class="cls-5" d="M97.9,106.48c-3.76-4-9-5.52-9-3.92s-3.1-.6-3,1.65a28.3,28.3,0,0,0,1.51,6.31"/><path class="cls-5" d="M86.31,106.79a10.8,10.8,0,0,0-7.15-2.24"/><path class="cls-4" d="M45.45,88.4a5.63,5.63,0,0,0-2.74-5.09,15,15,0,0,0,1-1.59c1.37-2.64,2.28-4.29.69-7-2.58-4.4-6.81-3.29-10-.69-1.83,1.5-4.09,1.66-5.11,3.73.62-2.38,2-3.14,1.9-5.64C31,68.93,26.54,69,23.8,70.24c-2.92,1.36-6.32-.32-6.68,3.12a7,7,0,0,0,.56,3.45c-2.56-1.5-7.94-.8-10.77.46-4.64,2.08-1.66,6.25,1.69,9.16.67.58,1.37,1.13,2.09,1.66l-.35.24c-2.24,1.73-4.65,1.93-3.1,4.16,2.18,3.16,5.2,3.79,8.88,4.94,2.58.81,7.91,4.59,9,1.94a3.92,3.92,0,0,0,.22-.74,4.72,4.72,0,0,0,3.25-1.85c.21-.26.4-.53.59-.79,2.49,1.93,7.38-1.23,10.39-2.08C43.59,92.77,45.5,92.7,45.45,88.4Z"/><path class="cls-5" d="M26.28,99.23C20.19,91.61,14.81,88.17,9,88.23"/><path class="cls-5" d="M29.08,97c-.13-3.81,5-7.81,8.67-8.2,3.26-.34,5.36-6.35,6.33-6.11"/><path class="cls-5" d="M33.73,90.31c-1.82-5-15.66-6.23-15.84.77"/><path class="cls-5" d="M46,74c-.74,2.42-15.81,9.47-15.1,13.71"/><path class="cls-5" d="M23.64,86.71c-.73-5.9-18.55-3.7-16.4-10.25"/><path class="cls-5" d="M32.76,84.23c-2-5.12-6.31-8.51-6.84-7s-2.65-1.73-3.44.39a28.69,28.69,0,0,0-1,6.42"/><path class="cls-5" d="M21.89,80.18a10.79,10.79,0,0,0-5.79-4.76"/><path class="cls-4" d="M47.94,28.36a5.67,5.67,0,0,1,4.46-3.69,14,14,0,0,1-.31-1.83c-.28-3-.51-4.84,2-6.76,4-3.12,7.55-.51,9.52,3.09,1.13,2.08,3.16,3.07,3.34,5.37.31-2.44-.73-3.68.35-5.94,1.37-2.87,5.48-1.18,7.54,1,2.19,2.36,6,2.07,5,5.39A7,7,0,0,1,78,28c2.93-.43,7.66,2.23,9.81,4.46,3.53,3.67-.8,6.42-5,7.86-.83.29-1.69.53-2.56.76a2.25,2.25,0,0,1,.24.36c1.43,2.44,3.59,3.52,1.32,5C78.64,48.57,75.6,48,71.76,47.72c-2.69-.21-9.05,1.29-9.05-1.57a4.88,4.88,0,0,1,.07-.76,4.75,4.75,0,0,1-2.32-2.94c-.1-.31-.17-.63-.25-1-3,.86-6.38-3.91-8.85-5.82C48,33.12,46.29,32.33,47.94,28.36Z"/><path class="cls-5" d="M61.68,45.58c8.49-4.79,14.76-6,20.17-3.71"/><path class="cls-5" d="M59.92,42.45c1.54-3.49-1.74-9.13-5-10.85-2.9-1.54-2.59-7.89-3.58-8"/><path class="cls-5" d="M58.1,34.52c3.58-4,16.85.09,14.4,6.65"/><path class="cls-5" d="M52.81,14.78c-.22,2.52,11.11,14.69,8.87,18.36"/><path class="cls-5" d="M68.81,35c2.88-5.2,18.58,3.52,19-3.37"/><path class="cls-5" d="M61.28,29.24c3.76-4,9-5.52,9-3.91s3.1-.61,3,1.64a28.26,28.26,0,0,1-1.52,6.32"/><path class="cls-5" d="M72.87,29.56A10.77,10.77,0,0,1,80,27.31"/><path class="cls-4" d="M114.37,45.77a5.65,5.65,0,0,1,2.69-5.13,14.92,14.92,0,0,1-1-1.57c-1.4-2.63-2.33-4.27-.77-7,2.53-4.44,6.77-3.38,10-.82,1.84,1.48,4.1,1.61,5.15,3.66-.65-2.37-2.09-3.11-2-5.61.16-3.18,4.61-3.21,7.36-2,2.93,1.33,6.31-.4,6.72,3a6.94,6.94,0,0,1-.51,3.45c2.53-1.53,7.92-.9,10.76.33,4.67,2,1.74,6.23-1.57,9.18-.66.59-1.36,1.14-2.07,1.69a2.71,2.71,0,0,1,.35.24c2.26,1.7,4.67,1.86,3.16,4.11-2.15,3.19-5.16,3.85-8.82,5.06-2.57.84-7.86,4.68-9,2a4.43,4.43,0,0,1-.23-.73,4.8,4.8,0,0,1-3.28-1.81c-.21-.26-.4-.53-.59-.79-2.47,2-7.4-1.14-10.42-1.95C116.29,50.11,114.38,50.07,114.37,45.77Z"/><path class="cls-5" d="M133.68,56.35c6-7.69,11.33-11.19,17.19-11.2"/><path class="cls-5" d="M130.85,54.14c.08-3.81-5.13-7.75-8.77-8.09-3.27-.3-5.44-6.28-6.41-6"/><path class="cls-5" d="M126.12,47.53c1.75-5.07,15.58-6.42,15.85.58"/><path class="cls-5" d="M113.62,31.35c.77,2.42,15.92,9.27,15.26,13.52"/><path class="cls-5" d="M136.17,43.8c.65-5.91,18.49-3.92,16.26-10.45"/><path class="cls-5" d="M127,41.43c1.93-5.13,6.21-8.58,6.76-7.07s2.63-1.75,3.44.35a28.48,28.48,0,0,1,1,6.41"/><path class="cls-5" d="M137.83,37.25a10.79,10.79,0,0,1,5.73-4.83"/></pattern></defs><title>backpack</title><g id="Layer_2" data-name="Layer 2"><g id="Layer_2-2" data-name="Layer 2"><path class="cls-6" d="M164.59,182.27c-.56-4.48-3.41-11.52-6.36-15.77" transform="translate(0 -0.04)"/><path class="cls-6" d="M151,160c-7.77-7.13-18.18-13.56-29.5-18.86" transform="translate(0 -0.04)"/><path class="cls-7" d="M299,209.93l-15.75,3.36s-30.42-10.74-38.15-9.53c.15-1.6.28-3.29.36-5C261.18,197.78,299,209.93,299,209.93Z" transform="translate(0 -0.04)"/><path class="cls-7" d="M223.42,31.07c16.17,4.76,103,136.57,59.35,155.91-23.61,10-37.18,4.5-37.18,4.5,0-2.62-.09-5.33-.25-8.07,45-5.86-7-115.49-15.55-124.62C229,49.05,227,39.13,223.42,31.07Z" transform="translate(0 -0.04)"/><path class="cls-8" d="M223.57,164.26c9.23-2,17-8.25,14.69-14.17,4.17,8.39,6.38,21.13,7.08,33.32.16,2.74.24,5.45.25,8.07s-.05,4.93-.16,7.23c-.08,1.76-.21,3.45-.36,5-.61,6.31-1.73,11.16-3.24,13.25-4.62,6.4-22.76,11.05-37.24,8.53,14.81-23.38,5.12-37.35-4.3-36,1.22-8.47,2.23-19,3.08-30.35C208.38,164.84,216.43,165.83,223.57,164.26Z" transform="translate(0 -0.04)"/><path class="cls-8" d="M238.26,150.09c2.26,5.92-5.46,12.17-14.69,14.17,2.06-4.26,3.38-13,4.25-23.64C232.17,141.19,235.61,144.76,238.26,150.09Z" transform="translate(0 -0.04)"/><path class="cls-8" d="M189.05,19.79c-2.11-1.8-5.48-2.73-6.26.1-10.64-6.8-24.87-11.58-43.07-13.75L100.58,3.2a35.35,35.35,0,0,0-14.13.58c33.9-10.16,114.93,3.74,127.94,14.51,3.75,3.1,6.72,7.55,9,12.78,3.56,8.06,5.54,18,6.37,27.72a131.91,131.91,0,0,1,.35,17.08c-.61,13.33-.52,42.89-2.32,64.75-.87,10.59-2.19,19.38-4.25,23.64-7.14,1.57-15.19.58-20.2-5.07,2.39-32.14,3.49-71.12,4.28-90.07.74-17.8-5-33.28-18.53-44.59,1.79-.63,2-1.85,1.35-3.05A5.82,5.82,0,0,0,189.05,19.79Z" transform="translate(0 -0.04)"/><path class="cls-8" d="M182.79,181.25c.6-1.12.18-3.14-.91-5.64a2.71,2.71,0,1,0-2.46-4.7c-1.08-1.79-2.33-3.67-3.68-5.54,1.54-.3,3-.67,4.46-1.1,29.7-8.77,3.6-105.5-15.48-143.28-.18-.9-16.45-1.8-16.45-1.8s31.92,98.43,15.06,129.34a2.59,2.59,0,0,0-1.45-.45,2.56,2.56,0,0,0-2.43,1.74c-.68.05-1.11.52-1.23,1.51-8-10.33-22.69-16.37-41.95-22.62-15.94-33.93-21.12-89-9.49-116.27H92.48c-7.09,2.7-17.07,66.35-6.3,104.11.32,1.12.67,2.23,1,3.31-23.3-6.2-33.77-4.74-42.39,7.66-1.49-1.52-5,3.45-4.53,5.32a11.45,11.45,0,0,0-1.92-.42c.94-5.69-8.25-2.26-6.87,8.21a16.94,16.94,0,0,0,6.13.27c-1.25,2.8-2.53,5.86-3.87,9.19-14.51,36,16.19,39.26,50.61,52.41s72.19,20.52,79.28-15.85c.47-2.4.82-4.68,1.05-6.86a51.7,51.7,0,0,0-.08-13c.34.54,1.09,1.73,2.12,3.22a1.89,1.89,0,0,0-.47,1.25,1.93,1.93,0,0,0,1.93,1.93,2,2,0,0,0,.77-.15c2.48,3.19,5.66,6.63,8.71,8.1a2.46,2.46,0,0,0-.93,1.92,2.43,2.43,0,0,0,4.85,0,2.46,2.46,0,0,0-.35-1.26A4,4,0,0,0,182.79,181.25ZM184.32,192a2.27,2.27,0,0,0,1.82,3.59h0a2.28,2.28,0,0,0,0-4.56A2.26,2.26,0,0,0,184.32,192Zm5.6,9.59c-19.2-14.52-37.66,7.41-10.41,21.87-11.2,6.07-26.54,8.85-44.29,5.35C105.53,223,47.24,209.41,30.4,198c-7.59-5.15-12.56-10.93-14.85-18.2-3-9.54-1.43-21.64,5-38.24a189.64,189.64,0,0,0,6.74-23c7.6-31.87,13.25-74.09,18.9-83.62C51.91,25.22,68,8.15,86.45,3.78a35.35,35.35,0,0,1,14.13-.58l39.14,2.94c18.2,2.17,32.43,7,43.07,13.75,1.08.69,2.12,1.4,3.13,2.14.55.39,1.09.8,1.62,1.22s1.07.84,1.58,1.28c13.49,11.31,19.27,26.79,18.53,44.59-.79,18.95-1.89,57.93-4.28,90.07-.85,11.37-1.86,21.88-3.08,30.35C196,190.16,191.73,194,189.92,201.6Z" transform="translate(0 -0.04)"/><path class="cls-7" d="M204.59,225.54q-1.6,2.53-3.6,5.21a82.07,82.07,0,0,1-21.47-7.28h0c-27.25-14.46-8.79-36.39,10.41-21.87,1.81-7.61,6.07-11.44,10.37-12.06C209.71,188.19,219.4,202.16,204.59,225.54Z" transform="translate(0 -0.04)"/><path class="cls-4" d="M186.18,191a2.28,2.28,0,0,1,0,4.56h0c-.62-1.12-1.25-2.34-1.82-3.59A2.26,2.26,0,0,1,186.18,191Z" transform="translate(0 -0.04)"/><path class="cls-4" d="M186.14,195.6a2.27,2.27,0,0,1-1.82-3.59C184.89,193.26,185.52,194.48,186.14,195.6Z" transform="translate(0 -0.04)"/><path class="cls-4" d="M181.16,170.29a2.71,2.71,0,0,1,.72,5.32,40.71,40.71,0,0,0-2.46-4.7A2.72,2.72,0,0,1,181.16,170.29Z" transform="translate(0 -0.04)"/><path class="cls-4" d="M181.88,175.61a2.46,2.46,0,0,1-.72.1,2.72,2.72,0,0,1-1.74-4.8A40.71,40.71,0,0,1,181.88,175.61Z" transform="translate(0 -0.04)"/><path class="cls-4" d="M181.27,181.83a2.46,2.46,0,0,1,.35,1.26,2.43,2.43,0,0,1-4.85,0,2.46,2.46,0,0,1,.93-1.92A5.92,5.92,0,0,0,181.27,181.83Z" transform="translate(0 -0.04)"/><path class="cls-7" d="M164.72,21C183.8,58.77,209.9,155.5,180.2,164.27c-1.44.43-2.92.8-4.46,1.1-1-1.43-2.12-2.86-3.24-4.23a2.61,2.61,0,0,0,1.12-2.15,2.65,2.65,0,0,0-4.55-1.85,49.4,49.4,0,0,0-5.12-5,2.59,2.59,0,0,0,.5-1.52,2.55,2.55,0,0,0-1.12-2.12c16.86-30.91-15.06-129.34-15.06-129.34S164.54,20.09,164.72,21Z" transform="translate(0 -0.04)"/><path class="cls-4" d="M179.2,180.66a2.41,2.41,0,0,1,2.07,1.17,5.92,5.92,0,0,1-3.57-.66A2.45,2.45,0,0,1,179.2,180.66Z" transform="translate(0 -0.04)"/><path class="cls-4" d="M171,156.34a2.65,2.65,0,0,1,2.65,2.65,2.61,2.61,0,0,1-1.12,2.15c-1.13-1.4-2.29-2.75-3.43-4A2.67,2.67,0,0,1,171,156.34Z" transform="translate(0 -0.04)"/><path class="cls-7" d="M164.62,166.66h-.08c-1.71.06-3.46.06-5.23,0a91.46,91.46,0,0,1-41.95-11.86A73.24,73.24,0,0,1,100.91,142a61.7,61.7,0,0,1-10.4-14.52,59,59,0,0,1-3.28-7.66c-.38-1.08-.73-2.19-1-3.31-10.77-37.76-.79-101.41,6.3-104.11h14.3c-11.63,27.32-6.45,82.34,9.49,116.27a95.54,95.54,0,0,0,5.37,9.94c8,12.83,18,20.53,29.51,18.86a15.23,15.23,0,0,0,8.54-4.12h0a7,7,0,0,0,.66-.67,2.56,2.56,0,0,0,3.6-.54,49.4,49.4,0,0,1,5.12,5,2.64,2.64,0,0,0,1.9,4.49,2.61,2.61,0,0,0,1.53-.49c1.12,1.37,2.21,2.8,3.24,4.23A66.29,66.29,0,0,1,164.62,166.66Z" transform="translate(0 -0.04)"/><path class="cls-4" d="M172.5,161.14a2.61,2.61,0,0,1-1.53.49,2.64,2.64,0,0,1-1.9-4.49C170.21,158.39,171.37,159.74,172.5,161.14Z" transform="translate(0 -0.04)"/><path class="cls-4" d="M168.22,169.36a1.94,1.94,0,0,1,.77,3.71c-.83-1.07-1.59-2.11-2.23-3A1.9,1.9,0,0,1,168.22,169.36Z" transform="translate(0 -0.04)"/><path class="cls-4" d="M169,173.07a2,2,0,0,1-.77.15,1.93,1.93,0,0,1-1.93-1.93,1.89,1.89,0,0,1,.47-1.25C167.4,171,168.16,172,169,173.07Z" transform="translate(0 -0.04)"/><path class="cls-4" d="M164.45,150.65a2.59,2.59,0,0,1-.5,1.52,19.58,19.58,0,0,0-2-1.45,19.76,19.76,0,0,0,1.36-2.19A2.55,2.55,0,0,1,164.45,150.65Z" transform="translate(0 -0.04)"/><path class="cls-8" d="M164.72,179.79c-.23,2.18-.58,4.46-1.05,6.86-7.09,36.37-44.87,29-79.28,15.85s-65.12-16.42-50.61-52.41c1.34-3.33,2.62-6.39,3.87-9.19,6-.92,8-5.57,3.72-7.64.6-1.12,1.2-2.18,1.82-3.18a10.6,10.6,0,0,1,2-2c7.64-6.09,25.59-5.53,45.34-.52A61.7,61.7,0,0,0,100.91,142l-7.59-2.48A3.47,3.47,0,0,0,89,141.77l-1.56,4.78a3.46,3.46,0,0,0,2.21,4.36l22.94,7.5a3.45,3.45,0,0,0,4.35-2.21l.46-1.39a91.46,91.46,0,0,0,42,11.86A29.62,29.62,0,0,1,164.72,179.79Z" transform="translate(0 -0.04)"/><path class="cls-4" d="M164,152.17a2.56,2.56,0,0,1-3.6.54,16.54,16.54,0,0,0,1.62-2A19.58,19.58,0,0,1,164,152.17Z" transform="translate(0 -0.04)"/><path class="cls-4" d="M163.33,148.53a19.76,19.76,0,0,1-1.36,2.19,4.72,4.72,0,0,0-2.52-.9,2.56,2.56,0,0,1,2.43-1.74A2.59,2.59,0,0,1,163.33,148.53Z" transform="translate(0 -0.04)"/><path class="cls-4" d="M162,150.72a16.54,16.54,0,0,1-1.62,2,2.55,2.55,0,0,1-.9-2.89A4.72,4.72,0,0,1,162,150.72Z" transform="translate(0 -0.04)"/><path class="cls-8" d="M159.69,153.38h0a15.23,15.23,0,0,1-8.54,4.12c-7.77-7.12-18.18-13.56-29.51-18.86a95.54,95.54,0,0,1-5.37-9.94c19.26,6.25,33.93,12.29,42,22.62C158.74,152,159.22,152.68,159.69,153.38Z" transform="translate(0 -0.04)"/><path class="cls-7" d="M117.36,154.81l-.46,1.39a3.45,3.45,0,0,1-4.35,2.21l-22.94-7.5a3.46,3.46,0,0,1-2.21-4.36L89,141.77a3.47,3.47,0,0,1,4.36-2.21l7.59,2.48A73.24,73.24,0,0,0,117.36,154.81Z" transform="translate(0 -0.04)"/><path class="cls-8" d="M87.23,119.86a59,59,0,0,0,3.28,7.66c-19.75-5-37.7-5.57-45.34.52a1.61,1.61,0,0,0-.33-.52C53.46,115.12,63.93,113.66,87.23,119.86Z" transform="translate(0 -0.04)"/><path class="cls-9" d="M41.37,133.26c4.32,2.07,2.3,6.72-3.72,7.64a16.94,16.94,0,0,1-6.13-.27c-1.38-10.47,7.81-13.9,6.87-8.21a11.45,11.45,0,0,1,1.92.42.87.87,0,0,0,.91.69Z" transform="translate(0 -0.04)"/><path class="cls-8" d="M15.55,179.79c-36.79-2.13,5.41-67,11.7-61.24a189.64,189.64,0,0,1-6.74,23C14.12,158.15,12.52,170.25,15.55,179.79Z" transform="translate(0 -0.04)"/><path class="cls-10" d="M164.62,166.63v0a.78.78,0,0,1,0,.16,51.7,51.7,0,0,1,.08,13c-.23,2.18-.58,4.46-1.05,6.86-7.09,36.37-44.87,29-79.28,15.85s-65.12-16.42-50.61-52.41c1.34-3.33,2.62-6.39,3.87-9.19" transform="translate(0 -0.04)"/><path class="cls-6" d="M90.37,130c-21.73-5.51-41.29-5.64-47.31,2.55" transform="translate(0 -0.04)"/><path class="cls-11" d="M38.73,133.21c.94-5.69-8.25-2.26-6.87,8.21C43.8,144,48.56,134.59,38.73,133.21Z" transform="translate(0 -0.04)"/><path class="cls-11" d="M190.26,202.39c6.06-25.43,39.34-8.63,11.07,29.16C145.42,219.74,167.32,185.05,190.26,202.39Z" transform="translate(0 -0.04)"/><path class="cls-6" d="M115.77,155.24l-.45,2.86a3.47,3.47,0,0,1-4.36,2.21L88,152.81a3.46,3.46,0,0,1-2.21-4.36l1.56-4.77a3.46,3.46,0,0,1,4.36-2.22l11.8,3.65" transform="translate(0 -0.04)"/><path class="cls-11" d="M148.6,20s16.27.9,16.46,1.8c19.08,37.78,45.17,134.51,15.48,143.28s-82.1-5.91-94-47.72c-10.77-37.76-.79-101.41,6.3-104.1h14.3c-18,42.28,4.28,150.91,44.36,145.07S148.6,20,148.6,20Z" transform="translate(0 -0.04)"/><path class="cls-6" d="M26.73,118.43C34,86.9,39.53,46.64,45,37.36,52.23,25.22,75.62,1.58,99.46,5.63L138.6,8.57c49,5.85,69.28,30.59,67.93,63-1.07,25.66-2.39,85.74-7.05,118.15" transform="translate(0 -0.04)"/><path class="cls-11" d="M179.86,224.26c-11.2,6.07-26.54,8.85-44.3,5.35-29.69-5.84-88-19.41-104.82-30.83-17.54-11.9-21.14-27.2-9.89-56.44S39.29,47.87,46.49,35.73,77.08,0,100.92,4l39.14,3c49,5.85,69.27,30.59,67.92,63-1.06,25.65-2.7,88-7.36,120.42" transform="translate(0 -0.04)"/><path class="cls-11" d="M86.52,4.66C120.26-5.66,201.69,8.29,214.73,19.08s16.65,37.79,15.75,57.58-.27,75.36-6.57,88.4" transform="translate(0 -0.04)"/><path class="cls-11" d="M204.79,226.32c14.5,2.57,32.74-2.09,37.38-8.51,6.75-9.34,5.74-74.24-14.22-76.43" transform="translate(0 -0.04)"/><path class="cls-11" d="M203.7,160c11.48,13,38.91,1.42,34.9-9.08" transform="translate(0 -0.04)"/><path class="cls-11" d="M27.59,119.34c-6.29-5.79-48.49,59.11-11.7,61.24" transform="translate(0 -0.04)"/><path class="cls-11" d="M41.56,134.32c9.5-17.83,19.37-20.76,46-13.67" transform="translate(0 -0.04)"/><path class="cls-11" d="M165,167.43c.84,5.66.57,12.25-1,20-7.09,36.37-44.87,29-79.28,15.86s-65.12-16.43-50.61-52.41c1.34-3.34,2.62-6.4,3.87-9.2" transform="translate(0 -0.04)"/><path class="cls-11" d="M116.1,129.33c20.75,6.72,36.25,13.14,43.93,24.85" transform="translate(0 -0.04)"/><path class="cls-11" d="M90.85,128.31c-21.73-5.5-41.29-5.63-47.32,2.56" transform="translate(0 -0.04)"/><path class="cls-11" d="M151.49,158.3c-7.77-7.12-18.18-13.55-29.51-18.85" transform="translate(0 -0.04)"/><path class="cls-11" d="M165.06,180.58a29.67,29.67,0,0,0-5.42-13.13" transform="translate(0 -0.04)"/><path class="cls-11" d="M117.7,155.6l-.46,1.39a3.45,3.45,0,0,1-4.35,2.21L90,151.7a3.46,3.46,0,0,1-2.21-4.36l1.56-4.77a3.46,3.46,0,0,1,4.36-2.21l7.61,2.49" transform="translate(0 -0.04)"/><path class="cls-11" d="M223.76,31.86c16.16,4.77,103,136.57,59.35,155.92-23.61,9.94-37.18,4.5-37.18,4.5" transform="translate(0 -0.04)"/><path class="cls-11" d="M230.12,59.56c8.45,9,60.57,118.78,15.56,124.65" transform="translate(0 -0.04)"/><path class="cls-11" d="M245.77,199.5c15.75-.93,53.53,11.22,53.53,11.22l-15.74,3.36s-30.42-10.74-38.15-9.52" transform="translate(0 -0.04)"/><path class="cls-11" d="M183.13,20.69c1.46-5.32,12,2.61,6.33,4.63" transform="translate(0 -0.04)"/><path class="cls-11" d="M186.26,22.82c4.74-8.63,27.35,9,27.35,9" transform="translate(0 -0.04)"/><path class="cls-11" d="M187.87,24.05c8.19-8.57,25.74,13.25,25.74,13.25" transform="translate(0 -0.04)"/><path class="cls-11" d="M45.51,128.84c-1.44-3.48-7.14,5.34-3.95,5.48" transform="translate(0 -0.04)"/><path class="cls-11" d="M158.56,152.13c1.07-8.89,27.83,23.84,24.57,29.91s7.13,20.35,7.13,20.35" transform="translate(0 -0.04)"/><path class="cls-11" d="M183.13,182c-7,4.39-18.34-14.75-18.34-14.75" transform="translate(0 -0.04)"/><circle class="cls-12" cx="162.22" cy="151.4" r="2.57"/><circle class="cls-12" cx="171.31" cy="159.74" r="2.65"/><circle class="cls-12" cx="181.49" cy="173.75" r="2.71"/><circle class="cls-12" cx="168.56" cy="172.05" r="1.93"/><circle class="cls-12" cx="179.54" cy="183.84" r="2.42"/><circle class="cls-12" cx="186.52" cy="194.07" r="2.28"/><path class="cls-6" d="M161.41,151.45c1.06-8.89,26.11,23.88,22.85,30s5.67,18.18,5.67,18.18" transform="translate(0 -0.04)"/><path class="cls-6" d="M184.26,181.41c-7,4.38-17.11-12.82-17.11-12.82" transform="translate(0 -0.04)"/><circle class="cls-13" cx="163.35" cy="150.77" r="2.57"/><circle class="cls-13" cx="172.44" cy="159.1" r="2.65"/><circle class="cls-13" cx="182.63" cy="173.12" r="2.71"/><circle class="cls-13" cx="169.7" cy="171.41" r="1.93"/><circle class="cls-13" cx="180.67" cy="183.2" r="2.42"/><circle class="cls-13" cx="187.65" cy="193.44" r="2.28"/></g></g></svg>