<svg xmlns="http://www.w3.org/2000/svg" viewBox="0 0 164.68 55.42"><defs><style>.cls-1{fill:#939598;}.cls-2{fill:#2d2a2b;}.cls-3{fill:none;stroke:#231f20;stroke-miterlimit:10;stroke-width:2px;}</style></defs><title>charger</title><g id="Layer_2" data-name="Layer 2"><g id="Layer_2-2" data-name="Layer 2"><path class="cls-1" d="M8.52,18a13.85,13.85,0,0,0,1.26,2.6c-3.84,2.38-7,5.12-8.58,3.22s6.86-5.69,6.86-5.69Z"/><path class="cls-1" d="M155.92,16.67s8,1,7.73,2.37c-.17.87-4.25.59-7,.3-1.41-.15-2.46-.3-2.46-.3A2.53,2.53,0,0,1,155.92,16.67Z"/><path class="cls-1" d="M163.66,26.27c.54,3.38-7.8,2.29-7.8,2.29s-.41-1.11-.82-2.65a23.52,23.52,0,0,1,2.66-.76C160.11,24.59,163.33,24.25,163.66,26.27Z"/><path class="cls-2" d="M9.78,20.62A13.85,13.85,0,0,1,8.52,18c-.29-.77-.46-1.35-.46-1.35S16.5,10.34,20,12.45c0,0,11-4,17.59,1.11L37,18.15h0c-3.5-3-14.69-3.86-15.48-1.86s-8.7,4.86-10.29,5.29C10.73,21.71,10.23,21.28,9.78,20.62Z"/><path class="cls-2" d="M88.87,11.35A55,55,0,0,0,81,13.93c-14.07-4.69-26.2-8.59-27.8-9.66A10.45,10.45,0,0,0,48.71,2.8h0C48,.24,53.43.61,61.86,2.7h0A272.64,272.64,0,0,1,88.87,11.35Z"/><path class="cls-2" d="M81,13.93a32.25,32.25,0,0,0-5.35,2.84C60.23,11.54,46.93,7.2,46.93,7.2l-5.82,1c-1-4.49,3.49-5.93,7.6-5.43a10.45,10.45,0,0,1,4.45,1.47C54.76,5.34,66.89,9.24,81,13.93Z"/><path class="cls-2" d="M74.7,38.93c5.36,17.3-3,17.06-7-2.6-.11-.56-.21-1.12-.27-1.65a5.66,5.66,0,0,0,2-.11c.72-.07,2-1,1.38-1.51-.9,0-2.8-.1-3.56-.07a16.54,16.54,0,0,1,3.51-11.85,20.61,20.61,0,0,1,4.84-4.37A32.25,32.25,0,0,1,81,13.93a55,55,0,0,1,7.91-2.58c1.77-.44,3.4-.78,4.74-1,2.77-1.16,9.77,1.22,8.58,2.54a2,2,0,0,0-.67-.07h0a19.63,19.63,0,0,0-4.73,1,49.62,49.62,0,0,0-7.21,2.89,44.59,44.59,0,0,0-5.24,3,31.25,31.25,0,0,0-5.48,4.52C75.06,28.15,72.9,33.12,74.7,38.93Z"/><path class="cls-2" d="M157.7,25.14h0a23.52,23.52,0,0,0-2.66.76A18.57,18.57,0,0,1,154.2,19s1.05.15,2.46.3Z"/><path class="cls-2" d="M155,25.91c.41,1.54.82,2.65.82,2.65s-10.4,1-11.19-4.27L134.31,25.9c-2.67-1.42-6.1-3-10-4.66,7.81,1.51,19.33-1.14,19.33-1.14-1.05-4.2,8.71-8.18,12.31-3.43A2.53,2.53,0,0,0,154.2,19,18.57,18.57,0,0,0,155,25.91Z"/><path class="cls-2" d="M124.28,21.24c3.93,1.66,7.36,3.24,10,4.66,3.75,2,6,3.73,5.87,4.88-.52,6.46-.32,16.11-5.06,15.12,1.74-3.85,1.46-8.85.5-10.77-.6-4-19.2-13-39.05-20.84l.21-.54a19.63,19.63,0,0,1,4.73-1h0C109.59,15.49,117.63,18.46,124.28,21.24Z"/><path class="cls-2" d="M96.57,14.29C116.42,22.1,135,31.17,135.62,35.13c1,1.92,1.24,6.92-.5,10.77a7.75,7.75,0,0,1-6.35,4.91c2.33-4.49,2.39-12.07-.45-17.53-1.76-3.37-20.36-10.2-38.64-16.41l-.11-.23a49.62,49.62,0,0,1,7.21-2.89Z"/><path class="cls-2" d="M128.32,33.28c2.84,5.46,2.78,13,.45,17.53h0A8,8,0,0,1,127,53.18c-4,3.57-12.07-1.68-12.07-1.68l6.32-2.7c2.32-3.12,4.8-10.5,0-14.72-2.3-2-19.53-8.31-36.82-14.29l-.1-.15a44.59,44.59,0,0,1,5.24-3l.11.23C108,23.08,126.56,29.91,128.32,33.28Z"/><path class="cls-2" d="M121.25,34.08c4.8,4.22,2.32,11.6,0,14.72l-6.32,2.7-3.05,1.3,1.32-15.55Z"/><path class="cls-2" d="M121.25,34.08l-8,3.17-34.28-13-.07-.07a31.25,31.25,0,0,1,5.48-4.52l.1.15C101.72,25.77,119,32.05,121.25,34.08Z"/><path class="cls-2" d="M75.61,16.77a20.61,20.61,0,0,0-4.84,4.37h0L38.16,8.76l3-.53,5.82-1S60.23,11.54,75.61,16.77Z"/><path class="cls-2" d="M70.76,21.13h0A16.54,16.54,0,0,0,67.26,33a1.64,1.64,0,0,0-.32,0c-.65.3-.31,1.4.37,1.64l.13,0c.06.53.16,1.09.27,1.65L36.2,24.58l.8-6.43.56-4.59.6-4.8Z"/><path class="cls-2" d="M113.2,37.25,111.88,52.8,74.7,38.93c-1.8-5.81.36-10.78,4.15-14.77l.07.07Z"/><polyline class="cls-3" points="67.71 36.33 36.2 24.58 37 18.15 37.56 13.56 38.16 8.76 70.76 21.13"/><polyline class="cls-3" points="78.92 24.23 113.2 37.25 111.88 52.8 74.7 38.93 74.37 38.81"/><path class="cls-3" d="M128.76,50.81A8,8,0,0,1,127,53.18c-4,3.57-12.07-1.68-12.07-1.68"/><path class="cls-3" d="M89.68,16.87c18.28,6.21,36.88,13,38.64,16.41,2.84,5.46,2.78,13,.45,17.53"/><path class="cls-3" d="M41.11,8.23c-1-4.49,3.49-5.93,7.6-5.43a10.45,10.45,0,0,1,4.45,1.47c1.6,1.07,13.73,5,27.8,9.66"/><path class="cls-3" d="M61.86,2.7C53.43.61,48,.24,48.71,2.79"/><path class="cls-3" d="M88.87,11.35a272.64,272.64,0,0,0-27-8.65"/><path class="cls-3" d="M128.76,50.81h0a7.75,7.75,0,0,0,6.35-4.91c1.74-3.85,1.46-8.85.5-10.77-.6-4-19.2-13-39.05-20.84l-.18-.07"/><path class="cls-3" d="M101.52,12.77c8.07,2.72,16.11,5.69,22.76,8.47,3.93,1.66,7.36,3.24,10,4.66,3.75,2,6,3.73,5.87,4.88-.52,6.46-.32,16.11-5.06,15.12"/><path class="cls-3" d="M61.86,2.7h0c3-.63,17,3,31.74,7.6"/><line class="cls-3" x1="113.2" y1="37.25" x2="121.25" y2="34.08"/><path class="cls-3" d="M75.61,16.77C60.23,11.54,46.93,7.2,46.93,7.2l-5.82,1-3,.53"/><path class="cls-3" d="M111.88,52.8l3.05-1.3,6.32-2.7c2.32-3.12,4.8-10.5,0-14.72-2.3-2-19.53-8.31-36.82-14.29"/><path class="cls-3" d="M134.27,25.91h0l10.36-1.61c.79,5.3,11.19,4.27,11.19,4.27s-.41-1.11-.82-2.65A18.57,18.57,0,0,1,154.2,19a2.53,2.53,0,0,1,1.72-2.37c-3.6-4.75-13.36-.77-12.31,3.43,0,0-11.52,2.65-19.33,1.14l-.28,0"/><path class="cls-3" d="M155.92,16.67s8,1,7.73,2.37c-.17.87-4.25.59-7,.3-1.41-.15-2.46-.3-2.46-.3"/><path class="cls-3" d="M155.86,28.56s8.34,1.09,7.8-2.29c-.33-2-3.55-1.68-6-1.12a23.52,23.52,0,0,0-2.66.76h0"/><path class="cls-3" d="M37.56,13.56C31,8.49,20,12.45,20,12.45,16.5,10.34,8.06,16.67,8.06,16.67s.17.58.46,1.35a13.85,13.85,0,0,0,1.26,2.6c.45.66,1,1.09,1.44,1,1.59-.43,9.5-3.29,10.29-5.29s12-1.15,15.48,1.86"/><path class="cls-3" d="M9.79,20.62h0c-3.84,2.38-7,5.12-8.58,3.22s6.86-5.69,6.86-5.69"/><path class="cls-3" d="M67.44,34.68a5.66,5.66,0,0,0,2-.11c.72-.07,2-1,1.38-1.51-.9,0-2.8-.1-3.56-.07a1.64,1.64,0,0,0-.32,0c-.65.3-.31,1.4.37,1.64Z"/><path class="cls-3" d="M101.52,12.77a2,2,0,0,1,.67.07c1.19-1.32-5.81-3.7-8.58-2.54-1.34.27-3,.61-4.74,1A55,55,0,0,0,81,13.93a32.25,32.25,0,0,0-5.35,2.84,20.61,20.61,0,0,0-4.84,4.37A16.54,16.54,0,0,0,67.26,33c0,.55.09,1.11.18,1.69s.16,1.09.27,1.65c4,19.66,12.35,19.9,7,2.6-1.8-5.81.36-10.78,4.15-14.77a31.25,31.25,0,0,1,5.48-4.52,44.59,44.59,0,0,1,5.24-3,49.62,49.62,0,0,1,7.21-2.89,19.63,19.63,0,0,1,4.73-1Z"/><line class="cls-3" x1="156.66" y1="19.34" x2="157.7" y2="25.14"/></g></g></svg>