<svg xmlns="http://www.w3.org/2000/svg" viewBox="0 0 111.41 96.33"><defs><style>.cls-1,.cls-4,.cls-5{fill:none;stroke-miterlimit:10;stroke-width:2px;}.cls-1{stroke:#f15a29;}.cls-2{fill:#f15a29;}.cls-3{fill:#e6e7e8;}.cls-4{stroke:#231f20;}.cls-5{stroke:#a7a9ac;}</style></defs><title>headphones</title><g id="Layer_2" data-name="Layer 2"><g id="Layer_2-2" data-name="Layer 2"><path class="cls-1" d="M76.91,81.94c5.29-6.31,6.93-14.94,7-23.18C84,50.86,82,41.84,75.12,38c-3.28-1.85-7.18-2.2-10.94-2.39a180.65,180.65,0,0,0-27.62.68c-2.41.24-5,.59-6.86,2.09-2.74,2.17-3.34,6-3.7,9.49-.64,6.06-1.15,12.27.31,18.19s5.26,11.59,11,13.74a18,18,0,0,0,13.14-.63,34.58,34.58,0,0,0,10.87-7.81C69,63.56,74.72,53.47,75.48,42.59a21.24,21.24,0,0,0-1.33-9.81A22.7,22.7,0,0,0,69.3,26,46.67,46.67,0,0,0,47.93,13.53c-5.51-1.45-11.81-1.75-16.5,1.5-4.89,3.38-6.8,10-5.82,15.88S30,42,33.92,46.46A66.89,66.89,0,0,0,45.4,56.83c3.41,2.42,7.22,4.57,11.39,4.8,5.09.27,9.82-2.33,14.29-4.77q14-7.61,28.55-14a32.34,32.34,0,0,1,5.28,20.79c-.2,2.07-.66,4.25-2.14,5.71a9.2,9.2,0,0,1-4.55,2c-8.86,2-18.14.93-27-1A133.72,133.72,0,0,1,41,59.69c-5.18-2.57-10.52-5.85-12.73-11.18A5.11,5.11,0,0,1,27.8,46c.19-1.79,1.81-3.06,3.36-4,9.78-5.78,21.7-6,32.9-7.94,15.8-2.69,31.2-8.94,47.21-8.3-8.13,1.08-15.43,5.39-22.47,9.61-4.86,2.91-10.69,4.87-14.17,9.34-9.78,12.57-15.72,19.65-14.14,9,.23-1.53-3.2.44-4.52-.37s-2-2.8-1-4c-14.66-.15-29-6.69-43.57-4.89a7,7,0,0,0-3,.87,6.74,6.74,0,0,0-2.33,3.26,28,28,0,0,0-1.92,7c-.28,2-.25,4.28,1.14,5.75,1.19,1.25,3,1.56,4.75,1.78a170.43,170.43,0,0,0,31.28,1.26c2.45-.14,5-.39,7.05-1.75,3.27-2.2,4.18-6.55,4.69-10.47a56.76,56.76,0,0,0,.4-15.23,24.15,24.15,0,0,0-6.24-13.68A11.36,11.36,0,0,0,43,20.33a16.62,16.62,0,0,0-5.72-.57l-25,.43c-1.55,0-3.28,0-4.36-1.11-.81-.83,0-5,.7-5.61"/><path class="cls-1" d="M54.85,49.75c-1.2-3.24-2.42-6.72-1.6-10.08.61-2.54,2.32-4.66,4-6.66q4.48-5.29,9.3-10.31a25.83,25.83,0,0,1,7-5.68c3-1.45,6.41-1.74,9.74-2,2.91-.23,6.13-.38,8.47,1.38s3.15,5.33,3.09,8.44c-.25,13.15-9.68,24-16.39,35.32-1.3,2.18-2.59,4.5-4.73,5.86a13.9,13.9,0,0,1-5.53,1.66,102.65,102.65,0,0,1-12.12,1c-5.42.13-11.12-.11-15.94,2.36a15.77,15.77,0,0,0-8.39,13.38,4.14,4.14,0,0,0,.61,2.62,4.54,4.54,0,0,0,2.9,1.4,47.65,47.65,0,0,0,14.15.62,10.45,10.45,0,0,0,5.66-1.9c2.6-2.18,2.8-6,2.78-9.42a7.28,7.28,0,0,0-.82-4.11c-1.15-1.73-3.52-2.15-5.6-2.08-5.45.18-10.55,2.59-15.86,3.87a135.88,135.88,0,0,1-24.77,2.77"/><path class="cls-2" d="M76.06,80.22l0,0h0c3.57,2.9-3.56,8.52-3.56,8.52s5.91,1.68,4.56,3.82-10.82.76-10.52-3.21S76.06,80.22,76.06,80.22Z"/><path class="cls-3" d="M3.82,68.73c-.23-2.63,4-4.72,6.91-4.36,2.44.29,4,2.3,1.25,7.12-2.33-1.93-5.69-3.23-8.16-2.75Z"/><path class="cls-2" d="M3.82,68.74c2.47-.48,5.83.82,8.16,2.75,2.1,1.73,3.35,4,2.34,5.87l0,.09c-.24.07-.47.15-.71.24C6.6,80.26-2,72.92,2,69.56A3.85,3.85,0,0,1,3.82,68.74Z"/><path class="cls-3" d="M8.71,9.59c-6.1-10.15,6-10.31,6-5.61C12.18,4.49,9.94,7,8.71,9.59Z"/><path class="cls-2" d="M8.71,9.59C9.94,7,12.18,4.49,14.67,4A4.36,4.36,0,0,1,18,4.63c5.5,3.52-2.75,11.77-10.15,9.6C7.51,13.13,7.87,11.36,8.71,9.59Z"/><path class="cls-4" d="M76.1,80.25A27.54,27.54,0,0,0,81,70.75a47.32,47.32,0,0,0,1.84-13.4,40.15,40.15,0,0,0-.44-6.44c-.08-.58-.19-1.16-.31-1.74a20.93,20.93,0,0,0-4.36-9.61,13.45,13.45,0,0,0-3.34-2.83,3.37,3.37,0,0,0-.32-.19c-3.29-1.85-7.18-2.2-10.94-2.4-2.9-.15-5.81-.23-8.71-.24H52.22c-5.57.05-11.14.35-16.68.91-2.41.25-5,.6-6.86,2.1a6.44,6.44,0,0,0-1,1,11.76,11.76,0,0,0-2.33,5.64c-.17,1-.29,1.94-.39,2.89-.58,5.53-1,11.19,0,16.64.09.52.2,1,.33,1.55a21.94,21.94,0,0,0,5.53,10.16,16.55,16.55,0,0,0,1.73,1.51,14.59,14.59,0,0,0,3.7,2.07,18,18,0,0,0,13.14-.63,29.46,29.46,0,0,0,7.15-4.41c1.3-1.07,2.53-2.22,3.72-3.41.89-.9,1.76-1.84,2.6-2.8l.28-.33a50.89,50.89,0,0,0,7.61-11.68,39.68,39.68,0,0,0,3.58-12.61c0-.43.09-.87.12-1.3a26.33,26.33,0,0,0,0-4.44,17.89,17.89,0,0,0-1.29-5.36c-.11-.25-.22-.49-.34-.73a24,24,0,0,0-4.51-6.06c-1-1-2-2-3.11-2.9a46.59,46.59,0,0,0-18.26-9.56c-5.51-1.45-11.81-1.75-16.5,1.49a13.21,13.21,0,0,0-4.21,4.91,17.89,17.89,0,0,0-1.61,11,25.54,25.54,0,0,0,3.1,8.38,34.86,34.86,0,0,0,1.94,3,49,49,0,0,0,3.1,3.92c.05.07.11.13.17.2A66.83,66.83,0,0,0,44.38,55.41a33.37,33.37,0,0,0,5.42,3.22,16.23,16.23,0,0,0,6,1.58c5.09.28,9.82-2.33,14.29-4.76l.69-.37Q76.38,52,82.12,49.17l2.12-1q7.11-3.5,14.37-6.68a32.28,32.28,0,0,1,5.27,20.79c-.19,2.06-.65,4.25-2.13,5.7A9.22,9.22,0,0,1,97.2,70,51.29,51.29,0,0,1,81,70.75,92.12,92.12,0,0,1,70.19,69c-2.46-.55-4.91-1.17-7.33-1.86l-.79-.22A130.58,130.58,0,0,1,47,61.47q-3.52-1.48-7-3.2c-5.18-2.56-10.53-5.84-12.73-11.18a5.19,5.19,0,0,1-.5-2.5,3.2,3.2,0,0,1,.2-.81,6.19,6.19,0,0,1,2.66-2.85l.51-.32c6.68-4,14.36-5.33,22.13-6.41l2.12-.29h.06c2.87-.38,5.75-.76,8.58-1.24,3.27-.55,6.52-1.26,9.76-2,7-1.66,13.93-3.59,20.93-4.87a73.93,73.93,0,0,1,16.53-1.41c-6.26.83-12,3.58-17.56,6.73C91,32,89.39,33,87.77,34c-3.23,1.94-6.9,3.46-10,5.58a18.8,18.8,0,0,0-3.43,2.91c-.25.27-.49.56-.72.85-9.78,12.56-15.73,19.64-14.14,9,.23-1.54-3.2.44-4.52-.38a2.93,2.93,0,0,1-1.18-3.71,2.22,2.22,0,0,1,.19-.27h-.29q-.62,0-1.23,0c-6.61-.26-13.17-1.71-19.71-3-1.92-.38-3.84-.75-5.76-1.07l-1.61-.26a54.83,54.83,0,0,0-15-.5,6.88,6.88,0,0,0-3,.87,6.84,6.84,0,0,0-2.34,3.25,28.05,28.05,0,0,0-1.91,7c-.28,2-.25,4.28,1.14,5.75,1.19,1.25,3,1.55,4.75,1.77l1.95.23c4.63.55,9.28.94,13.94,1.13,5.13.22,10.27.2,15.39-.09A14.93,14.93,0,0,0,47,61.47l.43-.27a8.09,8.09,0,0,0,2.41-2.57,20.32,20.32,0,0,0,2.29-7.89c.12-1,.24-1.91.35-2.87s.19-1.9.25-2.86a46.38,46.38,0,0,0,0-8.08c0-.48-.1-1-.17-1.43s-.13-.87-.22-1.3a2.93,2.93,0,0,0-.05-.29,23.43,23.43,0,0,0-6-12.08,11.44,11.44,0,0,0-4.31-2.91,16.62,16.62,0,0,0-5.72-.57l-10,.17-14.95.26c-1.54,0-3.27,0-4.35-1.12s-.49-3.86,1-3.43C15.29,16.4,23.54,8.15,18,4.63A4.36,4.36,0,0,0,14.67,4c-2.49.51-4.73,3.06-6,5.61-.84,1.77-1.2,3.54-.82,4.64"/><path class="cls-4" d="M75.89,80.52l.21-.26"/><path class="cls-4" d="M53.83,48.34l-.06-.16-.1-.28C53.32,47,53,46,52.69,45a13.08,13.08,0,0,1-.47-6.75,8.64,8.64,0,0,1,.44-1.33,14.21,14.21,0,0,1,1.73-3h0c.58-.79,1.21-1.56,1.84-2.3q4.32-5.1,8.93-9.92l.38-.4a25.46,25.46,0,0,1,7-5.67c3-1.45,6.41-1.74,9.73-2,2.92-.24,6.14-.39,8.47,1.38,2.49,1.87,3.16,5.32,3.1,8.44,0,.79-.06,1.57-.14,2.34a31.85,31.85,0,0,1-1,5.32c-1.67,6-4.94,11.56-8.45,17-.6.93-1.2,1.86-1.81,2.78-1.7,2.61-3.4,5.21-5,7.83-1.3,2.18-2.59,4.51-4.73,5.86a13.91,13.91,0,0,1-5.54,1.67c-1.35.19-2.7.36-4.06.49l-1.07.11c-2.32.22-4.65.35-7,.41-5.42.14-11.12-.1-15.94,2.37a15.2,15.2,0,0,0-5.3,4.55,14.94,14.94,0,0,0-1.3,2.07A15.27,15.27,0,0,0,30.76,83a4.16,4.16,0,0,0,.61,2.62A4.53,4.53,0,0,0,34.27,87a46.92,46.92,0,0,0,14.14.62,10.35,10.35,0,0,0,5.67-1.9c2.6-2.17,2.79-6,2.78-9.41a10.35,10.35,0,0,0-.32-3,4.28,4.28,0,0,0-.5-1.06c-1.15-1.74-3.52-2.15-5.6-2.08C45,70.34,39.89,72.75,34.58,74l-.73.17c-1,.22-2,.41-3,.56-5.56.85-11.07.88-16.47,2.69-.24.07-.47.15-.71.24C6.6,80.26-2,72.92,2,69.56a3.85,3.85,0,0,1,1.81-.82c2.47-.48,5.83.82,8.16,2.75,2.1,1.73,3.35,4,2.34,5.87"/><path class="cls-4" d="M3.82,68.73c-.23-2.63,4-4.72,6.91-4.36,2.44.29,4,2.3,1.25,7.12h0"/><path class="cls-4" d="M14.67,4c0-4.7-12.06-4.54-6,5.61h0"/><line class="cls-5" x1="75.9" y1="93.6" x2="81.8" y2="95.37"/><path class="cls-4" d="M77.1,92.6c-1.35,2.14-10.82.76-10.52-3.21s9.48-9.17,9.48-9.17l0,0h0c3.57,2.9-3.56,8.52-3.56,8.52S78.45,90.46,77.1,92.6Z"/><line class="cls-4" x1="77.1" y1="92.6" x2="83.01" y2="94.36"/></g></g></svg>