<svg xmlns="http://www.w3.org/2000/svg" viewBox="0 0 160.56 81.55"><defs><style>.cls-1{fill:#a7a9ac;}.cls-2{fill:#d6d37c;}.cls-3{fill:#39b54a;}.cls-4{fill:#2d2a2b;}.cls-5{fill:#ffe1c0;}.cls-6{fill:#be1e2d;}.cls-7{fill:#2e3192;}.cls-8{fill:#87bdb8;}.cls-9{fill:#f16680;}.cls-10,.cls-11,.cls-12{fill:none;stroke:#231f20;stroke-miterlimit:10;}.cls-10{stroke-width:2px;}.cls-11{stroke-width:1.5px;}</style></defs><title>keys</title><g id="Layer_2" data-name="Layer 2"><g id="Layer_2-2" data-name="Layer 2"><path class="cls-1" d="M24.2,34.86A3.92,3.92,0,0,0,23,37.2s-20.12-5.14-18.82-7S24.2,34.86,24.2,34.86Z"/><path class="cls-2" d="M67.11,31.5l4.11-1.07L66.42,29Zm3.14,5.61L66.42,34,65.5,37.8Zm3.65-2.7-.65-1.61-.53-1.3-4.18,2.16L72,36.44l1.17-1.23Zm-1.07-5.92s3.66,4.74,3.66,6.25a2,2,0,0,1-.18.72,14.9,14.9,0,0,1-2,3c-.77.92-1.43,1.62-1.43,1.62H72a26.61,26.61,0,0,0-9.35-1.39.74.74,0,0,1-.23-.32L61.3,35.88l-2.16-1.05-21-3.23c-3.05-1.81-1.81-4.5,1.11-4.41a19.78,19.78,0,0,0,4.88-.86l1.4,1.4,1.73-1.4,3.23,2.37,3-1,1,1.62,2.92-1.08,1,1.4,2-1.72,2.37.54a1.66,1.66,0,0,1,.15-.33C64.42,25.82,72.83,28.49,72.83,28.49Z"/><path class="cls-2" d="M81.51,16.18a7.17,7.17,0,0,1,3.41,9.55A7.88,7.88,0,0,1,83.41,28a7.35,7.35,0,0,1-4,2.14c1.2-3,2-6.12,1.76-6.56s-4.79-2.71-8.62-4.07h0l-1.7-3.14-3.62-1.11-.69-2.75s-3.15-3.22-4-3.47S59.31,5,61.47,4.13,75.62,16.45,75.62,16.45c.3-.73,1.2-1,2.27-1A9.31,9.31,0,0,1,81.51,16.18Z"/><path class="cls-2" d="M81.22,23.59c.23.44-.56,3.57-1.76,6.56-.9,2.24-2,4.4-3.15,5.31a2,2,0,0,0,.18-.72c0-1.51-3.66-6.25-3.66-6.25s-8.41-2.67-9.88-.33l.46-1.76S58.72,25,58.87,22.63l-3.33,1.11.1-2.91-1.86.61L51.91,18.3l-3,0-1.57-2.58-3,.29-1.74-3-.76-3.38L45,9.93,60.73,20.35c.82-1.13,4.7,1,4.7,1a5.81,5.81,0,0,1,1.91-2.77c.59-.47,2.78.06,5.26.93h0C76.43,20.88,80.94,23.06,81.22,23.59Zm-5.85,7c.81.19,1.67-.54,1.92-1.63a2.25,2.25,0,0,0-.19-1.66,1.25,1.25,0,0,0-.81-.65c-.81-.19-1.68.54-1.93,1.63a2.4,2.4,0,0,0,.13,1.54A1.32,1.32,0,0,0,75.37,30.63Z"/><path class="cls-3" d="M40.08,43.85c-.72,1.12-.79,2.91.83,5.22a7.27,7.27,0,0,0,0,2.59c-3.48-2.5-4.18-5.06-3.54-7.14A9.41,9.41,0,0,0,40.08,43.85Z"/><path class="cls-3" d="M41.35,40.46c2.29-.86,4.56-.19,4.09,3.06a7.14,7.14,0,0,0-1.35.75A1.61,1.61,0,0,0,42,42.53a2.92,2.92,0,0,0-1.93,1.32,9.41,9.41,0,0,1-2.74.67A6.69,6.69,0,0,1,41.35,40.46Z"/><path class="cls-3" d="M55.25,44.7a9.82,9.82,0,0,1,1.15,1h0c2.17,3.37-12.79-1.63-7.95-2.9h0a10.18,10.18,0,0,1,4.28.6A10.42,10.42,0,0,1,55.25,44.7Z"/><path class="cls-3" d="M57.85,55.79c-2.1,3.17-6.54,4.5-10.72,3a9.45,9.45,0,0,1-6.25-7.11,7.27,7.27,0,0,1,0-2.59,5.94,5.94,0,0,1,.31-1.17,7.44,7.44,0,0,1,2.87-3.63,7.14,7.14,0,0,1,1.35-.75,9.19,9.19,0,0,1,3-.75h0c-4.84,1.27,10.12,6.27,7.95,2.9A8.36,8.36,0,0,1,59,52.53a7.3,7.3,0,0,1-.39,1.71A6.85,6.85,0,0,1,57.85,55.79Z"/><path class="cls-4" d="M80.61,62.76a4.85,4.85,0,0,1-1.44-.1V59.28c-2.72-3.14,4.87-3.14,2.29,0l-.13,3.37h0A5.43,5.43,0,0,1,80.61,62.76Z"/><path class="cls-4" d="M78.77,49.76a4.57,4.57,0,0,0-1.46.74,6.72,6.72,0,0,0-2.71-2.22,1.81,1.81,0,0,0-2,.6l3.74,2.59A8,8,0,0,0,75.19,58a6.54,6.54,0,0,1-4.56.94L58.48,69.25,56.71,67l11-10.39c-2.38-3.44.9-8.94,5-9.84l.72-.11a4.33,4.33,0,0,1,.72,0,5.94,5.94,0,0,1,4.62,3.16Z"/><path class="cls-4" d="M29.87,40.81a2.24,2.24,0,0,0,.24,1l0,0a60,60,0,0,0-6.14-1.69L24,40a3,3,0,0,1-1-2.75,3.92,3.92,0,0,1,1.21-2.34,5.84,5.84,0,0,1,5.07-1.29,8.51,8.51,0,0,1,3.53,1.34,9.83,9.83,0,0,0-1.23,3.36A3.13,3.13,0,0,0,29.87,40.81Z"/><path class="cls-4" d="M9.82,41.78l1.4,5.58C5.72,47.79,2.81,41.36,9.82,41.78Z"/><path class="cls-4" d="M12.4,41.22c7-.54,8.41,4.85,1.51,5.71Z"/><path class="cls-4" d="M11.22,47.36l-1.4-5.58C2.81,41.36,5.72,47.79,11.22,47.36ZM1.84,41.78c5.84-4.27,15.71-3.1,22.1-1.69a60,60,0,0,1,6.14,1.69l0,0s0,0,0,0a2.29,2.29,0,0,0,.32.51h0c.76,1.22,2.33,3.93,2.09,5.08C32.23,49,13.27,57,2.27,49.76-.31,47.26,1.84,41.78,1.84,41.78Zm12.07,5.15c6.9-.86,5.5-6.25-1.51-5.71Z"/><path class="cls-5" d="M89.89,48l15.73,30.6c-.1,1.94-3.85,2-3.85,2L85.6,49.38C86.44,47.87,89.89,48,89.89,48Z"/><path class="cls-6" d="M75.19,58a8,8,0,0,1,1.12-6.51,5,5,0,0,1,.67-.71,2.5,2.5,0,0,1,.33-.26,4.57,4.57,0,0,1,1.46-.74,5.89,5.89,0,0,1,1.84-.25,5,5,0,0,1,2.81.79h0c4,2.68,2.87,11.28-2.1,12.35l.13-3.37c2.58-3.14-5-3.14-2.29,0v3.38C77.08,62.17,75.7,60.23,75.19,58Z"/><path class="cls-7" d="M89.78,29.35c1.29-.1,2.28-.85,2.28-1.77S90.9,25.8,89.47,25.8A2.64,2.64,0,0,0,87,27a1.13,1.13,0,0,0-.13.54c0,1,1.16,1.79,2.59,1.79A1.56,1.56,0,0,0,89.78,29.35Zm17.11-9.75c-.91-2.26-1.83-4.52-2.74-6.77-.54,1.68-1.09,3.37-1.64,5a6.61,6.61,0,0,1-2.4-1.79c0,2.36-.74,10.08,1.53,13.92A86,86,0,0,1,91,31.31c-2.14.15-3.58.19-3.58.19l-4-3.49a7.88,7.88,0,0,0,1.51-2.28,7.17,7.17,0,0,0-3.41-9.55,9.31,9.31,0,0,0-3.62-.76s.49-9.56,2.3-11.32c2.33-2.28,27.6,1.76,28.41,3.53a3.3,3.3,0,0,1,0,1.41,4.79,4.79,0,0,0-.58-.33,24.51,24.51,0,0,1,.19,2.71A24,24,0,0,1,106.89,19.6Z"/><path class="cls-8" d="M107.06,37.4c-1.29-15,23.6-13.26,21.34,14.55C104,62.13,87.21,48.27,92.17,41.1c1.41-2,4.59-3.55,9.85-3.81a39.81,39.81,0,0,1,4.93.1Z"/><path class="cls-9" d="M101.64,30c-2.27-3.84-1.53-11.56-1.53-13.92a6.61,6.61,0,0,0,2.4,1.79c.55-1.68,1.1-3.37,1.64-5,.91,2.25,1.83,4.51,2.74,6.77a24,24,0,0,0,1.36-8.18c.19-.92.32-1.74.39-2.38a9.27,9.27,0,0,1,4,4.9,58.45,58.45,0,0,0,1.77-8.49,5.6,5.6,0,0,1,2.88,3.85,16.41,16.41,0,0,1,.17,4.95,44.47,44.47,0,0,0,10.94-8.8l-3.56,7.86c3-.14,3.53-1.88,6.58-2,1.17,0,2.82-2.61,3-3.77,0,0,3.39,6.08,1,7.76,5.63-3.09,4.79-6.23,9.76-10.3,1.6,2.7,1.06,6.26-.54,9a22,22,0,0,1-5.13,5.55c-.49.37-1,.76-1.42,1.17.47-.38.95-.77,1.42-1.17a25.51,25.51,0,0,1,9.71-4.6c.89,1.46.16,3.47-1.17,4.56a10.79,10.79,0,0,1-4.74,1.85,10.41,10.41,0,0,0,4.38.09A6.72,6.72,0,0,1,152,22c1.25.78,1.89,2.67.91,3.77a3.69,3.69,0,0,1-1.29.82,26.26,26.26,0,0,1-7.11,2l14.93,2.8c-.34,2.44-2.63,4.21-5,4.9s-4.89.57-7.34.82a1.48,1.48,0,0,0-.93.33c-.46.46-.18,1.23.14,1.8.74,1.35,1.52,2.69,2.34,4a50.89,50.89,0,0,1-9.75-2.17A26.11,26.11,0,0,0,141,52l-2.23-1.41A15.52,15.52,0,0,0,135.47,58a84.51,84.51,0,0,0-.24-9.28l-3.32,4.77c-.29.42-3.39-.6-3.51-1.58,2.26-27.81-22.63-29.53-21.34-14.55H107c-1.13-1.46-4.77-2.52-9.1-2.52-.4,0-.8,0-1.19,0a37.62,37.62,0,0,1-4.45-2.79c4.69-.11,6-.78,10.73-.61A4.83,4.83,0,0,1,101.64,30Z"/><path class="cls-10" d="M139.54,19.49a25.51,25.51,0,0,1,9.71-4.6c.89,1.46.16,3.47-1.17,4.56a10.79,10.79,0,0,1-4.74,1.85,10.41,10.41,0,0,0,4.38.09A6.72,6.72,0,0,1,152,22c1.25.78,1.89,2.67.91,3.77a3.69,3.69,0,0,1-1.29.82,26.26,26.26,0,0,1-7.11,2l14.93,2.8c-.34,2.44-2.63,4.21-5,4.9s-4.89.57-7.34.82a1.48,1.48,0,0,0-.93.33c-.46.46-.18,1.23.14,1.8.74,1.35,1.52,2.69,2.34,4a50.89,50.89,0,0,1-9.75-2.17A26.11,26.11,0,0,0,141,52l-2.23-1.41A15.52,15.52,0,0,0,135.47,58a84.51,84.51,0,0,0-.24-9.28l-3.32,4.77c-.29.42-3.39-.6-3.51-1.58"/><path class="cls-10" d="M139.54,19.49c-.47.4-.95.79-1.42,1.17C138.58,20.25,139.05,19.86,139.54,19.49Z"/><path class="cls-10" d="M102,37.16a33.06,33.06,0,0,1-5.35-2.26,37.62,37.62,0,0,1-4.45-2.79c4.69-.11,6-.78,10.73-.61a4.83,4.83,0,0,1-1.3-1.49c-2.27-3.84-1.53-11.56-1.53-13.92a6.61,6.61,0,0,0,2.4,1.79c.55-1.68,1.1-3.37,1.64-5,.91,2.25,1.83,4.51,2.74,6.77a24,24,0,0,0,1.36-8.18,24.51,24.51,0,0,0-.19-2.71,4.79,4.79,0,0,1,.58.33,9.27,9.27,0,0,1,4,4.9,58.45,58.45,0,0,0,1.77-8.49,5.6,5.6,0,0,1,2.88,3.85,16.41,16.41,0,0,1,.17,4.95,44.47,44.47,0,0,0,10.94-8.8l-3.56,7.86c3-.14,3.53-1.88,6.58-2,1.17,0,2.82-2.61,3-3.77,0,0,3.39,6.08,1,7.76,5.63-3.09,4.79-6.23,9.76-10.3,1.6,2.7,1.06,6.26-.54,9a22,22,0,0,1-5.13,5.55"/><path class="cls-10" d="M107,37.39h.11c-1.29-15,23.6-13.26,21.34,14.55C104,62.13,87.21,48.27,92.17,41.1c1.41-2,4.59-3.55,9.85-3.81A39.81,39.81,0,0,1,107,37.39Z"/><path class="cls-10" d="M89.89,48l15.73,30.6c-.1,1.94-3.85,2-3.85,2L85.6,49.38C86.44,47.87,89.89,48,89.89,48Z"/><path class="cls-10" d="M81.33,62.66a5.43,5.43,0,0,1-.72.1,4.85,4.85,0,0,1-1.44-.1c-2.09-.49-3.47-2.43-4-4.68a8,8,0,0,1,1.12-6.51,5,5,0,0,1,.67-.71,2.5,2.5,0,0,1,.33-.26,4.57,4.57,0,0,1,1.46-.74,5.89,5.89,0,0,1,1.84-.25,5,5,0,0,1,2.81.79"/><path class="cls-10" d="M83.43,50.3c4,2.68,2.87,11.28-2.1,12.35"/><path class="cls-10" d="M56.4,45.68A8.36,8.36,0,0,1,59,52.53a7.3,7.3,0,0,1-.39,1.71,6.85,6.85,0,0,1-.79,1.55c-2.1,3.17-6.54,4.5-10.72,3a9.45,9.45,0,0,1-6.25-7.11,7.27,7.27,0,0,1,0-2.59,5.94,5.94,0,0,1,.31-1.17,7.44,7.44,0,0,1,2.87-3.63,7.14,7.14,0,0,1,1.35-.75,9.19,9.19,0,0,1,3-.75,10.18,10.18,0,0,1,4.28.6,10.42,10.42,0,0,1,2.52,1.33,9.82,9.82,0,0,1,1.15,1"/><path class="cls-11" d="M56.4,45.67h0c2.17,3.37-12.79-1.63-7.95-2.9"/><polyline class="cls-10" points="59.04 52.53 63.43 50.34 64.39 51.66 57.85 55.79 57.84 55.8"/><path class="cls-10" d="M44.09,44.28h0A1.61,1.61,0,0,0,42,42.53a2.92,2.92,0,0,0-1.93,1.32c-.72,1.12-.79,2.91.83,5.22"/><path class="cls-10" d="M45.44,43.52c.47-3.25-1.8-3.92-4.09-3.06a6.69,6.69,0,0,0-4,4.06c-.64,2.08.06,4.64,3.54,7.14a0,0,0,0,0,0,0"/><path class="cls-10" d="M30.47,42.39c.76,1.22,2.33,3.93,2.09,5.08C32.23,49,13.27,57,2.27,49.76c-2.58-2.5-.43-8-.43-8,5.84-4.27,15.71-3.1,22.1-1.69a60,60,0,0,1,6.14,1.69l0,0"/><path class="cls-10" d="M30.14,41.87c.07.1.18.28.32.51"/><path class="cls-11" d="M9.82,41.78l1.4,5.58C5.72,47.79,2.81,41.36,9.82,41.78Z"/><path class="cls-11" d="M12.4,41.22l1.51,5.71C20.81,46.07,19.41,40.68,12.4,41.22Z"/><path class="cls-10" d="M31.28,42.56c3.77-1.08,4.57-3.39,3.57-5.41a1.46,1.46,0,0,0-.16-.3,6.1,6.1,0,0,0-1.89-1.94,8.51,8.51,0,0,0-3.53-1.34,5.84,5.84,0,0,0-5.07,1.29A3.92,3.92,0,0,0,23,37.2,3,3,0,0,0,24,40"/><path class="cls-10" d="M24.2,34.86s-18.74-6.46-20-4.63S23,37.2,23,37.2"/><path class="cls-11" d="M32.8,34.91a9.83,9.83,0,0,0-1.23,3.36.71.71,0,0,0,.18.53c.73.67,2.79.69,2.93-1.62,0-.1,0-.21,0-.33"/><path class="cls-11" d="M79.17,62.66V59.28c-2.72-3.14,4.87-3.14,2.29,0l-.13,3.37h0"/><path class="cls-10" d="M62.6,38.69a.74.74,0,0,1-.23-.32L61.3,35.88l-2.16-1.05-21-3.23c-3.05-1.81-1.81-4.5,1.11-4.41a19.78,19.78,0,0,0,4.88-.86l1.4,1.4,1.73-1.4,3.23,2.37,3-1,1,1.62,2.92-1.08,1,1.4,2-1.72,2.37.54a1.66,1.66,0,0,1,.15-.33c1.47-2.34,9.88.33,9.88.33s3.66,4.74,3.66,6.25a2,2,0,0,1-.18.72,14.9,14.9,0,0,1-2,3c-.77.92-1.43,1.62-1.43,1.62H72C69.71,40,63.87,39.82,62.6,38.69Z"/><polygon class="cls-12" points="73.14 35.21 73.9 34.41 73.25 32.8 72.72 31.5 68.54 33.66 71.97 36.44 73.14 35.21"/><polygon class="cls-12" points="70.25 37.11 66.42 33.97 65.5 37.8 70.25 37.11"/><polygon class="cls-12" points="67.11 31.5 71.22 30.43 66.42 29.02 67.11 31.5"/><path class="cls-10" d="M72.6,19.51c-2.48-.87-4.67-1.4-5.26-.93a5.81,5.81,0,0,0-1.91,2.77s-3.88-2.13-4.7-1L45,9.93l-3.11-.28L42.63,13l1.74,3,3-.29,1.57,2.58,3,0,1.87,3.14,1.86-.61-.1,2.91,3.33-1.11c-.15,2.4,4.54,3.77,4.54,3.77L63,28.16l-.21.8"/><path class="cls-10" d="M76.29,35.47h0c1.12-.91,2.25-3.07,3.15-5.31,1.2-3,2-6.12,1.76-6.56s-4.79-2.71-8.62-4.07"/><path class="cls-12" d="M77.1,27.34A2.25,2.25,0,0,1,77.29,29c-.25,1.09-1.11,1.82-1.92,1.63a1.32,1.32,0,0,1-.88-.77,2.4,2.4,0,0,1-.13-1.54c.25-1.09,1.12-1.82,1.93-1.63A1.25,1.25,0,0,1,77.1,27.34Z"/><path class="cls-10" d="M79.46,30.15a7.35,7.35,0,0,0,4-2.14,7.88,7.88,0,0,0,1.51-2.28,7.17,7.17,0,0,0-3.41-9.55,9.31,9.31,0,0,0-3.62-.76c-1.07,0-2,.3-2.27,1,0,0-12-13.14-14.15-12.32S61.78,8.8,62.61,9s4,3.47,4,3.47l.69,2.75,3.62,1.11,1.7,3.14h0"/><path class="cls-10" d="M77.1,27.34a8.72,8.72,0,0,0-2.61,2.52c-.11.16-.21.32-.31.48"/><path class="cls-12" d="M89.78,29.35c1.29-.1,2.28-.85,2.28-1.77S90.9,25.8,89.47,25.8A2.64,2.64,0,0,0,87,27a1.13,1.13,0,0,0-.13.54c0,1,1.16,1.79,2.59,1.79A1.56,1.56,0,0,0,89.78,29.35Z"/><path class="cls-10" d="M89.78,29.35A9,9,0,0,0,87,27a9.4,9.4,0,0,0-2.28-.89"/><path class="cls-10" d="M73.24,32.8a7.81,7.81,0,0,0-.15,1.54,8.46,8.46,0,0,0,0,.87,7.92,7.92,0,0,0,1.12,3.26,8.74,8.74,0,0,0,3,3,9.75,9.75,0,0,0,5,1.36,9.29,9.29,0,0,0,1.76-.16,9.42,9.42,0,0,0,5.26-2.82,8.15,8.15,0,0,0,2.06-4A7.94,7.94,0,0,0,91,31.5"/><path class="cls-10" d="M42.05,42.49s0,0,0,0a5.31,5.31,0,0,1-1.93,1.32,9.41,9.41,0,0,1-2.74.67c-.34,0-.69,0-1,0-2.59,0-4.82-.89-5.83-2.18h0a2.29,2.29,0,0,1-.32-.51s0,0,0,0a2.24,2.24,0,0,1-.24-1,3.13,3.13,0,0,1,1.7-2.54,7.84,7.84,0,0,1,3.11-1.09.47.47,0,0,1,.17,0,9.71,9.71,0,0,1,1.45-.1A8,8,0,0,1,41.88,39a3,3,0,0,1,.71,1.09"/><path class="cls-10" d="M75.2,58h0a6.54,6.54,0,0,1-4.56.94L58.48,69.25,56.71,67l11-10.39c-2.38-3.44.9-8.94,5-9.84a4.48,4.48,0,0,1,.72-.11,4.33,4.33,0,0,1,.72,0,5.94,5.94,0,0,1,4.62,3.16"/><path class="cls-12" d="M76.31,51.47l-3.74-2.59a1.81,1.81,0,0,1,2-.6,6.72,6.72,0,0,1,2.71,2.22"/><path class="cls-10" d="M77,50.76a5.51,5.51,0,0,1-2.38-2.47"/><path class="cls-10" d="M74.15,46.6c0-.05,0-.1,0-.15a2.26,2.26,0,0,1,0-.26,5,5,0,0,1,1.61-3.67,5.5,5.5,0,0,1,1.57-1.06,6,6,0,0,1,2.53-.55,5.87,5.87,0,0,1,4.24,1.75,4.87,4.87,0,0,1,1,1.5,5,5,0,0,1,.44,2,4.83,4.83,0,0,1-.29,1.66,5.36,5.36,0,0,1-1.84,2.45h0"/><path class="cls-10" d="M85.12,44.16A5.4,5.4,0,0,1,86.43,44c1.83,0,3.31.89,3.31,2s-1.48,2-3.31,2a5.36,5.36,0,0,1-1.16-.12c-1.26-.29-2.15-1-2.15-1.86S83.94,44.47,85.12,44.16Z"/><path class="cls-10" d="M41.35,40.46a4.35,4.35,0,0,1,.53-1.5c1.18-2,4-3.49,7.39-3.49,3.69,0,6.79,1.76,7.69,4.14A4,4,0,0,1,57.22,41a4.36,4.36,0,0,1-1.31,3,5.27,5.27,0,0,1-.64.6"/><path class="cls-10" d="M60.42,38.84c.7-.08,1.43-.13,2.18-.15A26.61,26.61,0,0,1,72,40.08a8.43,8.43,0,0,1,3.79,2.44,3.3,3.3,0,0,1,.75,2.15c0,.83-.92,1.42-2.35,1.78-.22.06-.46.11-.71.16l-.72.11a18.28,18.28,0,0,1-1.92.17c-5,.23-11.92-.87-14.88-2.82-1-.67-1.56-1.45-1.38-2.31s1.1-1.64,2.43-2.15a13.72,13.72,0,0,1,3.23-.75"/><path class="cls-10" d="M60.19,38.86l.23,0c4.6-.28,5.91,8,10.37,8a3.17,3.17,0,0,0,.43,0"/><path class="cls-10" d="M92.17,41.1a8.42,8.42,0,0,1-2.83-1.26,2,2,0,0,1-.94-1.51c0-1,1.15-1.9,3-2.52a19.12,19.12,0,0,1,5.26-.91c.39,0,.79,0,1.19,0,4.33,0,8,1.06,9.1,2.52l0,.06"/><path class="cls-10" d="M106.53,18.43c.65-2.4,1.31-5,1.72-7,.19-.92.32-1.74.39-2.38a3.3,3.3,0,0,0,0-1.41c-.81-1.77-26.08-5.81-28.41-3.53-1.81,1.76-2.3,11.32-2.3,11.32"/><path class="cls-10" d="M83.41,28l4,3.49s1.44,0,3.58-.19A86,86,0,0,0,101.64,30h0"/></g></g></svg>