<svg xmlns="http://www.w3.org/2000/svg" xmlns:xlink="http://www.w3.org/1999/xlink" viewBox="0 0 161.87 125.23"><defs><style>.cls-1,.cls-23,.cls-24,.cls-25,.cls-5,.cls-8{fill:none;}.cls-2{fill:#2d2a2b;}.cls-3{fill:#ffe1c0;}.cls-4{fill:#42683b;}.cls-5{stroke:#9b8579;}.cls-23,.cls-24,.cls-25,.cls-5,.cls-8{stroke-miterlimit:10;}.cls-6{fill:#f16680;}.cls-7{clip-path:url(#clip-path);}.cls-8{stroke:#ffe1c0;}.cls-9{clip-path:url(#clip-path-2);}.cls-10{clip-path:url(#clip-path-3);}.cls-11{fill:#58595b;}.cls-12{fill:#1b75bc;}.cls-13{fill:#d1d3d4;}.cls-14{fill:#f9ed32;}.cls-15{fill:#be1e2d;}.cls-16{fill:#009444;}.cls-17{fill:#662d91;}.cls-18{fill:#00a79d;}.cls-19{fill:#603913;}.cls-20{fill:#2e3192;}.cls-21{fill:#9e1f63;}.cls-22{fill:url(#New_Pattern_Swatch_2);}.cls-23,.cls-24,.cls-25{stroke:#231f20;}.cls-23{stroke-width:2px;}.cls-24{stroke-width:1.5px;}</style><clipPath id="clip-path"><path class="cls-1" d="M20.84,65.59a5.65,5.65,0,0,1,5.4-2.08,14.65,14.65,0,0,1,.29-1.84c.69-2.89,1.06-4.74,4-5.77,4.83-1.67,7.32,1.93,8,6,.41,2.32,2,3.92,1.46,6.15,1.07-2.21.48-3.72,2.22-5.52,2.22-2.28,5.58.63,6.82,3.39,1.33,2.93,5,3.86,3,6.71a7,7,0,0,1-2.67,2.26c2.92.52,6.55,4.55,7.87,7.35,2.17,4.61-2.8,5.83-7.24,5.86-.88,0-1.77,0-2.67-.1,0,.14.08.27.11.41.57,2.77,2.28,4.49-.34,5.18-3.72,1-6.42-.51-10-2-2.48-1.06-9-1.67-8.08-4.37a3.68,3.68,0,0,1,.32-.7,4.73,4.73,0,0,1-1.27-3.53c0-.33,0-.65.07-1-3.15-.15-4.8-5.74-6.54-8.34C19.42,70.13,18,68.82,20.84,65.59Z"/></clipPath><clipPath id="clip-path-2"><path class="cls-1" d="M91.37,112.22a5.66,5.66,0,0,1,.83-5.73,13.42,13.42,0,0,1-1.46-1.15c-2.19-2-3.62-3.25-3.06-6.35.91-5,5.27-5.43,9.14-4.08,2.23.78,4.4.15,6.08,1.74-1.41-2-3-2.24-3.73-4.64-.91-3.05,3.28-4.55,6.29-4.29,3.21.28,5.82-2.47,7.35.63a6.87,6.87,0,0,1,.66,3.43c1.88-2.28,7.18-3.47,10.27-3.26,5.07.36,3.71,5.3,1.56,9.18-.43.77-.9,1.53-1.4,2.28a3.25,3.25,0,0,1,.42.11c2.69.85,5,.21,4.34,2.83-1,3.72-3.59,5.35-6.64,7.7-2.14,1.64-5.86,7-7.77,4.9a4.74,4.74,0,0,1-.46-.62,4.7,4.7,0,0,1-3.69-.62c-.28-.17-.55-.35-.82-.54-1.68,2.68-7.36,1.38-10.47,1.62C94.63,115.68,92.8,116.27,91.37,112.22Z"/></clipPath><clipPath id="clip-path-3"><path class="cls-1" d="M120.69,28.47A5.68,5.68,0,0,0,117.07,24a14.41,14.41,0,0,0,.67-1.73c.87-2.84,1.47-4.63-.59-7-3.33-3.87-7.29-2-9.94,1.12-1.53,1.81-3.72,2.37-4.35,4.59.18-2.45,1.45-3.46.85-5.89-.77-3.09-5.14-2.26-7.6-.5-2.62,1.86-6.27.82-6,4.27a7,7,0,0,0,1.17,3.29c-2.78-1-7.94.65-10.5,2.4-4.19,2.88-.51,6.45,3.32,8.71.75.44,1.55.85,2.35,1.25q-.15.14-.3.3c-1.89,2.1-4.22,2.73-2.3,4.65,2.72,2.71,5.8,2.78,9.63,3.26,2.68.33,8.61,3.08,9.18.28a4.9,4.9,0,0,0,.08-.77,4.68,4.68,0,0,0,2.87-2.4c.16-.29.29-.59.43-.89,2.8,1.46,7-2.54,9.85-3.92C119.64,33.11,121.51,32.69,120.69,28.47Z"/></clipPath><pattern id="New_Pattern_Swatch_2" data-name="New Pattern Swatch 2" width="154.55" height="136.58" patternTransform="translate(-39.23 9.16)" patternUnits="userSpaceOnUse" viewBox="0 0 154.55 136.58"><rect class="cls-1" width="154.55" height="136.58"/><rect class="cls-2" width="154.55" height="136.58"/><path class="cls-3" d="M54.26,92.66c2.14-.64,3.23-.28,5.46-.26a5.92,5.92,0,0,1,3.21.79c.93.61,1.56,1.6,2.51,2.16a10.42,10.42,0,0,0-2.28,2.54,27.89,27.89,0,0,1-1.6,3.13c-1.43,1.87-4.05,2.22-6.39,2.42l3.7,7.81c.64,1.35,1.27,3,.53,4.26a36.69,36.69,0,0,1-12.25-3.88,1.24,1.24,0,0,1-.65-.58,1.17,1.17,0,0,1,0-.74A27.63,27.63,0,0,1,48,105.8a18.78,18.78,0,0,1-17.2-6.33,8,8,0,0,0,4,.64,11.47,11.47,0,0,0,2.42-.92,15.58,15.58,0,0,1,8.43-.66C42.54,96.11,36.91,96,34.36,93a3.19,3.19,0,0,1-.94-1.67c-.16-1.46,1.55-2.52,1.68-4,3,1.77,10.26,6.3,10.37,6.67a15.26,15.26,0,0,1-1-9c.94-3.74,4.5-5.92,4.61-5.58s2.4,4.66,2.31,7.86c-.13,4.57-1,8.27-.51,8C52.16,94.54,52.74,93.11,54.26,92.66Z"/><path class="cls-4" d="M11,57.28a18.31,18.31,0,0,0,6.64,19,2.84,2.84,0,0,0,1.29.63,2.54,2.54,0,0,0,1.35-.27,5.93,5.93,0,0,0,2.89-2.81A5.22,5.22,0,0,1,20.71,77a17.21,17.21,0,0,1-3.79,1.63,99.24,99.24,0,0,0-11.09,4.6c3.42,1.23,5.94,4.58,9.53,5.15a18.26,18.26,0,0,0,5.3-.4,35.92,35.92,0,0,0,4.14-.61,5.91,5.91,0,0,0,3.46-2.21c1-1.46.94-3.43,1.9-4.91a2.23,2.23,0,0,0,.4-.8,1.84,1.84,0,0,0-.14-.86L28.1,71.94a1.83,1.83,0,0,0-.28-.58,1.88,1.88,0,0,0-.7-.47,9.74,9.74,0,0,1-3.78-3.25,14.56,14.56,0,0,0-3.35-3Q17.64,62.84,15.34,61C14.85,60.58,10.83,57.71,11,57.28Z"/><path class="cls-3" d="M60.62,84.11c-.27,2.22-1,3.08-1.92,5.12a5.89,5.89,0,0,1-2,2.63c-.93.61-2.09.8-3,1.46a10.57,10.57,0,0,0-1.44-3.1,28.48,28.48,0,0,1-2.24-2.71c-1.15-2.05-.44-4.6.3-6.82L41.72,81c-1.49,0-3.23,0-4.13-1.2A36.94,36.94,0,0,1,46,70.08a1.24,1.24,0,0,1,.79-.37,1.17,1.17,0,0,1,.67.3A27.22,27.22,0,0,1,51,73.14,18.78,18.78,0,0,1,63.64,59.85a8,8,0,0,0-2.16,3.39,12.43,12.43,0,0,0-.11,2.59,15.51,15.51,0,0,1-2.73,8c3.44-1.85,5.77-7,9.49-8.16a3.2,3.2,0,0,1,1.9-.19c1.41.42,1.71,2.42,3,3.12-2.79,2-9.83,6.93-10.21,6.88s5-.18,8.64,2.6c3.07,2.34,3.66,6.47,3.31,6.43s-5.23.36-8.14-1c-4.14-1.92-7.22-4.13-7.14-3.62C59.71,81.44,60.8,82.54,60.62,84.11Z"/><path class="cls-5" d="M55.94,74a1.86,1.86,0,0,1,1.16,1.79l1.45-.76a1.21,1.21,0,0,1,.79,1.24,1.31,1.31,0,0,0,0,.59,1,1,0,0,0,.25.31,2.2,2.2,0,0,1,.61,1.69,6.69,6.69,0,0,1-2.75-.62l-1.16,2.38-1.55-2a12.38,12.38,0,0,1-.83,1.08A2.3,2.3,0,0,1,53,77.28c.17-.63.63-1.3.32-1.88s-.81-.64-.91-1.12a.19.19,0,0,1,0-.18.26.26,0,0,1,.21-.07,2.38,2.38,0,0,1,1.58.62C53.86,74.35,55.7,73.92,55.94,74Z"/><path class="cls-6" d="M20.84,65.59a5.65,5.65,0,0,1,5.4-2.08,14.65,14.65,0,0,1,.29-1.84c.69-2.89,1.06-4.74,4-5.77,4.83-1.67,7.32,1.93,8,6,.41,2.32,2,3.92,1.46,6.15,1.07-2.21.48-3.72,2.22-5.52,2.22-2.28,5.58.63,6.82,3.39,1.33,2.93,5,3.86,3,6.71a7,7,0,0,1-2.67,2.26c2.92.52,6.55,4.55,7.87,7.35,2.17,4.61-2.8,5.83-7.24,5.86-.88,0-1.77,0-2.67-.1,0,.14.08.27.11.41.57,2.77,2.28,4.49-.34,5.18-3.72,1-6.42-.51-10-2-2.48-1.06-9-1.67-8.08-4.37a3.68,3.68,0,0,1,.32-.7,4.73,4.73,0,0,1-1.27-3.53c0-.33,0-.65.07-1-3.15-.15-4.8-5.74-6.54-8.34C19.42,70.13,18,68.82,20.84,65.59Z"/><g class="cls-7"><path class="cls-8" d="M28,86.12c9.58-1.83,16.58-.19,21,3.68"/><path class="cls-8" d="M27.15,82.49c2.57-2.81,1.81-8.94-.71-11.6-2.25-2.38-.12-8.8-1-9.25"/><path class="cls-8" d="M28.5,74.67C33.17,72,44.44,80.13,40,85.56"/><path class="cls-8" d="M29.79,54.27c-1,2.32,5.84,17.47,2.54,20.23"/><path class="cls-8" d="M38.51,78.5c4.39-4,17.2,11.11,19.83,4.74"/><path class="cls-8" d="M33.2,70.68c4.84-2.59,10.32-2.35,9.74-.86s3.13.42,2.36,2.53a28.49,28.49,0,0,1-3.45,5.51"/><path class="cls-8" d="M44.09,74.67a10.79,10.79,0,0,1,7.49.16"/></g><path class="cls-5" d="M51.1,96.56a1.85,1.85,0,0,1,.32,2.11l1.64-.1a1.2,1.2,0,0,1,.22,1.45c-.1.17-.26.33-.27.53a1.26,1.26,0,0,0,.1.38,2.18,2.18,0,0,1-.13,1.8A7,7,0,0,1,50.72,101l-2,1.7-.61-2.42a11.62,11.62,0,0,1-1.2.65,2.31,2.31,0,0,1,.17-2.65c.42-.5,1.11-.93,1.07-1.58,0-.49-.48-.92-.38-1.4a.21.21,0,0,1,.1-.16.27.27,0,0,1,.21,0,2.34,2.34,0,0,1,1.19,1.21C49.06,96,50.92,96.37,51.1,96.56Z"/><path class="cls-3" d="M131.33,96.33c.5-2.18,1.33-3,2.44-4.89A5.93,5.93,0,0,1,136,89c1-.51,2.16-.57,3.11-1.14a10.53,10.53,0,0,0,1.1,3.24,28.12,28.12,0,0,1,1.95,2.93c.92,2.16,0,4.61-1,6.75l8.62.6c1.49.1,3.21.34,4,1.62a36.67,36.67,0,0,1-9.38,8.79,1.28,1.28,0,0,1-.82.28,1.23,1.23,0,0,1-.64-.37,27.91,27.91,0,0,1-3.21-3.49,18.76,18.76,0,0,1-14,11.89,7.93,7.93,0,0,0,2.51-3.14,12.17,12.17,0,0,0,.38-2.56,15.53,15.53,0,0,1,3.55-7.67c-3.61,1.47-6.46,6.33-10.29,7.11a3.27,3.27,0,0,1-1.91,0c-1.36-.57-1.45-2.59-2.66-3.42,3-1.71,10.52-5.86,10.89-5.77a15.33,15.33,0,0,1-8.33-3.49c-2.81-2.65-3-6.82-2.61-6.75s5.24.19,8,1.84c3.91,2.34,6.74,4.86,6.72,4.35C132,99.08,131,97.87,131.33,96.33Z"/><path class="cls-4" d="M79.28,116.78a18.3,18.3,0,0,0,19.81,3.5,2.89,2.89,0,0,0,1.18-.82,2.49,2.49,0,0,0,.43-1.31,5.93,5.93,0,0,0-1-3.89,5.2,5.2,0,0,1,1.62,3.68,17.66,17.66,0,0,1-.43,4.09A97.56,97.56,0,0,0,99.43,134c2.74-2.39,6.9-2.94,9.15-5.79a18.46,18.46,0,0,0,2.25-4.82,34.91,34.91,0,0,0,1.49-3.91,5.87,5.87,0,0,0-.23-4.09c-.8-1.58-2.53-2.5-3.35-4.06a2.15,2.15,0,0,0-.5-.75,1.8,1.8,0,0,0-.82-.29l-7-1.25a1.74,1.74,0,0,0-.64,0,1.82,1.82,0,0,0-.76.38,9.82,9.82,0,0,1-4.68,1.71,14.22,14.22,0,0,0-4.3,1.42q-2.68,1.2-5.42,2.29C84.07,115,79.6,117.09,79.28,116.78Z"/><path class="cls-3" d="M127,86.6c1.8,1.32,2.18,2.39,3.52,4.18a5.91,5.91,0,0,1,1.32,3c.08,1.11-.33,2.21-.18,3.31a10.35,10.35,0,0,0-3.41-.27,28,28,0,0,1-3.46.63c-2.35,0-4.22-1.87-5.8-3.6l-4,7.68c-.68,1.32-1.58,2.81-3.06,3a36.77,36.77,0,0,1-4.36-12.09,1.29,1.29,0,0,1,.06-.87,1.21,1.21,0,0,1,.6-.44,27.25,27.25,0,0,1,4.47-1.57,18.76,18.76,0,0,1-5.41-17.51,7.85,7.85,0,0,0,1.89,3.54,12.24,12.24,0,0,0,2.2,1.37,15.48,15.48,0,0,1,5.65,6.29c.07-3.9-3.26-8.44-2.47-12.27a3.23,3.23,0,0,1,.76-1.75c1.06-1,2.94-.31,4.19-1.09.39,3.42,1.23,12,1,12.28a15.34,15.34,0,0,1,6.5-6.27c3.54-1.53,7.43,0,7.23.26s-2.25,4.75-4.85,6.62c-3.7,2.67-7.13,4.27-6.66,4.45C124.22,86.08,125.71,85.67,127,86.6Z"/><path class="cls-5" d="M115.9,85.74a1.85,1.85,0,0,1,2.13-.13l0-1.64a1.19,1.19,0,0,1,1.46-.09c.16.12.31.29.51.31a1.06,1.06,0,0,0,.39-.06,2.14,2.14,0,0,1,1.77.29,6.87,6.87,0,0,1-1.88,2.1l1.5,2.17-2.46.4a9.82,9.82,0,0,1,.54,1.25,2.31,2.31,0,0,1-2.62-.41c-.46-.46-.82-1.18-1.48-1.21-.49,0-1,.4-1.43.25a.24.24,0,0,1-.15-.11.29.29,0,0,1,0-.21,2.31,2.31,0,0,1,1.32-1.07C115.17,87.72,115.7,85.9,115.9,85.74Z"/><path class="cls-6" d="M91.37,112.22a5.66,5.66,0,0,1,.83-5.73,13.42,13.42,0,0,1-1.46-1.15c-2.19-2-3.62-3.25-3.06-6.35.91-5,5.27-5.43,9.14-4.08,2.23.78,4.4.15,6.08,1.74-1.41-2-3-2.24-3.73-4.64-.91-3.05,3.28-4.55,6.29-4.29,3.21.28,5.82-2.47,7.35.63a6.87,6.87,0,0,1,.66,3.43c1.88-2.28,7.18-3.47,10.27-3.26,5.07.36,3.71,5.3,1.56,9.18-.43.77-.9,1.53-1.4,2.28a3.25,3.25,0,0,1,.42.11c2.69.85,5,.21,4.34,2.83-1,3.72-3.59,5.35-6.64,7.7-2.14,1.64-5.86,7-7.77,4.9a4.74,4.74,0,0,1-.46-.62,4.7,4.7,0,0,1-3.69-.62c-.28-.17-.55-.35-.82-.54-1.68,2.68-7.36,1.38-10.47,1.62C94.63,115.68,92.8,116.27,91.37,112.22Z"/><g class="cls-9"><path class="cls-8" d="M112.79,116c3.09-9.25,7.95-14.55,13.48-16.5"/><path class="cls-8" d="M109.19,115c-1.19-3.62-6.91-5.95-10.45-5.06-3.19.8-7.74-4.2-8.57-3.63"/><path class="cls-8" d="M103,110c0-5.36,12.57-11.23,15.15-4.72"/><path class="cls-8" d="M85.87,98.87c1.53,2,18.1,3.46,18.89,7.69"/><path class="cls-8" d="M111.27,103.13c-1.34-5.79,18.11-9.55,13.84-15"/><path class="cls-8" d="M101.85,103.93c.12-5.48,3-10.15,4-8.91s1.89-2.53,3.36-.82a28.78,28.78,0,0,1,3.11,5.71"/><path class="cls-8" d="M110.67,96.4a10.76,10.76,0,0,1,3.8-6.46"/></g><path class="cls-5" d="M133.19,101a1.88,1.88,0,0,1,2,.75l.71-1.47a1.19,1.19,0,0,1,1.37.52c.1.17.16.38.34.49a.93.93,0,0,0,.37.1,2.16,2.16,0,0,1,1.51,1,6.82,6.82,0,0,1-2.58,1.15l.48,2.6-2.4-.65c0,.46,0,.91,0,1.36a2.31,2.31,0,0,1-2.23-1.44c-.23-.62-.27-1.42-.86-1.71-.44-.22-1,0-1.4-.36a.2.2,0,0,1-.09-.15.23.23,0,0,1,.12-.18,2.31,2.31,0,0,1,1.64-.44C131.71,102.5,132.93,101.06,133.19,101Z"/><path class="cls-3" d="M78.19,35.06c-1.53-1.62-2.65-1.87-4.59-3a5.85,5.85,0,0,0-3.17-.93c-1.11.07-2.15.6-3.26.6a10.18,10.18,0,0,1,.7,3.35,27.63,27.63,0,0,0-.19,3.51c.29,2.33,2.38,4,4.3,5.3l-7.12,4.89c-1.23.85-2.59,1.93-2.6,3.42A36.82,36.82,0,0,0,74.8,55a1.29,1.29,0,0,0,.85-.17,1.24,1.24,0,0,0,.36-.65,27.41,27.41,0,0,0,1-4.64,18.75,18.75,0,0,0,18,3.17,7.9,7.9,0,0,1-3.76-1.44,12.19,12.19,0,0,1-1.62-2,15.46,15.46,0,0,0-7-4.8c3.87-.56,8.79,2.17,12.48.9a3.25,3.25,0,0,0,1.65-1c.88-1.18-.07-3,.55-4.3-3.44,0-12,.29-12.3.55a15.25,15.25,0,0,0,5.4-7.23c1.07-3.7-.91-7.38-1.17-7.14s-4.43,2.83-6,5.64c-2.18,4-3.34,7.62-3.58,7.16C79.06,37.74,79.28,36.21,78.19,35.06Z"/><path class="cls-4" d="M133.42,26.26a18.29,18.29,0,0,1-15.29,13.07,2.81,2.81,0,0,1-1.44-.1,2.51,2.51,0,0,1-1-.91,6,6,0,0,1-1.08-3.88,5.22,5.22,0,0,0,.47,4,18.29,18.29,0,0,0,2.45,3.31,97.78,97.78,0,0,1,7.28,9.55c-3.58-.66-7.44,1-10.83-.34a18.47,18.47,0,0,1-4.38-3,36,36,0,0,1-3.27-2.61,5.87,5.87,0,0,1-1.88-3.65c-.11-1.76.91-3.44.83-5.2a2.21,2.21,0,0,1,0-.89,1.72,1.72,0,0,1,.56-.67l5.36-4.61a1.84,1.84,0,0,1,.53-.36,2,2,0,0,1,.85-.06,9.71,9.71,0,0,0,4.9-.9,14.15,14.15,0,0,1,4.43-.95c1.94-.23,3.89-.49,5.83-.79C128.39,27.15,133.3,26.69,133.42,26.26Z"/><path class="cls-3" d="M77,24.47c-.89,2.05-.67,3.17-.92,5.39a5.84,5.84,0,0,0,.41,3.29c.49,1,1.4,1.73,1.83,2.75a10.4,10.4,0,0,1,2.8-2,28.2,28.2,0,0,0,3.3-1.21c2-1.2,2.69-3.75,3.17-6l7.31,4.61c1.26.79,2.79,1.62,4.16,1A36.78,36.78,0,0,0,96.69,19.7a1.3,1.3,0,0,0-.5-.72,1.24,1.24,0,0,0-.74-.07,27.31,27.31,0,0,0-4.65.91A18.73,18.73,0,0,0,86.58,2a7.85,7.85,0,0,1,.16,4,11.93,11.93,0,0,1-1.2,2.29,15.41,15.41,0,0,0-1.67,8.28c-2-3.32-1.48-8.93-4.09-11.82a3.31,3.31,0,0,0-1.55-1.13c-1.43-.34-2.7,1.24-4.16,1.19,1.4,3.15,5,10.94,5.36,11.09s-4.24-2.67-8.78-2.1c-3.82.47-6.42,3.75-6.09,3.89s4.34,2.95,7.53,3.24c4.55.43,8.32.06,8,.46C79.12,22.62,77.63,23,77,24.47Z"/><path class="cls-5" d="M86.11,18.1a1.89,1.89,0,0,0-1.9,1l-.87-1.39a1.21,1.21,0,0,0-1.31.67c-.08.19-.12.41-.28.53a.93.93,0,0,1-.36.14A2.19,2.19,0,0,0,80,20.17a6.8,6.8,0,0,0,2.69.86l-.19,2.63,2.32-.9A12.45,12.45,0,0,0,85,24.11,2.32,2.32,0,0,0,87,22.42c.17-.63.11-1.44.67-1.79s1-.15,1.35-.51a.22.22,0,0,0,.07-.17c0-.07-.08-.12-.14-.16a2.35,2.35,0,0,0-1.68-.25C87.75,19.44,86.37,18.14,86.11,18.1Z"/><path class="cls-6" d="M120.69,28.47A5.68,5.68,0,0,0,117.07,24a14.41,14.41,0,0,0,.67-1.73c.87-2.84,1.47-4.63-.59-7-3.33-3.87-7.29-2-9.94,1.12-1.53,1.81-3.72,2.37-4.35,4.59.18-2.45,1.45-3.46.85-5.89-.77-3.09-5.14-2.26-7.6-.5-2.62,1.86-6.27.82-6,4.27a7,7,0,0,0,1.17,3.29c-2.78-1-7.94.65-10.5,2.4-4.19,2.88-.51,6.45,3.32,8.71.75.44,1.55.85,2.35,1.25q-.15.14-.3.3c-1.89,2.1-4.22,2.73-2.3,4.65,2.72,2.71,5.8,2.78,9.63,3.26,2.68.33,8.61,3.08,9.18.28a4.9,4.9,0,0,0,.08-.77,4.68,4.68,0,0,0,2.87-2.4c.16-.29.29-.59.43-.89,2.8,1.46,7-2.54,9.85-3.92C119.64,33.11,121.51,32.69,120.69,28.47Z"/><g class="cls-10"><path class="cls-8" d="M104.15,42.6c-7.36-6.4-14.23-8.5-20-7.37"/><path class="cls-8" d="M106.74,39.91c-.81-3.73,2.93-8.64,6.44-9.67,3.15-.93,4.53-7.55,5.54-7.48"/><path class="cls-8" d="M109.51,32.46c-2.71-4.63-16.53-3.3-15.45,3.62"/><path class="cls-8" d="M118.65,14.18c-.29,2.52-13.84,12.16-12.37,16.21"/><path class="cls-8" d="M98.92,30.74c-1.77-5.67-20.45,1-19.52-5.87"/><path class="cls-8" d="M107.45,26.65c-2.88-4.67-7.74-7.22-8-5.63s-2.92-1.22-3.31,1a28.57,28.57,0,0,0,.21,6.49"/><path class="cls-8" d="M96,24.63A10.73,10.73,0,0,0,89.48,21"/></g><path class="cls-5" d="M79,40a1.87,1.87,0,0,0-1.34,1.66l-1.36-.91a1.21,1.21,0,0,0-.92,1.15,1.3,1.3,0,0,1,0,.59.93.93,0,0,1-.28.28,2.17,2.17,0,0,0-.79,1.62A6.87,6.87,0,0,0,77,44.09l.9,2.48,1.74-1.78A12.56,12.56,0,0,0,80.39,46a2.34,2.34,0,0,0,1.19-2.38c-.11-.64-.49-1.36-.13-1.9s.87-.56,1-1a.21.21,0,0,0,0-.19c0-.06-.12-.08-.19-.09a2.34,2.34,0,0,0-1.64.46C81,40.57,79.21,40,79,40Z"/></pattern></defs><title>laptop</title><g id="Layer_2" data-name="Layer 2"><g id="Layer_2-2" data-name="Layer 2"><polygon class="cls-11" points="159.24 88.02 159.64 91.84 153.6 88.02 153.26 84.7 159.24 88.02"/><polygon class="cls-11" points="158.9 84.7 159.24 88.02 153.26 84.7 152.95 81.81 158.89 84.7 158.9 84.7"/><polygon class="cls-11" points="158.59 81.81 158.89 84.7 152.95 81.81 152.62 78.61 158.59 81.81"/><polygon class="cls-11" points="158.59 81.81 152.62 78.61 152.31 75.64 158.26 78.61 158.59 81.81"/><polygon class="cls-11" points="152.01 72.77 157.89 75.06 158.26 78.61 152.31 75.64 152.01 72.77"/><polygon class="cls-11" points="157.56 71.97 157.89 75.06 152.01 72.77 151.6 68.83 157.56 71.97"/><polygon class="cls-11" points="157.56 71.97 151.6 68.83 151.31 66.05 157.24 68.83 157.56 71.97"/><polygon class="cls-11" points="156.95 66.05 157.24 68.83 151.31 66.05 150.97 62.81 156.94 66.05 156.95 66.05"/><path class="cls-12" d="M150,15c.12,1.2-.23,2.22-.79,2.28s-1.11-.87-1.23-2.08.23-2.22.79-2.27S149.88,13.76,150,15Z"/><polygon class="cls-11" points="151.56 31.77 152.31 38.38 149.74 37.31 148.99 30.7 151.56 31.77"/><polygon class="cls-11" points="152.5 40.65 153.25 47.27 150.69 46.2 149.94 39.59 152.5 40.65"/><path class="cls-13" d="M89.13,12.34a27.51,27.51,0,0,0,4.38-1.73c.23,1.29.35,2.88-.71,3.65a3.17,3.17,0,0,1-1.57.47,14.18,14.18,0,0,1-6.54-.91,16.06,16.06,0,0,0-1.19,2.25c-.43.73-1.3,1.35-2.08,1Q80.3,15,79.24,13.17l.11-.06a3.58,3.58,0,0,1,.86-2.73A3.62,3.62,0,0,1,83,10l1.89.24c1.1.14,2.38.4,2.89,1.39.15.27.24.62.51.77A1.11,1.11,0,0,0,89.13,12.34Z"/><path class="cls-14" d="M134.35,27.5a4.57,4.57,0,0,1,4.82,4.26,4.85,4.85,0,0,1-9.63,0A4.56,4.56,0,0,1,134.35,27.5Z"/><path class="cls-15" d="M141.73,49a2,2,0,0,1-1.95,2.13l-10.45.45a2,2,0,0,1-2.13-2l-.38-9a2,2,0,0,1,2-2.13L139.22,38a2,2,0,0,1,2.13,2Z"/><path class="cls-16" d="M147.87,86.21a17.44,17.44,0,0,1-.25,4.51c-.87,3.85-4.58,6.17-8.09,7.2a6.44,6.44,0,0,1-4.05.28A5.76,5.76,0,0,1,133.74,97a38.57,38.57,0,0,1-8.44-10.49c-1.45-2.65-2.61-5.64-2.17-8.63a3.75,3.75,0,0,1,.92-2.13c1.55-1.53,4.26-.33,6.28-1.14a.9.9,0,0,0,.4-.26,1.65,1.65,0,0,0,.16-.67c.19-1.24,1.67-1.85,2.91-1.77s2.44.61,3.69.62c-.19-1.52-.21-3.32,1-4.26,1.39-1.08,3.57-.19,4.47,1.32s.88,3.38.89,5.14.09,3.64,1.13,5c.58.79,1.42,1.37,2,2.19A7.88,7.88,0,0,1,147.87,86.21Z"/><path class="cls-17" d="M114,73.19a6.55,6.55,0,1,1-2.53,12.59c-.9-2.79-2-5.88-3.21-9.2A6.54,6.54,0,0,1,114,73.19Z"/><path class="cls-18" d="M90.58,17.44A6.55,6.55,0,1,1,88,30c-1.3-2.65-2.57-5.19-3.81-7.59A6.54,6.54,0,0,1,90.58,17.44Z"/><path class="cls-19" d="M141.54,20.37A2.7,2.7,0,0,1,139,23.21l-7.52.37A2.72,2.72,0,0,1,128.59,21L127,9a2.72,2.72,0,0,1,2.58-2.85l7.52-.36A2.72,2.72,0,0,1,140,8.37Z"/><path class="cls-6" d="M99.9,24a.83.83,0,0,1-.62,0,.79.79,0,0,1-.26-.46A20.48,20.48,0,0,1,100,9.2a30.49,30.49,0,0,0,3.64.74,15.15,15.15,0,0,0,4.51-.13c1.15-.2,2.43-.82,3.62-.6s1.93,1.14,2.8,1.77a19,19,0,0,0,4.05,2.28,1,1,0,0,1,.61.46,1,1,0,0,1-.18.82l-2.31,4.17a4.71,4.71,0,0,1-1.23,1.62,4.67,4.67,0,0,1-1.79.67Q106.84,22.56,99.9,24Z"/><path class="cls-20" d="M117.1,69.53a3.25,3.25,0,0,1-1.93-.26,1.17,1.17,0,0,1-.44-1.67,1.62,1.62,0,0,1,.57-.36l2.13-1a4.9,4.9,0,0,0,1.64-1,1.68,1.68,0,0,0,.39-1.8,1.9,1.9,0,0,0-.83-.78,11.87,11.87,0,0,0-4-1,5.24,5.24,0,0,1-3.58-1.81,26.61,26.61,0,0,1,5.53-2.34A2.75,2.75,0,0,0,115.32,56c1.68-1.3,3.56-.27,5.43-.08a48.43,48.43,0,0,0,8.6,0c3.72-.28,7.62-.92,11.06.52,1.56.66,3.1,2.12,2.76,3.78a3.14,3.14,0,0,1-2.06,2.16A10.92,10.92,0,0,1,138,63c-3,.28-6.38,1.24-7.67,4a5,5,0,0,1-.68,1.25,3.21,3.21,0,0,1-2.21.71Z"/><path class="cls-21" d="M101.47,50.24a3.2,3.2,0,0,1-3.54.34l-.29.13c-2.1-4.76-4.27-9.51-6.43-14.09a3.17,3.17,0,1,1,6.29-.57l4.63-1.88a5.53,5.53,0,0,0,2.19-1.31,1.93,1.93,0,0,0,.27-2.36q3.63-.08,7.25-.36a6.53,6.53,0,0,0,2.2-.44c1.19-.56,1.92-1.77,2.93-2.61,2-1.72,5.08-1.82,7.13-3.52-.06,2.59-2.12,4.62-4,6.39q-3.89,3.66-7.57,7.53a8.6,8.6,0,0,1,3.7-1.1c.57,1-.54,2.08-1.51,2.69l-3.79,2.37c-.6.37-1.25,1.2-.72,1.65a1.12,1.12,0,0,0,.74.19l3.3.06c-.17,1.21-1.69,1.56-2.8,2.06a.77.77,0,0,0-.37.29c-.17.32.15.68.44.89,4,2.89,9.28,3.26,13.53,5.75l-7.75,1.41a9.21,9.21,0,0,1-2.16.22c-1.35-.08-2.59-.77-3.92-1a25.34,25.34,0,0,1-3-.49c-2.21-.74-3.42-3-4.41-5.16A9.48,9.48,0,0,1,101.47,50.24Z"/><path class="cls-2" d="M149.21,17.24c.56-.06.91-1.08.79-2.28s-.67-2.13-1.23-2.07-.92,1.07-.79,2.27S148.65,17.29,149.21,17.24Zm2-6.16,1.11,10.56L146.39,19,145.26,8.2Z"/><polygon class="cls-2" points="150.45 3.88 151.2 11.09 145.26 8.21 144.51 1.05 150.45 3.88"/><path class="cls-2" d="M152.31,38.37l-.75-6.61L149,30.7l.75,6.61Zm0-16.73L155,47.08l-1.71.18-.75-6.62-2.56-1.06-1.39.14L146.39,19Z"/><polygon class="cls-2" points="150.69 46.2 153.25 47.27 154.96 47.09 156.94 66.05 150.97 62.81 148.55 39.73 149.94 39.59 150.69 46.2"/><polygon class="cls-2" points="159.64 91.84 160.77 102.66 154.84 99.84 153.6 88.02 159.64 91.84"/><path class="cls-2" d="M160.77,102.65,114,107.54l-17,1.78c3.74-1.51,7.07-3,9.78-4.45l48.08-5Z"/><path class="cls-2" d="M99,23.45a.79.79,0,0,0,.26.46.83.83,0,0,0,.62,0q6.93-1.39,13.82-2.95a4.67,4.67,0,0,0,1.79-.67,4.71,4.71,0,0,0,1.23-1.62l2.31-4.17a1,1,0,0,0,.18-.82,1,1,0,0,0-.61-.46A19,19,0,0,1,114.57,11c-.87-.63-1.71-1.57-2.8-1.77s-2.47.4-3.62.6a15.15,15.15,0,0,1-4.51.13A30.49,30.49,0,0,1,100,9.2,20.48,20.48,0,0,0,99,23.45Zm20,41.79a4.9,4.9,0,0,1-1.64,1l-2.13,1a1.62,1.62,0,0,0-.57.36,1.17,1.17,0,0,0,.44,1.67,3.25,3.25,0,0,0,1.93.26l10.38-.64a3.21,3.21,0,0,0,2.21-.71,5,5,0,0,0,.68-1.25c1.29-2.73,4.67-3.69,7.67-4a10.92,10.92,0,0,0,3.07-.53,3.14,3.14,0,0,0,2.06-2.16c.34-1.66-1.2-3.12-2.76-3.78-3.44-1.44-7.34-.8-11.06-.52a48.43,48.43,0,0,1-8.6,0c-1.87-.19-3.75-1.22-5.43.08a2.75,2.75,0,0,1,1.28,1.53,26.61,26.61,0,0,0-5.53,2.34,5.24,5.24,0,0,0,3.58,1.81,11.87,11.87,0,0,1,4,1,1.9,1.9,0,0,1,.83.78A1.68,1.68,0,0,1,119.07,65.24Zm4.06,12.68c-.44,3,.72,6,2.17,8.63A38.57,38.57,0,0,0,133.74,97a5.76,5.76,0,0,0,1.74,1.16,6.44,6.44,0,0,0,4.05-.28c3.51-1,7.22-3.35,8.09-7.2a17.44,17.44,0,0,0,.25-4.51,7.88,7.88,0,0,0-.93-4.2c-.55-.82-1.39-1.4-2-2.19-1-1.41-1.13-3.3-1.13-5s0-3.62-.89-5.14-3.08-2.4-4.47-1.32c-1.2.94-1.18,2.74-1,4.26-1.25,0-2.44-.54-3.69-.62s-2.72.53-2.91,1.77a1.65,1.65,0,0,1-.16.67.9.9,0,0,1-.4.26c-2,.81-4.73-.39-6.28,1.14A3.75,3.75,0,0,0,123.13,77.92ZM139.22,38l-10.44.44a2,2,0,0,0-2,2.13l.38,9a2,2,0,0,0,2.13,2l10.45-.45A2,2,0,0,0,141.73,49l-.38-9A2,2,0,0,0,139.22,38Zm-4.87-2a4.57,4.57,0,0,0,4.82-4.26,4.85,4.85,0,0,0-9.63,0A4.56,4.56,0,0,0,134.35,36ZM80.21,10.38a3.58,3.58,0,0,0-.86,2.73l-.11.06a89.94,89.94,0,0,0-5-8h0l10.8-.64,59.44-3.52.75,7.15L146.39,19l2.16,20.68L151,62.81l.34,3.23.29,2.78.41,3.94.3,2.88.31,3,.33,3.2.31,2.89L153.6,88l1.24,11.83-48.08,5c4-2.1,6.6-4,7.22-5.62.69-1.76-.36-6.7-2.53-13.47a6.55,6.55,0,1,0-3.21-9.2c-2.9-7.82-6.62-16.85-10.6-25.87l.29-.13a3.2,3.2,0,0,0,3.54-.34,9.48,9.48,0,0,0,2.31-3c1,2.11,2.2,4.42,4.41,5.16a25.34,25.34,0,0,0,3,.49c1.33.27,2.57,1,3.92,1a9.21,9.21,0,0,0,2.16-.22L125,52.34c-4.25-2.49-9.55-2.86-13.53-5.75-.29-.21-.61-.57-.44-.89a.77.77,0,0,1,.37-.29c1.11-.5,2.63-.85,2.8-2.06l-3.3-.06a1.12,1.12,0,0,1-.74-.19c-.53-.45.12-1.28.72-1.65l3.79-2.37c1-.61,2.08-1.7,1.51-2.69a8.6,8.6,0,0,0-3.7,1.1q3.69-3.87,7.57-7.53c1.89-1.77,4-3.8,4-6.39-2,1.7-5.09,1.8-7.13,3.52-1,.84-1.74,2.05-2.93,2.61a6.53,6.53,0,0,1-2.2.44q-3.61.28-7.25.36a1.93,1.93,0,0,1-.27,2.36,5.53,5.53,0,0,1-2.19,1.31L97.5,36.05a3.17,3.17,0,1,0-6.29.57C90.15,34.37,89.09,32.16,88,30a6.55,6.55,0,1,0-3.81-7.59q-1.44-2.8-2.81-5.33c.78.32,1.65-.3,2.08-1a16.06,16.06,0,0,1,1.19-2.25,14.18,14.18,0,0,0,6.54.91,3.17,3.17,0,0,0,1.57-.47c1.06-.77.94-2.36.71-3.65a27.51,27.51,0,0,1-4.38,1.73,1.11,1.11,0,0,1-.82,0c-.27-.15-.36-.5-.51-.77-.51-1-1.79-1.25-2.89-1.39L83,10A3.62,3.62,0,0,0,80.21,10.38ZM139,23.21a2.7,2.7,0,0,0,2.58-2.84L140,8.37a2.72,2.72,0,0,0-2.85-2.58l-7.52.36A2.72,2.72,0,0,0,127,9l1.58,12a2.72,2.72,0,0,0,2.85,2.58Z"/><path class="cls-3" d="M85.07,4.57l-10.8.64h0C73,3.43,71.9,2.31,71.15,2,71.15,2,81.93-1.34,85.07,4.57Z"/><path class="cls-3" d="M91.27,111.52c1.45,4.84.57,14.14-4,12.52-6.77-2.38-.25-10.45,3.5-12.32Z"/><path class="cls-3" d="M81.42,17.1q1.36,2.52,2.81,5.33c1.24,2.4,2.51,4.94,3.81,7.59,1,2.14,2.11,4.35,3.17,6.6,2.16,4.58,4.33,9.33,6.43,14.09,4,9,7.7,18.05,10.6,25.87,1.23,3.32,2.31,6.41,3.21,9.2,2.17,6.77,3.22,11.71,2.53,13.47-.62,1.58-3.25,3.52-7.22,5.62-2.71,1.43-6,2.94-9.78,4.45h0c-1.8.73-3.69,1.46-5.65,2.18h0s0,0,0,0a4.09,4.09,0,0,0-.54.24c-1.4.51-2.84,1-4.31,1.52.34-3.25,22.19-11,23.86-13.81S76,7.34,69,4.57s-21,6.77-24.22,3.12C57.17,3.48,68.19.79,71.15,2c.75.31,1.82,1.43,3.11,3.21a89.94,89.94,0,0,1,5,8Q80.29,15,81.42,17.1Z"/><path class="cls-22" d="M69,4.57c7,2.77,43,92.08,41.31,94.86S86.75,110,86.41,113.24c-20.09,6.89-44.94,12.58-52.09,10.09C22.1,119.07-4.2,37,1.91,28.28,5.53,23.13,26.64,13.81,44.74,7.69,47.94,11.34,61.93,1.81,69,4.57Z"/><path class="cls-23" d="M91.27,111.52l-.55.2c-1.4.51-2.84,1-4.31,1.52-20.09,6.89-44.94,12.58-52.09,10.09C22.1,119.07-4.2,37,1.91,28.28,5.53,23.13,26.64,13.81,44.74,7.69,57.17,3.48,68.19.79,71.15,2c.75.31,1.82,1.43,3.11,3.21a89.94,89.94,0,0,1,5,8q1,1.85,2.18,3.93,1.36,2.52,2.81,5.33c1.24,2.4,2.51,4.94,3.81,7.59,1,2.14,2.11,4.35,3.17,6.6,2.16,4.58,4.33,9.33,6.43,14.09,4,9,7.7,18.05,10.6,25.87,1.23,3.32,2.31,6.41,3.21,9.2,2.17,6.77,3.22,11.71,2.53,13.47-.62,1.58-3.25,3.52-7.22,5.62-2.71,1.43-6,2.94-9.78,4.45"/><path class="cls-23" d="M97,109.32c-1.8.73-3.69,1.46-5.65,2.18h0"/><path class="cls-23" d="M85.07,4.57C81.93-1.34,71.15,2,71.15,2"/><path class="cls-23" d="M114,107.54c-.37,3.56-22.66,4-22.66,4"/><path class="cls-23" d="M90.72,111.72c-3.75,1.87-10.27,9.94-3.5,12.32,4.62,1.62,5.5-7.68,4-12.52h0s0,0,0,0A4.09,4.09,0,0,0,90.72,111.72Z"/><polyline class="cls-23" points="106.76 104.88 154.84 99.84 153.6 88.02 153.26 84.7 152.95 81.81 152.62 78.61 152.31 75.64 152.01 72.77 151.6 68.83 151.31 66.05 150.97 62.81 148.55 39.73 146.39 19.05 145.26 8.21 144.51 1.05 85.07 4.58 74.27 5.21"/><polyline class="cls-23" points="156.94 66.05 154.96 47.09 152.31 21.64 151.2 11.09 150.45 3.88 144.51 1.05"/><polyline class="cls-23" points="158.89 84.7 158.59 81.81 158.26 78.61 157.89 75.06 157.56 71.97 157.24 68.83 156.95 66.05"/><polyline class="cls-23" points="96.97 109.33 96.98 109.33 113.98 107.55 160.77 102.66 159.64 91.84 159.24 88.02 158.9 84.7"/><path class="cls-24" d="M86.41,113.24c.34-3.25,22.19-11,23.86-13.81S76,7.34,69,4.57s-21,6.77-24.22,3.12"/><path class="cls-25" d="M128.59,21,127,9a2.72,2.72,0,0,1,2.58-2.85l7.52-.36A2.72,2.72,0,0,1,140,8.37l1.58,12A2.7,2.7,0,0,1,139,23.21l-7.52.37A2.72,2.72,0,0,1,128.59,21Z"/><path class="cls-25" d="M147.62,90.72a17.44,17.44,0,0,0,.25-4.51,7.88,7.88,0,0,0-.93-4.2c-.55-.82-1.39-1.4-2-2.19-1-1.41-1.13-3.3-1.13-5s0-3.62-.89-5.14-3.08-2.4-4.47-1.32c-1.2.94-1.18,2.74-1,4.26-1.25,0-2.44-.54-3.69-.62s-2.72.53-2.91,1.77a1.65,1.65,0,0,1-.16.67.9.9,0,0,1-.4.26c-2,.81-4.73-.39-6.28,1.14a3.75,3.75,0,0,0-.92,2.13c-.44,3,.72,6,2.17,8.63A38.57,38.57,0,0,0,133.74,97a5.76,5.76,0,0,0,1.74,1.16,6.44,6.44,0,0,0,4.05-.28C143,96.89,146.75,94.57,147.62,90.72Z"/><path class="cls-25" d="M129.35,56c3.72-.28,7.62-.92,11.06.52,1.56.66,3.1,2.12,2.76,3.78a3.14,3.14,0,0,1-2.06,2.16A10.92,10.92,0,0,1,138,63c-3,.28-6.38,1.24-7.67,4a5,5,0,0,1-.68,1.25,3.21,3.21,0,0,1-2.21.71l-10.38.64a3.25,3.25,0,0,1-1.93-.26,1.17,1.17,0,0,1-.44-1.67,1.62,1.62,0,0,1,.57-.36l2.13-1a4.9,4.9,0,0,0,1.64-1,1.68,1.68,0,0,0,.39-1.8,1.9,1.9,0,0,0-.83-.78,11.87,11.87,0,0,0-4-1,5.24,5.24,0,0,1-3.58-1.81,26.61,26.61,0,0,1,5.53-2.34A2.75,2.75,0,0,0,115.32,56c1.68-1.3,3.56-.27,5.43-.08A48.43,48.43,0,0,0,129.35,56Z"/><path class="cls-25" d="M139.78,51.1l-10.45.45a2,2,0,0,1-2.13-2l-.38-9a2,2,0,0,1,2-2.13L139.22,38a2,2,0,0,1,2.13,2l.38,9A2,2,0,0,1,139.78,51.1Z"/><path class="cls-25" d="M118.62,13.26a1,1,0,0,1,.61.46,1,1,0,0,1-.18.82l-2.31,4.17a4.71,4.71,0,0,1-1.23,1.62,4.67,4.67,0,0,1-1.79.67Q106.84,22.56,99.9,24a.83.83,0,0,1-.62,0,.79.79,0,0,1-.26-.46A20.48,20.48,0,0,1,100,9.2a30.49,30.49,0,0,0,3.64.74,15.15,15.15,0,0,0,4.51-.13c1.15-.2,2.43-.82,3.62-.6s1.93,1.14,2.8,1.77A19,19,0,0,0,118.62,13.26Z"/><path class="cls-25" d="M91.21,36.62a3.17,3.17,0,1,1,6.29-.57l4.63-1.88a5.53,5.53,0,0,0,2.19-1.31,1.93,1.93,0,0,0,.27-2.36q3.63-.08,7.25-.36a6.53,6.53,0,0,0,2.2-.44c1.19-.56,1.92-1.77,2.93-2.61,2-1.72,5.08-1.82,7.13-3.52-.06,2.59-2.12,4.62-4,6.39q-3.89,3.66-7.57,7.53a8.6,8.6,0,0,1,3.7-1.1c.57,1-.54,2.08-1.51,2.69l-3.79,2.37c-.6.37-1.25,1.2-.72,1.65a1.12,1.12,0,0,0,.74.19l3.3.06c-.17,1.21-1.69,1.56-2.8,2.06a.77.77,0,0,0-.37.29c-.17.32.15.68.44.89,4,2.89,9.28,3.26,13.53,5.75l-7.75,1.41a9.21,9.21,0,0,1-2.16.22c-1.35-.08-2.59-.77-3.92-1a25.34,25.34,0,0,1-3-.49c-2.21-.74-3.42-3-4.41-5.16a9.48,9.48,0,0,1-2.31,3,3.2,3.2,0,0,1-3.54.34"/><path class="cls-25" d="M139.17,31.76a4.85,4.85,0,0,1-9.63,0,4.85,4.85,0,0,1,9.63,0Z"/><path class="cls-25" d="M111.43,85.77h0a6.55,6.55,0,1,0-3.21-9.2"/><path class="cls-25" d="M88,30a6.55,6.55,0,1,0-3.81-7.59"/><path class="cls-25" d="M79.35,13.11a3.58,3.58,0,0,1,.86-2.73A3.62,3.62,0,0,1,83,10l1.89.24c1.1.14,2.38.4,2.89,1.39.15.27.24.62.51.77a1.11,1.11,0,0,0,.82,0,27.51,27.51,0,0,0,4.38-1.73c.23,1.29.35,2.88-.71,3.65a3.17,3.17,0,0,1-1.57.47,14.18,14.18,0,0,1-6.54-.91,16.06,16.06,0,0,0-1.19,2.25c-.43.73-1.3,1.35-2.08,1h0"/><path class="cls-25" d="M150,15c.12,1.2-.23,2.22-.79,2.28s-1.11-.87-1.23-2.08.23-2.22.79-2.27S149.88,13.76,150,15Z"/><polygon class="cls-25" points="152.31 38.38 149.74 37.31 148.99 30.7 151.56 31.77 152.31 38.38"/><polygon class="cls-25" points="153.25 47.27 150.69 46.2 149.94 39.59 152.5 40.65 153.25 47.27"/><polyline class="cls-25" points="145.26 8.21 151.2 11.09 151.21 11.09"/><line class="cls-25" x1="146.39" y1="19.04" x2="152.31" y2="21.64"/><line class="cls-23" x1="153.6" y1="88.01" x2="159.64" y2="91.84"/><polyline class="cls-23" points="153.25 84.7 153.26 84.7 159.24 88.02"/><polyline class="cls-23" points="152.95 81.81 158.89 84.7 158.9 84.7"/><polyline class="cls-23" points="152.62 78.61 158.59 81.81 158.6 81.81"/><line class="cls-23" x1="152.31" y1="75.64" x2="158.26" y2="78.61"/><line class="cls-23" x1="152.01" y1="72.76" x2="157.89" y2="75.05"/><polyline class="cls-23" points="151.59 68.83 151.6 68.83 157.56 71.97 157.57 71.97"/><polyline class="cls-23" points="151.3 66.05 151.31 66.05 157.24 68.83"/><polyline class="cls-23" points="150.97 62.81 156.94 66.05 156.95 66.05"/><line class="cls-23" x1="154.84" y1="99.84" x2="160.77" y2="102.65"/></g></g></svg>