<svg xmlns="http://www.w3.org/2000/svg" viewBox="0 0 161.84 71"><defs><style>.cls-1{fill:#42683b;}.cls-2{fill:#c49a6c;}.cls-3{fill:#00a79d;}.cls-4{fill:#d1d3d4;}.cls-5{fill:#939598;}.cls-6,.cls-7{fill:none;stroke:#231f20;stroke-miterlimit:10;}.cls-6{stroke-width:2px;}.cls-7{stroke-width:1.5px;}</style></defs><title>lunch</title><g id="Layer_2" data-name="Layer 2"><g id="Layer_2-2" data-name="Layer 2"><path class="cls-1" d="M151,29.25a14,14,0,0,0-8.91.64,5,5,0,0,0-2.63-2A19.19,19.19,0,0,1,132,23.42,5.06,5.06,0,0,0,123.42,27l0,4.9a18.89,18.89,0,0,0-3.54-.12c-2,.13-2.37.56-3.82-.68-1.24-1.06-1.93-2.66-3.27-3.73-3.27-2.59-8.48-1.13-8.54,3.54,0,1.61.14,3.46.11,5.23a28.64,28.64,0,0,0-4.74-.34,11.5,11.5,0,0,0-5.87,2.93c-2.57,2.21-1.82,5.21.17,6.94-1.2.3-2.36.61-3.44.92-5.3,1.5-4.44,10.08,1.33,9.82a33.06,33.06,0,0,1,6.29.18,13.15,13.15,0,0,1,2.16.45c1.35.44,1.08,1,1-.15.18,4.28,4.7,5.71,7.6,4.28a5.63,5.63,0,0,0,4.76-1.1,3.87,3.87,0,0,0,2.46,1.5c6.28.95,13.46.29,18.51-4,3,2.53,9.21-.19,8.14-5.3-.13-.65-.26-1.52-.36-2.51,3.18.52,7-2,6-6.16a6.81,6.81,0,0,0-1.45-2.92l5.23-2.26C156.22,36.63,154.82,30.24,151,29.25Z"/><path class="cls-2" d="M98.43,32.52c-4.06-4.62-9.83-5.77-14.56-9.34-2.12-1.59-3.27-4-5.32-5.66-2.65-2.13-5.58-2.39-8.9-1.94C56.46,17.34,42.92,20.79,35.16,32.5a143.17,143.17,0,0,0-15.93,2.57c-2.83.57-3.92,3.64-3.49,6.15.92,5.41,6.16,5.82,8.78,9.45,3.49,4.81,9.07,5.22,14.76,6a84.86,84.86,0,0,0,38.86-3.74,4.67,4.67,0,0,0,3.25-6.19c7.08.59,14.67-1,17.83-8.16A5.28,5.28,0,0,0,98.43,32.52ZM31.9,43.8c-.18-.29-.35-.57-.54-.85l1-.16A4.87,4.87,0,0,0,31.9,43.8Z"/><path class="cls-3" d="M159.43,10.42l-5.05,4.78-14.82,14h0l-6,5.65-31.71-1.74L24.34,28.9,7.72,28,21.41,19.2c1.19.49,2.39,1,3.59,1.4l-7,4.81,114.22,5.81,19.87-18.35-66.4-2.79L42.94,8.29l-5.76,4c-.78-.52-1.63-1-2.52-1.55l7.84-5Z"/><path class="cls-4" d="M139.56,29.23l14.82-14s-.78,16.27-1.69,17.19-12.23,12-12.53,10.75-.59-13.41-.6-13.9Z"/><path class="cls-5" d="M25,20.6c-1.2-.44-2.4-.91-3.59-1.4A140.2,140.2,0,0,1,2.56,9.38C6,8.6,27.62,17.59,28.91,18.13L3.83,3.84c4.07-.17,28,9.91,28.78,10.22L13.67,1.9c2.77.51,13.46,4.43,21,8.79.89.51,1.74,1,2.52,1.55,2.38,1.6,4.19,3.2,4.91,4.68,2.82-3.82,22.63-4.68,43.47-3.86,27,1,55.63,4.89,51.52,8.73-8.2,7.68-83.52-14-96.23,1C36.69,24,30.86,22.71,25,20.6Z"/><path class="cls-4" d="M24.34,28.9l77.54,4.25S100.41,49.56,98,51.09s-72.35-3.67-73.63-5.5S24.34,28.9,24.34,28.9Z"/><path class="cls-6" d="M32.63,14.07h0L13.67,1.9c2.77.51,13.46,4.43,21,8.79.89.51,1.74,1,2.52,1.55,2.38,1.6,4.19,3.2,4.91,4.68,2.82-3.82,22.63-4.68,43.47-3.86,27,1,55.63,4.89,51.52,8.73-8.2,7.68-83.52-14-96.23,1C36.69,24,30.86,22.71,25,20.6c-1.2-.44-2.4-.91-3.59-1.4A140.2,140.2,0,0,1,2.56,9.38C6,8.6,27.62,17.59,28.91,18.13"/><path class="cls-6" d="M29,18.16l-.06,0L3.83,3.84c4.07-.17,28,9.91,28.78,10.22"/><polyline class="cls-6" points="139.56 29.24 133.59 34.89 101.88 33.15 24.34 28.9 7.72 27.99 21.41 19.2 21.5 19.14"/><polyline class="cls-6" points="34.54 10.77 34.66 10.69 42.5 5.67 159.43 10.42 154.38 15.2 139.56 29.23"/><polyline class="cls-6" points="133.59 34.89 133.59 69.91 12.36 59.48 7.72 27.99"/><polyline class="cls-6" points="159.43 10.42 156.36 49.8 133.59 69.91"/><path class="cls-6" d="M101.88,33.15S100.41,49.56,98,51.09s-72.35-3.67-73.63-5.5,0-16.69,0-16.69"/><path class="cls-6" d="M154.38,15.2s-.78,16.27-1.69,17.19-12.23,12-12.53,10.75-.59-13.41-.6-13.9h0"/><polyline class="cls-7" points="37.15 12.26 37.18 12.24 42.94 8.29 85.68 10.08 152.08 12.87 132.21 31.22 17.99 25.41 25 20.6 25.03 20.58"/></g></g></svg>