<svg xmlns="http://www.w3.org/2000/svg" viewBox="0 0 102.41 55.95"><defs><style>.cls-1{fill:#6d6e71;}.cls-2{fill:#2d2a2b;}.cls-3,.cls-4,.cls-5{fill:none;stroke:#231f20;stroke-miterlimit:10;}.cls-3{stroke-width:2px;}.cls-4{stroke-width:1.5px;}</style></defs><title>mouse</title><g id="Layer_2" data-name="Layer 2"><g id="Layer_2-2" data-name="Layer 2"><path class="cls-1" d="M72.69,19.7c3.12-5.44,13.52-.46,11,3a.62.62,0,0,1-.11.17C82.38,24.33,75.32,23.54,72.69,19.7Z"/><path class="cls-2" d="M100.46,33.87h0c-6.27-8-16.82-11-16.82-11l0,0a.62.62,0,0,0,.11-.17c2.52-3.44-7.88-8.42-11-3h0c.11-2-10.6-7.37-10.6-7.37s4.8-4.42,10.15-4.85c8.93,3.45,15.83,7.29,17.87,8.82C94.14,19.33,98.57,29.28,100.46,33.87Z"/><path class="cls-2" d="M100.45,33.87s-8.33,9.65-12.23,9.87S65.58,31.76,53,32.22c-5.79-3.15,3.15-14.39,5-13.7s13.76,3.21,14.68,1.38a.35.35,0,0,0,.05-.2h0c2.63,3.84,9.69,4.63,10.89,3.15l0,0S94.18,25.86,100.45,33.87Z"/><path class="cls-2" d="M87.11,48.22a96.36,96.36,0,0,1-13,4.64C47.55,60.51,3,45.22,1,37.9,1,37.9,4,17.3,25.28,5c13.11-7.58,32.64-3,47,2.48-5.35.43-10.15,4.85-10.15,4.85s10.71,5.35,10.6,7.37a.35.35,0,0,1-.05.2c-.92,1.83-12.84-.69-14.68-1.38s-10.77,10.55-5,13.7C65.58,31.76,84.32,44,88.22,43.74s12.23-9.87,12.23-9.87h0c.6,1.45.94,2.37.94,2.37S101,42,87.11,48.22Z"/><path class="cls-3" d="M87.11,48.22c13.86-6.21,14.29-12,14.29-12s-.34-.92-.94-2.37C98.57,29.28,94.14,19.33,90.1,16.3c-2-1.53-8.94-5.37-17.87-8.82C57.92,2,38.39-2.58,25.28,5,4,17.3,1,37.9,1,37.9c2,7.32,46.53,22.61,73.12,15A96.36,96.36,0,0,0,87.11,48.22Z"/><path class="cls-4" d="M87.11,48.22C73.81,36.57,38.28,30.73,20.63,35.58"/><path class="cls-3" d="M83.58,22.85a.62.62,0,0,0,.11-.17c2.52-3.44-7.88-8.42-11-3C75.32,23.54,82.38,24.33,83.58,22.85Z"/><path class="cls-5" d="M72.47,7.46l-.24,0c-5.35.43-10.15,4.85-10.15,4.85s10.71,5.35,10.6,7.37a.35.35,0,0,1-.05.2c-.92,1.83-12.84-.69-14.68-1.38s-10.77,10.55-5,13.7C65.58,31.76,84.32,44,88.22,43.74s12.23-9.87,12.23-9.87c-6.27-8-16.82-11-16.82-11"/></g></g></svg>