<svg xmlns="http://www.w3.org/2000/svg" viewBox="0 0 118.27 113.17"><defs><style>.cls-1{fill:#e6e7e8;}.cls-2{fill:#f16680;}.cls-3,.cls-4,.cls-5{fill:none;stroke-miterlimit:10;}.cls-3,.cls-4{stroke:#231f20;}.cls-3{stroke-width:2px;}.cls-5{stroke:#6d6e71;stroke-width:1.5px;}</style></defs><title>notebook</title><g id="Layer_2" data-name="Layer 2"><g id="Layer_2-2" data-name="Layer 2"><path class="cls-1" d="M117.16,8.7l-15.3,103.44-83.39-2.76c.38-.82-.14-1.81-1.08-2.79-2.32-2.45-7.19-4.9-7.19-4.9l83.39,2.76L108.89,1S114,7.68,117.16,8.7Z"/><path class="cls-1" d="M35.27,9.85a1.75,1.75,0,1,1-1.78-1.7A1.75,1.75,0,0,1,35.27,9.85Z"/><path class="cls-1" d="M29.85,50.87a1.75,1.75,0,1,1-1.78-1.7A1.74,1.74,0,0,1,29.85,50.87Z"/><path class="cls-1" d="M22.18,91.64a1.75,1.75,0,1,1-1.79-1.7A1.75,1.75,0,0,1,22.18,91.64Z"/><path class="cls-2" d="M62.64,92.76c.85-.32,1.7-.61,2.56-.89A5.62,5.62,0,0,1,69,91.61a.58.58,0,0,1,.35.28.62.62,0,0,1-.11.52,7,7,0,0,1-2.16,2.21l-1.52-.08a5.17,5.17,0,0,1-3.08-.82c-.2-.16-.39-.42-.29-.66A.68.68,0,0,1,62.64,92.76Z"/><path class="cls-2" d="M26.4,4.9l.54-3.25,82-.64L93.59,104.45,10.2,101.69l.08-.51,1.14-6.76L12,90.86l.57-3.4.83-4.93.94-5.64.7-4.18.7-4.2.72-4.29.92-5.5.68-4.07.72-4.3.61-3.64,1-5.87.6-3.6.79-4.7.71-4.21.79-4.75.87-5.19.64-3.81ZM67.1,94.62a7,7,0,0,0,2.16-2.21.62.62,0,0,0,.11-.52.58.58,0,0,0-.35-.28,5.62,5.62,0,0,0-3.82.26c-.86.28-1.71.57-2.56.89a.68.68,0,0,0-.43.3c-.1.24.09.5.29.66a5.17,5.17,0,0,0,3.08.82Zm-33.53-83a1.75,1.75,0,1,0-1.79-1.71A1.75,1.75,0,0,0,33.57,11.64Zm-5.42,41A1.74,1.74,0,1,0,26.36,51,1.74,1.74,0,0,0,28.15,52.65ZM20.47,93.43a1.75,1.75,0,1,0-1.78-1.71A1.75,1.75,0,0,0,20.47,93.43Z"/><polygon class="cls-3" points="108.89 1.01 93.59 104.45 10.2 101.69 10.28 101.18 11.42 94.42 12.01 90.86 12.58 87.46 13.41 82.53 14.35 76.89 15.05 72.71 15.75 68.51 16.47 64.22 17.39 58.72 18.07 54.65 18.79 50.35 19.4 46.71 20.38 40.84 20.98 37.24 21.77 32.54 22.48 28.33 23.27 23.58 24.14 18.39 24.78 14.58 26.4 4.9 26.94 1.65 108.89 1.01"/><path class="cls-3" d="M108.89,1S114,7.68,117.16,8.7l-15.3,103.44-83.39-2.76c.38-.82-.14-1.81-1.08-2.79-2.32-2.45-7.19-4.9-7.19-4.9"/><path class="cls-3" d="M13.82,98a5.08,5.08,0,0,0-2.4-3.61C8.84,92.93,4.91,93.81,2.69,96a5.07,5.07,0,0,0-1,6.29c3.9,7.57,13.74,8.36,15.72,4.3"/><path class="cls-3" d="M13.82,90.1a5.29,5.29,0,0,0-1.24-2.64c-1.72-2-4.78-2.11-7.32-1.07-3.12,1.29-5.46,4.35-3.59,8a11.87,11.87,0,0,0,1,1.64,14,14,0,0,0,7.59,5.18"/><path class="cls-3" d="M15.93,79.89a5.29,5.29,0,0,0-1.58-3c-2.16-2-5.88-1.63-8.45.07-2.31,1.53-3.68,4.17-2.13,7.19a12.12,12.12,0,0,0,1.49,2.24A14.12,14.12,0,0,0,12,90.86l.38.11"/><path class="cls-3" d="M17.39,71.57a5.31,5.31,0,0,0-1.64-3.06c-1.93-1.7-5.06-1.6-7.52-.37-2.81,1.41-4.73,4.3-3,7.69A11.5,11.5,0,0,0,5.9,77a13.88,13.88,0,0,0,7.51,5.57l.44.13"/><path class="cls-3" d="M19,61.75a5.34,5.34,0,0,0-1.61-3c-2.18-1.95-5.91-1.59-8.47.14C6.64,60.39,5.3,63,6.84,66a13,13,0,0,0,1.39,2.13,14.1,14.1,0,0,0,6.82,4.57l.41.12"/><path class="cls-3" d="M20.23,53.2a5.29,5.29,0,0,0-1.44-2.85c-1.95-2-5.35-1.84-7.92-.47s-4.49,4.28-2.79,7.59a11.4,11.4,0,0,0,.84,1.39,13.94,13.94,0,0,0,7.55,5.36l.22.07"/><path class="cls-3" d="M21.73,43.61a5.36,5.36,0,0,0-1.35-2.77c-2.07-2.18-5.85-1.93-8.5-.27-2.42,1.52-3.9,4.2-2.3,7.3a13,13,0,0,0,1.29,2,14,14,0,0,0,7.2,4.77l.12,0"/><path class="cls-3" d="M23.8,35.89a5.08,5.08,0,0,0-2-3.35c-2.14-1.53-5.44-1.18-7.82.32s-3.9,4.19-2.3,7.29c.07.14.15.28.23.42a13.7,13.7,0,0,0,7.52,6.14c.29.11.57.19.86.27"/><path class="cls-3" d="M24.44,26.14a5.38,5.38,0,0,0-1.17-2.56c-2-2.35-5.76-2.2-8.49-.6-2.53,1.49-4.13,4.24-2.49,7.42A12.62,12.62,0,0,0,14,32.86a14.11,14.11,0,0,0,7,4.37"/><path class="cls-3" d="M26,17.24a5.33,5.33,0,0,0-1.25-2.66c-1.88-2.13-5.34-2.09-8-.74s-4.65,4.3-2.92,7.66a12.15,12.15,0,0,0,.9,1.48,14,14,0,0,0,7.7,5.35h0"/><path class="cls-3" d="M27.41,7.27a5.59,5.59,0,0,0-1-2.37C22.73.06,11.8,4.83,15.25,11.53a12.43,12.43,0,0,0,1.55,2.31,14,14,0,0,0,7.07,4.51"/><path class="cls-4" d="M35.27,9.85a1.75,1.75,0,1,1-1.78-1.7A1.75,1.75,0,0,1,35.27,9.85Z"/><path class="cls-4" d="M29.85,50.87a1.75,1.75,0,1,1-1.78-1.7A1.74,1.74,0,0,1,29.85,50.87Z"/><path class="cls-4" d="M22.18,91.64a1.75,1.75,0,1,1-1.79-1.7A1.75,1.75,0,0,1,22.18,91.64Z"/><path class="cls-5" d="M67.1,94.62l1,0a.94.94,0,0,0,.6-.11,1.22,1.22,0,0,0,.28-.45,1.73,1.73,0,0,1,2.77-.23c.51.69.48,1.73,1.15,2.26a4.54,4.54,0,0,1,5.26,0,1.71,1.71,0,0,0,.42.28,1.66,1.66,0,0,0,.83,0l5.68-.66"/><path class="cls-5" d="M67.1,94.62a7,7,0,0,0,2.16-2.21.62.62,0,0,0,.11-.52.58.58,0,0,0-.35-.28,5.62,5.62,0,0,0-3.82.26c-.86.28-1.71.57-2.56.89a.68.68,0,0,0-.43.3c-.1.24.09.5.29.66a5.17,5.17,0,0,0,3.08.82Z"/><path class="cls-5" d="M59.54,96.52c2,.8,5.28-.26,7.56-1.9"/></g></g></svg>