<svg xmlns="http://www.w3.org/2000/svg" xmlns:xlink="http://www.w3.org/1999/xlink" viewBox="0 0 123.93 122.06"><defs><style>.cls-1,.cls-10,.cls-11,.cls-12,.cls-3,.cls-4{fill:none;}.cls-2{fill:#ffe1c0;}.cls-3,.cls-4{stroke:#be1e2d;}.cls-3{stroke-width:0.3px;}.cls-4{stroke-width:3.2px;}.cls-5{fill:#be1e2d;}.cls-6{fill:#27aae1;}.cls-7{fill:#2b3990;}.cls-8{fill:#00a79d;}.cls-9{fill:url(#Scotch_Rule_5);}.cls-10,.cls-11,.cls-12{stroke:#231f20;stroke-miterlimit:10;}.cls-10{stroke-width:2px;}.cls-11{stroke-width:1.5px;}</style><pattern id="Scotch_Rule_5" data-name="Scotch Rule 5" width="81.36" height="72" patternUnits="userSpaceOnUse" viewBox="0 0 81.36 72"><rect class="cls-1" width="81.36" height="72"/><rect class="cls-2" width="81.36" height="72"/><line class="cls-3" x1="40.68" y1="72" x2="40.68"/><line class="cls-3" x1="13.56" y1="72" x2="13.56"/><line class="cls-3" x1="67.8" y1="72" x2="67.8"/><line class="cls-4" x1="44.8" y1="72" x2="44.8"/><line class="cls-4" x1="17.68" y1="72" x2="17.68"/><line class="cls-4" x1="71.92" y1="72" x2="71.92"/><line class="cls-3" x1="48.92" y1="72" x2="48.92"/><line class="cls-3" x1="21.8" y1="72" x2="21.8"/><line class="cls-3" x1="76.04" y1="72" x2="76.04"/><line class="cls-4" x1="36.56" y1="72" x2="36.56"/><line class="cls-4" x1="9.44" y1="72" x2="9.44"/><line class="cls-4" x1="63.68" y1="72" x2="63.68"/><line class="cls-3" x1="5.32" y1="72" x2="5.32"/><line class="cls-3" x1="32.44" y1="72" x2="32.44"/><line class="cls-3" x1="59.56" y1="72" x2="59.56"/></pattern></defs><title>pencilcase</title><g id="Layer_2" data-name="Layer 2"><g id="Layer_2-2" data-name="Layer 2"><path class="cls-5" d="M49.36,2.7C52,2,61.32,4.94,60.55,7.89c-.72,2.8-10.11-4.36-11.11-5.12Z"/><path class="cls-5" d="M58.21,11.34,56.28,13l-2.1-2.52L55.6,8.64C56.42,9.48,57.3,10.38,58.21,11.34Z"/><path class="cls-5" d="M113.89,75.1c5.44,6.73,8.82,11.25,8.58,11.72-1.15-.64-5-4.54-10.43-10.35l1.84-1.37Z"/><path class="cls-5" d="M113.89,75.1h0L112,76.47c-.82-.88-1.68-1.81-2.56-2.78l2.07-1.47Z"/><path class="cls-5" d="M109.48,69.7h0l-2.09,1.71-2.11-2.32,2.1-1.92C108.1,68,108.8,68.88,109.48,69.7Z"/><path class="cls-5" d="M111.55,72.22l-2.07,1.47c-.69-.73-1.38-1.49-2.1-2.28l2.09-1.71h0Z"/><path class="cls-5" d="M107.37,67.17l-2.1,1.92-1.75-1.92,1.74-2.53C106,65.5,106.69,66.34,107.37,67.17Z"/><path class="cls-5" d="M105.26,64.64l-1.74,2.53-2.28-2.53,2.28-2.08Z"/><path class="cls-5" d="M101.38,60l-2,2.53-2.62-2.91,2.61-2h0Z"/><path class="cls-5" d="M103.52,62.56l-2.28,2.08-1.87-2.09,2-2.53Z"/><path class="cls-5" d="M97.47,55.42l1.9,2.22h0l-2.61,2c-.79-.89-1.58-1.79-2.39-2.69Z"/><path class="cls-5" d="M97.47,55.42,94.36,57q-1.06-1.22-2.16-2.43l3.48-1.2C96.29,54,96.88,54.72,97.47,55.42Z"/><path class="cls-5" d="M93.59,50.88l2.09,2.44-3.48,1.2-1.56-1.76Z"/><path class="cls-5" d="M93.59,50.88l-3,1.88L88.18,50,92,49Z"/><path class="cls-5" d="M92,49,88.18,50,86.7,48.29l3-2Z"/><path class="cls-5" d="M87.66,44l2,2.3-3,2c-.66-.76-1.33-1.51-2-2.26Z"/><path class="cls-5" d="M86,42.13,87.66,44l-3,2c-.71-.81-1.42-1.61-2.12-2.42Z"/><path class="cls-5" d="M86,42.13l-3.43,1.48-2.22-2.54,3.85-1Z"/><path class="cls-5" d="M78.47,38.9l3.7-1.17,2,2.34-3.85,1Z"/><path class="cls-5" d="M82.17,37.73l-3.7,1.17-1.33-1.54L79.77,35h0Z"/><path class="cls-5" d="M79.78,35h0l-2.63,2.35c-.69-.78-1.37-1.57-2-2.35l2.49-2.48Z"/><path class="cls-5" d="M77.58,32.53,75.09,35l-2.15-2.48,3.42-1.38Z"/><path class="cls-5" d="M71.26,30.58l2.84-1.95h0l2.25,2.53-3.42,1.38Q72.09,31.56,71.26,30.58Z"/><path class="cls-5" d="M68.92,27.87l-1.35-1.55h0l2.67-2h0L72.2,26.5Z"/><path class="cls-5" d="M72.2,26.5l1.91,2.12h0l-2.84,1.95-2.34-2.71Z"/><path class="cls-5" d="M70.26,24.34h0l-2.67,2h0l-2.2-2.59L68.16,22h0Z"/><path class="cls-5" d="M68.17,22h0l-2.79,1.69c-.74-.86-1.46-1.7-2.16-2.53l2.39-2Z"/><path class="cls-5" d="M65.6,19.24l-2.39,2-1.8-2.11,1.8-2.44C64,17.49,64.79,18.35,65.6,19.24Z"/><path class="cls-5" d="M63.21,16.65l-1.8,2.44-2.07-2.44,2-2C61.93,15.26,62.57,16,63.21,16.65Z"/><path class="cls-5" d="M61.3,14.6l-2,2-1.51-1.8c-.54-.63-1-1.25-1.55-1.85l1.93-1.66Q59.7,12.88,61.3,14.6Z"/><path class="cls-6" d="M92.2,94.92,79.75,112.26l-1,1.37L53.93,98.57c-1.82-2.1-3.7-4.29-5.61-6.56l3.25-4.16,6.54-8.37Z"/><path class="cls-7" d="M45.46,29.9l-1.68.68-4.31-6.29a11.94,11.94,0,0,1,2,.84A8.22,8.22,0,0,1,45.46,29.9Z"/><path class="cls-7" d="M43.34,7.89,55.6,25.81,45.46,29.9a8.22,8.22,0,0,0-4-4.77,11.94,11.94,0,0,0-2-.84L31.52,12.67Z"/><path class="cls-5" d="M42.73,34.23l3.18-1.39a9.53,9.53,0,0,1-1.12,4.34.22.22,0,0,1,0,.08Z"/><path class="cls-8" d="M43.78,30.58l1.68-.68a9.08,9.08,0,0,1,.45,2.94l-3.18,1.39,2,3c-2.37,4.36-8.32,4.68-12.47,2.48S26.86,32,29.22,27.51c2-3.76,6.41-4.45,10.25-3.22Z"/><path class="cls-8" d="M93.94,68.2c3.65,4.43,3.65,10.46,0,13.47s-10.7,2.19-14.35-2.24a10,10,0,0,1,1.14-13.81C84.38,62.61,90.29,63.77,93.94,68.2Z"/><path class="cls-5" d="M62.25,25.7,72.94,38.52l-.74.38L52.55,49,44.74,37.26a.22.22,0,0,0,0-.08,9.53,9.53,0,0,0,1.12-4.34L61.3,26.11Z"/><path class="cls-2" d="M60.6,63.33c.86.18,1.58,1.22,1.1,2q-3-.09-6.08-.23l2.45-1.15A4.12,4.12,0,0,1,60.6,63.33Z"/><path class="cls-2" d="M48.88,55.38a6.1,6.1,0,0,1,.47,3.36A2.29,2.29,0,0,1,49,60a2.44,2.44,0,0,1-1.85.66,8.5,8.5,0,0,1-3.66-.28,3.64,3.64,0,0,1-1.44-1,9,9,0,0,1,2.79-4.7A3.17,3.17,0,0,1,46,53.94,2.62,2.62,0,0,1,48.88,55.38Z"/><path class="cls-2" d="M42,59.38a3.64,3.64,0,0,0,1.44,1,8.5,8.5,0,0,0,3.66.28A2.44,2.44,0,0,0,49,60a2.29,2.29,0,0,0,.36-1.26,6.1,6.1,0,0,0-.47-3.36A2.62,2.62,0,0,0,46,53.94a3.17,3.17,0,0,0-1.21.74A9,9,0,0,0,42,59.38Zm51.9,22.29c3.65-3,3.65-9,0-13.47s-9.56-5.59-13.21-2.58a10,10,0,0,0-1.14,13.81C83.24,83.86,90.29,84.67,93.94,81.67ZM55.62,65.06q3,.14,6.08.23c.48-.74-.24-1.78-1.1-2a4.12,4.12,0,0,0-2.53.58Zm-11-60.22c.15,1.39,7.13,10,16.64,21.27L45.91,32.84a9.08,9.08,0,0,0-.45-2.94L55.6,25.81,43.34,7.89,31.52,12.67l8,11.62c-3.84-1.23-8.26-.54-10.25,3.22-2.36,4.44-1.12,10,3.05,12.23s10.1,1.88,12.47-2.48L52.55,49,72.2,38.9C92,61.9,115.06,88.21,115,89.27c-.15,1.83-31.79,22.77-35.22,23L92.2,94.92,58.11,79.48l-6.54,8.37s-45.5-62-45.44-63.4C6.26,21.53,29.78,9.1,40.21,5.66,42.35,5,43.93,4.63,44.66,4.84Z"/><path class="cls-9" d="M40.21,5.66C29.78,9.1,6.26,21.53,6.13,24.45c-.06,1.38,45.44,63.4,45.44,63.4L48.32,92C26,65.64-1,30,1.11,24.15c2.47-7,26.08-16.08,38.42-20.42Z"/><path class="cls-9" d="M61.41,19.09l1.8,2.11c.7.83,1.42,1.67,2.16,2.53l2.2,2.59,1.35,1.55,2.34,2.71q.83,1,1.68,2L75.09,35c.68.78,1.36,1.57,2,2.35l1.33,1.54,1.9,2.17,2.22,2.54c.7.81,1.41,1.61,2.12,2.42s1.33,1.5,2,2.26L88.18,50l2.46,2.79,1.56,1.76q1.1,1.21,2.16,2.43c.81.9,1.6,1.8,2.39,2.69l2.62,2.91,1.87,2.09,2.28,2.53,1.75,1.92,2.11,2.32c.72.79,1.41,1.55,2.1,2.28.88,1,1.74,1.9,2.56,2.78,5.42,5.81,9.28,9.71,10.43,10.35,5.5,3.06-40.12,34.55-46.19,34.24-2-.1-11.1-9.53-22.35-22.49l24.84,15.06,1-1.37c3.43-.22,35.07-21.16,35.22-23,.09-1.06-23-27.37-42.77-50.37l.74-.38L62.25,25.7l-1,.41C51.79,14.86,44.81,6.23,44.66,4.84c-.73-.21-2.31.12-4.45.82l-.68-1.93C44,2.16,47,1.22,47,1.22c.4.85,3.08,4.26,7.23,9.26L56.28,13c.5.6,1,1.22,1.55,1.85l1.51,1.8Z"/><path class="cls-10" d="M47,1.22c.4.85,3.08,4.26,7.23,9.26L56.28,13c.5.6,1,1.22,1.55,1.85l1.51,1.8,2.07,2.44,1.8,2.11c.7.83,1.42,1.67,2.16,2.53l2.2,2.59,1.35,1.55,2.34,2.71q.83,1,1.68,2L75.09,35c.68.78,1.36,1.57,2,2.35l1.33,1.54,1.9,2.17,2.22,2.54c.7.81,1.41,1.61,2.12,2.42s1.33,1.5,2,2.26L88.18,50l2.46,2.79,1.56,1.76q1.1,1.21,2.16,2.43c.81.9,1.6,1.8,2.39,2.69l2.62,2.91,1.87,2.09,2.28,2.53,1.75,1.92,2.11,2.32c.72.79,1.41,1.55,2.1,2.28.88,1,1.74,1.9,2.56,2.78,5.42,5.81,9.28,9.71,10.43,10.35,5.5,3.06-40.12,34.55-46.19,34.24-2-.1-11.1-9.53-22.35-22.49-1.82-2.1-3.7-4.29-5.61-6.56C26,65.64-1,30,1.11,24.15c2.47-7,26.08-16.08,38.42-20.42C44,2.16,47,1.22,47,1.22Z"/><polygon class="cls-11" points="45.46 29.9 43.78 30.58 39.47 24.29 31.52 12.67 43.34 7.89 55.6 25.81 45.46 29.9"/><polygon class="cls-11" points="72.2 38.9 52.55 49.03 44.74 37.26 42.73 34.23 45.91 32.84 61.3 26.11 62.25 25.7 72.94 38.52 72.2 38.9"/><polyline class="cls-11" points="48.31 92.02 48.32 92.01 51.57 87.85 58.11 79.48 92.2 94.92 79.75 112.26 78.77 113.63 53.93 98.57 53.91 98.56"/><path class="cls-12" d="M93.94,68.2c3.65,4.43,3.65,10.46,0,13.47s-10.7,2.19-14.35-2.24a10,10,0,0,1,1.14-13.81C84.38,62.61,90.29,63.77,93.94,68.2Z"/><path class="cls-12" d="M45.91,32.84a9.53,9.53,0,0,1-1.12,4.34.22.22,0,0,1,0,.08c-2.37,4.36-8.32,4.68-12.47,2.48S26.86,32,29.22,27.51c2-3.76,6.41-4.45,10.25-3.22a11.94,11.94,0,0,1,2,.84,8.22,8.22,0,0,1,4,4.77A9.08,9.08,0,0,1,45.91,32.84Z"/><path class="cls-11" d="M61.3,26.11C51.79,14.86,44.81,6.23,44.66,4.84c-.73-.21-2.31.12-4.45.82C29.78,9.1,6.26,21.53,6.13,24.45c-.06,1.38,45.44,63.4,45.44,63.4"/><path class="cls-11" d="M79.75,112.26c3.43-.22,35.07-21.16,35.22-23,.09-1.06-23-27.37-42.77-50.37"/><path class="cls-12" d="M55.62,65.06l-5,2.32c-1.13.53-2.42,1.25-2.6,2.49a2.5,2.5,0,0,0,1.22,2.37,6,6,0,0,0,2.67.82,22.17,22.17,0,0,0,5.4,0,5.51,5.51,0,0,0,3.93-1.86,11.53,11.53,0,0,0,5.1,2.68,6,6,0,0,1,2.74,1c.37.33.63.77,1,1.12,1.61,1.65,4.59,1.11,6.27,2.69"/><path class="cls-12" d="M55.62,65.06q3,.14,6.08.23c.48-.74-.24-1.78-1.1-2a4.12,4.12,0,0,0-2.53.58Z"/><path class="cls-12" d="M42,59.38a9.64,9.64,0,0,0-.22,1.85A3.23,3.23,0,0,0,42.92,64a3.83,3.83,0,0,0,1.93.47q5.38.34,10.77.58"/><path class="cls-12" d="M42,59.38a3.64,3.64,0,0,0,1.44,1,8.5,8.5,0,0,0,3.66.28A2.44,2.44,0,0,0,49,60a2.29,2.29,0,0,0,.36-1.26,6.1,6.1,0,0,0-.47-3.36A2.62,2.62,0,0,0,46,53.94a3.17,3.17,0,0,0-1.21.74A9,9,0,0,0,42,59.38Z"/><path class="cls-12" d="M41.42,57.61A2.47,2.47,0,0,0,42,59.38"/><path class="cls-10" d="M49.44,2.77C51,4.05,53.06,6.06,55.6,8.64c.82.84,1.7,1.74,2.61,2.7s2,2.12,3.09,3.26c.63.66,1.27,1.35,1.91,2s1.58,1.7,2.39,2.59L68.17,22l2.09,2.31L72.2,26.5l1.91,2.12,2.25,2.53,1.22,1.38L79.78,35l2.39,2.73,2,2.34L86,42.13,87.66,44l2,2.3L92,49l1.59,1.85,2.09,2.44c.61.7,1.2,1.4,1.79,2.1l1.9,2.22,2,2.38,2.14,2.54,1.74,2.08c.73.86,1.43,1.7,2.11,2.53s1.43,1.71,2.11,2.53l2.07,2.52,2.34,2.88c5.44,6.73,8.82,11.25,8.58,11.72"/><path class="cls-10" d="M47,1.22c.36-.06,1.19.46,2.41,1.48"/><path class="cls-10" d="M49.36,2.7C52,2,61.32,4.94,60.55,7.89c-.72,2.8-10.11-4.36-11.11-5.12Z"/><line class="cls-10" x1="58.21" y1="11.34" x2="56.28" y2="13"/><line class="cls-10" x1="61.3" y1="14.6" x2="59.34" y2="16.65"/><polyline class="cls-10" points="63.21 16.65 61.41 19.09 61.3 19.24"/><line class="cls-10" x1="65.6" y1="19.24" x2="63.21" y2="21.2"/><line class="cls-10" x1="68.16" y1="22.04" x2="65.37" y2="23.73"/><line class="cls-10" x1="70.25" y1="24.35" x2="67.58" y2="26.31"/><line class="cls-10" x1="72.2" y1="26.5" x2="68.92" y2="27.87"/><line class="cls-10" x1="74.1" y1="28.63" x2="71.26" y2="30.58"/><line class="cls-10" x1="76.36" y1="31.15" x2="72.94" y2="32.53"/><line class="cls-10" x1="77.58" y1="32.53" x2="75.09" y2="35.01"/><line class="cls-10" x1="79.77" y1="35.01" x2="77.14" y2="37.36"/><line class="cls-10" x1="82.17" y1="37.73" x2="78.47" y2="38.9"/><line class="cls-10" x1="84.22" y1="40.07" x2="80.37" y2="41.07"/><line class="cls-10" x1="86.02" y1="42.13" x2="82.59" y2="43.61"/><line class="cls-10" x1="87.66" y1="44.02" x2="84.71" y2="46.03"/><line class="cls-10" x1="89.65" y1="46.32" x2="86.7" y2="48.29"/><line class="cls-10" x1="92" y1="49.03" x2="88.18" y2="49.97"/><line class="cls-10" x1="93.59" y1="50.88" x2="90.64" y2="52.76"/><line class="cls-10" x1="95.68" y1="53.32" x2="92.2" y2="54.52"/><polyline class="cls-10" points="97.47 55.42 94.36 56.95 93.94 57.16"/><line class="cls-10" x1="99.36" y1="57.64" x2="96.75" y2="59.64"/><polyline class="cls-10" points="101.68 59.64 101.38 60.02 99.37 62.55 99.36 62.56"/><polyline class="cls-10" points="103.52 62.56 101.24 64.64 101.23 64.64"/><line class="cls-10" x1="105.26" y1="64.64" x2="103.52" y2="67.17"/><polyline class="cls-10" points="107.37 67.17 105.27 69.09 105.26 69.1"/><polyline class="cls-10" points="109.47 69.7 107.38 71.41 107.37 71.41"/><polyline class="cls-10" points="111.55 72.22 109.48 73.69 109.47 73.7"/><line class="cls-10" x1="113.88" y1="75.1" x2="112.04" y2="76.47"/><line class="cls-10" x1="59.34" y1="13" x2="57.83" y2="14.85"/><line class="cls-10" x1="55.6" y1="8.64" x2="54.18" y2="10.48"/></g></g></svg>