<svg xmlns="http://www.w3.org/2000/svg" viewBox="0 0 146.73 104.61"><defs><style>.cls-1{fill:#92278f;}.cls-2{fill:#662d91;}.cls-3{fill:#414042;}.cls-4{fill:#f16680;}.cls-5{fill:#87bdb8;}.cls-6,.cls-7,.cls-8,.cls-9{fill:none;stroke-miterlimit:10;}.cls-6{stroke:#92278f;}.cls-6,.cls-7{stroke-width:2px;}.cls-7,.cls-8,.cls-9{stroke:#231f20;}.cls-9{stroke-width:1.5px;}</style></defs><title>phone</title><g id="Layer_2" data-name="Layer 2"><g id="Layer_2-2" data-name="Layer 2"><path class="cls-1" d="M144.43,31.31c1.25,2.75.16,3.65-2.64,6.58L116.38,58.77c1.8-1.49,2.66-3.93,2.92-6.68C131.3,42,141.16,33.59,144.08,31Z"/><path class="cls-2" d="M28.47,81.67a.75.75,0,0,0-1,.41l-.27,1.49a.75.75,0,0,0,.41,1l9.48,3.93a.76.76,0,0,0,1-.41l.27-1.49a.76.76,0,0,0-.41-1ZM17.09,78.16a1.79,1.79,0,0,0-1.55-2,2,2,0,0,0,0,3.9A1.78,1.78,0,0,0,17.09,78.16ZM53.27,95l-1,2.28c-13.36-4.9-38.39-16.12-40-16.47-2.08-.46-3.28-5.51,0-7.88L50.62,88.27l-.83,2.08c-.2-.08-.49.16-.65.55l-.41,1.43c-.16.38-.13.76.08.85L53.27,95Z"/><path class="cls-3" d="M38,85.59a.76.76,0,0,1,.41,1l-.27,1.49a.76.76,0,0,1-1,.41l-9.48-3.93a.75.75,0,0,1-.41-1l.27-1.49a.75.75,0,0,1,1-.41Z"/><path class="cls-1" d="M12.34,80.84c1.59.35,26.62,11.57,40,16.47,4,1.47,7,2.37,8,2.22,1.92-.31,20.26-15.15,39.38-31a14.17,14.17,0,0,1-1.08,4.9L63.78,102c-2.8,2.93-7.45,1.14-10.37.24l-41-18.63C4,81.25,6,65,13.18,61.76l-1.08.83A7.33,7.33,0,0,0,12.34,73C9.06,75.33,10.26,80.38,12.34,80.84Z"/><ellipse class="cls-3" cx="15.54" cy="78.16" rx="1.55" ry="1.95"/><path class="cls-4" d="M51.16,15.38c1.2.51,2.51,1,3.89,1.45a13.35,13.35,0,0,0,1.19,3.6v0l.66,7.71-4.27,3.29a10.64,10.64,0,0,1-2.7-2.14c-1.68-2.12.69-9.59.69-9.59h0c-.43.11-9.64,2.52-12.05.84s-1.39-9.84-1.39-9.84,4.56.4,13.05,4.22Z"/><path class="cls-1" d="M141.55,14.65a7.34,7.34,0,0,1,1.49,8.6A6.92,6.92,0,0,1,141.79,25L118.73,44c-1.09-5.4-33.88-11.45-33.88-11.45-11.7,8.83-.65,24.15,12.69,28.87L63.78,89.14c-2.8,2.93-7.45,1.14-10.37.24l-2.79-1.11L12.34,73a7.33,7.33,0,0,1-.24-10.37l1.08-.83h0l24-18.47,15.4-11.83,4.27-3.29,4.28-3.29L70,18.1,88.12,4.17l3.93-.27a6.68,6.68,0,0,0-2.76-.62L89.61,3a4.75,4.75,0,0,1,1.81-1.17c3-1.13,7,.2,8.56.93Zm-22.89-1.57a.68.68,0,0,0-.37-1l-9.82-3a1.13,1.13,0,0,0-1,.36l-1.52,1c-.28.33.1.82.5.94l9.82,3a1.57,1.57,0,0,0,1-.31Z"/><path class="cls-1" d="M118.73,44a29.26,29.26,0,0,1,.57,8.11c-.26,2.75-1.12,5.19-2.92,6.68L98.57,73.41a14.17,14.17,0,0,0,1.08-4.9c.19-3-.34-6.05-2.11-7.11-13.34-4.72-24.39-20-12.69-28.87C84.85,32.53,117.64,38.58,118.73,44Z"/><path class="cls-2" d="M53.81,95.25c.21.08.5-.16.66-.55l.41-1.43c.16-.38.12-.76-.08-.85l-5-2.07.83-2.08,2.79,1.11c2.92.9,7.57,2.69,10.37-.24L97.54,61.4c1.77,1.06,2.3,4.16,2.11,7.11-19.12,15.87-37.46,30.71-39.38,31-1,.15-3.92-.75-8-2.22l1-2.28Z"/><path class="cls-3" d="M54.8,92.42c.2.09.24.47.08.85l-.41,1.43c-.16.39-.45.63-.66.55L53.27,95h0l-4.46-1.84c-.21-.09-.24-.47-.08-.85l.41-1.43c.16-.39.45-.63.65-.55Z"/><path class="cls-3" d="M108.47,9.07l9.82,3a.68.68,0,0,1,.37,1l-1.36,1a1.57,1.57,0,0,1-1,.31l-9.82-3c-.4-.12-.78-.61-.5-.94l1.52-1A1.13,1.13,0,0,1,108.47,9.07Z"/><path class="cls-5" d="M36.41,27.49c-.45.13-.66.82-.45,1.56s.73,1.22,1.18,1.1.66-.83.46-1.56S36.86,27.37,36.41,27.49Zm-3.7,4.21c2-.19-1.57-5.95-3.07-5.48S30.16,32,32.71,31.7Zm1.61-6.07c.19-.31-.18-.89-.84-1.3s-1.34-.51-1.53-.21.18.88.84,1.3S34.13,25.93,34.32,25.63ZM26.88,22.3c4.17-.9,7.38-.59,12,3.23s2.44,10.85-1.76,12.08.54,2.23-1.38,3.7l-.17.12c-2.35,1.53-5.47-3.36-5.47-3.36S23.94,35,21,37.91s0,5.81,0,5.81c-10-2.9-8.68-13,0-18.19C21.73,21.4,25.62,18,26.88,22.3Z"/><path class="cls-2" d="M143,23.25c2.36,1.28,3.59,4.58,1.91,7,0,0-.33.32-.87.79-2.92,2.56-12.78,11-24.78,21.06a29.26,29.26,0,0,0-.57-8.11L141.79,25A6.92,6.92,0,0,0,143,23.25Z"/><path class="cls-4" d="M59.42,14c5.51-.16,9.41,1.64,10.58,4.08l-8.82,6.77a8.41,8.41,0,0,1-4.94-4.42v0a13.35,13.35,0,0,1-1.19-3.6c-1.38-.45-2.69-.94-3.89-1.45L50.21,15C44.8,12.43,42.36,9.46,49,8.07c1.38-.29,2.59-.49,3.66-.61C58.16,6.88,59.75,8.72,59.42,14Z"/><path class="cls-6" d="M4.76,9.61A10.17,10.17,0,0,0,2,10.46c-4.28,2.9,30.79,0,42.71-2.18,1.92-.35,4.69-.72,8-1.08,8-.91,19-1.81,27.34-2.44l8.12-.59,3.93-.27"/><path class="cls-6" d="M71.55,3.33C49.07,4.28,15,7.47,4.78,9.61"/><path class="cls-6" d="M92.05,3.9a6.68,6.68,0,0,0-2.76-.62c-.9-.09-2-.15-3.23-.18-3.63-.12-8.65,0-14.44.23"/><path class="cls-7" d="M116.38,58.77c1.8-1.49,2.66-3.93,2.92-6.68a29.26,29.26,0,0,0-.57-8.11c-1.09-5.4-33.88-11.45-33.88-11.45-11.7,8.83-.65,24.15,12.69,28.87,1.77,1.06,2.3,4.16,2.11,7.11a14.17,14.17,0,0,1-1.08,4.9"/><path class="cls-7" d="M13.2,61.75l24-18.47,15.4-11.83,4.27-3.29,4.28-3.29L70,18.1,88.12,4.17l1.17-.89L89.61,3a4.75,4.75,0,0,1,1.81-1.17c3-1.13,7,.2,8.56.93l41.57,11.86a7.34,7.34,0,0,1,1.49,8.6A6.92,6.92,0,0,1,141.79,25L118.73,44"/><path class="cls-7" d="M97.54,61.4,63.78,89.14c-2.8,2.93-7.45,1.14-10.37.24l-2.79-1.11L12.34,73a7.33,7.33,0,0,1-.24-10.37l1.08-.83"/><path class="cls-7" d="M144.43,31.31c1.25,2.75.16,3.65-2.64,6.58L116.38,58.77,98.57,73.41,63.78,102c-2.8,2.93-7.45,1.14-10.37.24l-41-18.63C4,81.25,6,65,13.18,61.76h0"/><path class="cls-7" d="M119.3,52.09C131.3,42,141.16,33.59,144.08,31c.54-.47.84-.75.87-.79,1.68-2.41.45-5.71-1.91-7"/><path class="cls-7" d="M12.34,73c-3.28,2.37-2.08,7.42,0,7.88,1.59.35,26.62,11.57,40,16.47,4,1.47,7,2.37,8,2.22,1.92-.31,20.26-15.15,39.38-31"/><path class="cls-8" d="M37.1,88.48l-9.48-3.93a.75.75,0,0,1-.41-1l.27-1.49a.75.75,0,0,1,1-.41L38,85.59a.76.76,0,0,1,.41,1l-.27,1.49A.76.76,0,0,1,37.1,88.48Z"/><path class="cls-8" d="M49.79,90.35l5,2.07c.2.09.24.47.08.85l-.41,1.43c-.16.39-.45.63-.66.55L53.27,95h0l-4.46-1.84c-.21-.09-.24-.47-.08-.85l.41-1.43C49.3,90.51,49.59,90.27,49.79,90.35Z"/><path class="cls-8" d="M106.44,11.4l9.82,3a1.57,1.57,0,0,0,1-.31l1.36-1a.68.68,0,0,0-.37-1l-9.82-3a1.13,1.13,0,0,0-1,.36l-1.52,1C105.66,10.79,106,11.28,106.44,11.4Z"/><ellipse class="cls-8" cx="15.54" cy="78.16" rx="1.55" ry="1.95"/><path class="cls-7" d="M71.62,3.33c10.55-.86,19.79-1.48,19.79-1.48"/><path class="cls-6" d="M71.55,3.33h.07"/><path class="cls-7" d="M4.78,9.61c8.77.27,30.43-1.74,39.29-3.37,5.26-1,17-2.06,27.48-2.91"/><path class="cls-6" d="M4.76,9.61h0"/><path class="cls-7" d="M91.41,1.85C87-1.41,5.64,5.51,1.36,8.41c-1.1.74.39,1.11,3.4,1.2"/><path class="cls-9" d="M56.24,20.45a8.41,8.41,0,0,0,4.94,4.42"/><path class="cls-9" d="M51.16,15.38c1.2.51,2.51,1,3.89,1.45a13.35,13.35,0,0,0,1.19,3.6"/><path class="cls-9" d="M70,18.1c-1.17-2.44-5.07-4.24-10.58-4.08.33-5.3-1.26-7.14-6.73-6.56-1.07.12-2.28.32-3.66.61C42.36,9.46,44.8,12.43,50.21,15"/><polyline class="cls-9" points="56.9 28.16 56.24 20.45 56.24 20.43"/><path class="cls-9" d="M50.62,19.72s-2.37,7.47-.69,9.59a10.64,10.64,0,0,0,2.7,2.14"/><path class="cls-9" d="M52,15.76l-.8-.38L50.21,15c-8.49-3.82-13.05-4.22-13.05-4.22s-1.08,8.11,1.39,9.84,11.62-.73,12.05-.84"/><path class="cls-9" d="M38.85,25.53c4.58,3.82,2.44,10.85-1.76,12.08s.54,2.23-1.38,3.7l-.17.12c-2.35,1.53-5.47-3.36-5.47-3.36S23.94,35,21,37.91s0,5.81,0,5.81c-10-2.9-8.68-13,0-18.19.73-4.13,4.62-7.52,5.88-3.23C31.05,21.4,34.26,21.71,38.85,25.53Z"/><path class="cls-8" d="M32.71,31.7c2-.19-1.57-5.95-3.07-5.48S30.16,32,32.71,31.7Z"/><path class="cls-8" d="M34.32,25.63c-.19.3-.88.2-1.53-.21s-1-1-.84-1.3.88-.21,1.53.21S34.51,25.32,34.32,25.63Z"/><path class="cls-8" d="M36.41,27.49c.45-.12,1,.37,1.19,1.1s0,1.43-.46,1.56-1-.37-1.18-1.1S36,27.62,36.41,27.49Z"/><polyline class="cls-7" points="38.85 25.53 50.6 19.73 50.62 19.72"/><path class="cls-7" d="M59.42,14C62.55,11.73,72.32,7.31,80,4.76A49.21,49.21,0,0,1,86.06,3.1,6.58,6.58,0,0,1,89.61,3"/></g></g></svg>