<svg xmlns="http://www.w3.org/2000/svg" viewBox="0 0 115.34 116.62"><defs><style>.cls-1{fill:#e6e7e8;}.cls-2{fill:#ffe1c0;}.cls-3{fill:#00a79d;}.cls-4{fill:#27aae1;}.cls-5{fill:#2d2a2b;}.cls-6,.cls-7{fill:none;stroke:#231f20;stroke-miterlimit:10;}.cls-6{stroke-width:2px;}.cls-7{stroke-width:1.5px;}</style></defs><title>sketchbook</title><g id="Layer_2" data-name="Layer 2"><g id="Layer_2-2" data-name="Layer 2"><path class="cls-1" d="M9.23,7.06c-.86,1.58-2.55,4.13-4.81,5.08L5.17,15c-3-1-3.39-2.53-2.55-4A9.53,9.53,0,0,1,9.23,7.06Z"/><path class="cls-1" d="M10.25,7.23l1.53,5.9c-1.49-.54-4.61.75-6.45,2.51L5.17,15l-.75-2.88c2.26-1,3.95-3.5,4.81-5.08A2.3,2.3,0,0,1,10.25,7.23Z"/><path class="cls-1" d="M13.09,18.19c-1.48-.56-4.61.73-6.46,2.48l-1.3-5c1.84-1.76,5-3.05,6.45-2.51Z"/><path class="cls-1" d="M6.7,20.93l-.07-.26c1.85-1.75,5-3,6.46-2.48l1.55,6C13,23.9,10,25.29,8.29,27L8,26Z"/><path class="cls-1" d="M14.64,24.17l1.5,5.76c-1.34-.61-4.27.51-6.19,2.13l-.4-.14L8.29,27C10,25.29,13,23.9,14.64,24.17Z"/><path class="cls-1" d="M10,32.06c1.92-1.62,4.85-2.74,6.19-2.13l1.53,5.9c-1.47-.57-4.61.73-6.46,2.48l-.15-.58-1.4-5.41Z"/><path class="cls-1" d="M19.21,41.78c-1.64-.32-4.68,1-6.38,2.79l-.24-1-1.38-5.31c1.85-1.75,5-3.05,6.46-2.48Z"/><path class="cls-1" d="M19.21,41.78l1.51,5.83c-1.28-.75-4.32.38-6.3,2l-.29-.1-1.3-5C14.53,42.82,17.57,41.46,19.21,41.78Z"/><path class="cls-1" d="M22,52.63c-1.69-.24-4.71,1.15-6.35,2.9l0-.16L14.2,49.85l.22-.19c2-1.67,5-2.8,6.3-2Z"/><path class="cls-1" d="M22,52.63l1.5,5.78c-1.34-.61-4.26.51-6.18,2.12l-.42-.15-1.25-4.85C17.32,53.78,20.34,52.39,22,52.63Z"/><path class="cls-1" d="M25.06,64.31c-1.53-.49-4.63.82-6.44,2.57l-.18-.68L17,60.8l.31-.27c1.92-1.61,4.84-2.73,6.18-2.12Z"/><path class="cls-1" d="M26.58,70.2c-1.56-.42-4.63.91-6.41,2.65L20,72.1l-1.35-5.22c1.81-1.75,4.91-3.06,6.44-2.57Z"/><path class="cls-1" d="M26.59,70.2l1.52,5.89c-1.18-.93-4.41.23-6.46,2l-.14,0-1.34-5.16C22,71.11,25,69.78,26.58,70.2Z"/><path class="cls-1" d="M23.23,84.67l-1.69-6.52.11-.09c2.05-1.74,5.28-2.9,6.46-2h0l.39,1.54L29.64,82C28.06,81.58,25,82.92,23.23,84.67Z"/><path class="cls-1" d="M31.17,87.88c-1.61-.38-4.66,1-6.4,2.72l-.21-.82-1.33-5.11C25,82.92,28.06,81.58,29.64,82Z"/><path class="cls-1" d="M31.17,87.88l1.52,5.85c-1.22-.84-4.36.3-6.38,2l-.22-.08L24.77,90.6C26.51,88.85,29.56,87.5,31.17,87.88Z"/><path class="cls-1" d="M33.14,95.46l1.09,4.19c-1.62-.36-4.67,1-6.4,2.75l-1.69-6.51.17-.15c2-1.71,5.16-2.85,6.38-2Z"/><path class="cls-1" d="M34.23,99.65l1.51,5.84c-1.25-.8-4.35.34-6.35,2l-.25-.09-1.31-5C29.56,100.65,32.61,99.29,34.23,99.65Z"/><path class="cls-1" d="M36.21,107.3l.49,1.89L114,104.1s-5.83,3.65-5.45,6.38l-77.3,5.09-.61-2.33-1.44-5.56.19-.16c2-1.69,5.1-2.83,6.35-2Z"/><path class="cls-2" d="M46,62.31a7.26,7.26,0,1,1-9.68,3.42A7.26,7.26,0,0,1,46,62.31Z"/><path class="cls-3" d="M51.85,78.86c3.65,1.74,4.9,6.73,2.79,11.15s-6.77,6.58-10.42,4.84-4.9-6.73-2.8-11.15S48.2,77.12,51.85,78.86Z"/><path class="cls-4" d="M100.89,91.34c3.58,1.37-40.29,6.42-40.29,6.42S62.7,76,67.85,74.4s28.66-1.92,28.66-1.92C96.86,76.71,97.31,90,100.89,91.34Z"/><path class="cls-5" d="M11.78,13.13l-1.53-5.9L9.87,5.76,81.38,1.05,114,104.1l-77.3,5.09-.49-1.89c.22-.94,0-1.52-.47-1.81l-1.51-5.84-1.09-4.19c.19-.88,0-1.43-.45-1.73l-1.52-5.85L29.64,82l-1.13-4.34a1.47,1.47,0,0,0-.39-1.54h0L26.59,70.2h0l-1.52-5.89-1.53-5.9L22,52.63l-1.31-5-1.51-5.83-1.54-6-1.53-5.9-1.5-5.76-1.55-6ZM60.6,97.76s43.87-5.05,40.29-6.42-4-14.63-4.38-18.86c0,0-23.51.36-28.66,1.92S60.6,97.76,60.6,97.76Zm-6-7.75c2.11-4.42.86-9.41-2.79-11.15s-8.32.42-10.43,4.84-.85,9.41,2.8,11.15S52.54,94.42,54.64,90ZM49.37,72a7.26,7.26,0,1,0-9.67,3.42A7.26,7.26,0,0,0,49.37,72Z"/><polyline class="cls-6" points="28.13 76.1 28.52 77.64 29.64 81.98 31.18 87.88 32.7 93.73 33.15 95.46 34.23 99.65 35.74 105.49 36.22 107.3 36.7 109.19 114 104.1 81.39 1.05 9.88 5.76 10.26 7.23 11.79 13.13 13.1 18.19 14.64 24.17 16.14 29.93 17.68 35.83 19.21 41.78 20.73 47.61 22.04 52.63 23.54 58.41 25.07 64.31 26.59 70.2"/><line class="cls-6" x1="26.59" y1="70.2" x2="28.11" y2="76.09"/><path class="cls-6" d="M114,104.1s-5.83,3.65-5.45,6.38l-77.3,5.09-.61-2.33-1.44-5.56-.06-.25-1.31-5-1.69-6.51-.05-.23L24.77,90.6l-.21-.82-1.33-5.11-1.69-6.52,0-.14-1.34-5.16L20,72.1l-1.35-5.22-.18-.68L17,60.8l-.11-.42-1.25-4.85,0-.16L14.2,49.85l-.07-.29-1.3-5-.24-1-1.38-5.31-.15-.58-1.4-5.41-.11-.4L8.29,27,8,26,6.7,20.93l-.07-.26-1.3-5L5.17,15l-.75-2.88c2.26-1,3.95-3.5,4.81-5.08a11.67,11.67,0,0,0,.63-1.29h0"/><path class="cls-6" d="M36.21,107.3c.22-.94,0-1.52-.47-1.81-1.25-.8-4.35.34-6.35,2l-.19.16c-2.06,1.85-2.77,4.26,1.44,5.56"/><path class="cls-6" d="M35.21,101.67c.28-1.23-.17-1.84-1-2-1.62-.36-4.67,1-6.4,2.75s-2.11,3.79,1.31,5l.25.09.25.08"/><path class="cls-6" d="M33.13,95.52a.13.13,0,0,0,0-.06c.19-.88,0-1.43-.45-1.73-1.22-.84-4.36.3-6.38,2l-.17.15c-2.08,1.84-2.8,4.27,1.42,5.57"/><path class="cls-6" d="M32.13,89.89c.28-1.22-.16-1.83-1-2-1.61-.38-4.66,1-6.4,2.72s-2.14,3.82,1.32,5.06l.22.08.25.08"/><path class="cls-6" d="M30.56,84c.28-1.19-.14-1.81-.92-2-1.58-.4-4.65.94-6.41,2.69S21,88.53,24.56,89.78l.43.14"/><path class="cls-6" d="M28.48,77.84a.75.75,0,0,0,0-.2,1.47,1.47,0,0,0-.39-1.54h0c-1.18-.93-4.41.23-6.46,2l-.11.09c-2.12,1.86-2.89,4.31,1.37,5.62"/><path class="cls-6" d="M27.47,72.2c.27-1.17-.13-1.79-.88-2h0c-1.56-.42-4.63.91-6.41,2.65s-2.25,3.9,1.34,5.16l.14,0,.25.08"/><path class="cls-6" d="M25.87,66.28c.26-1.14-.1-1.75-.81-2-1.53-.49-4.63.82-6.44,2.57s-2.34,4,1.35,5.22l.33.11"/><path class="cls-6" d="M24.17,60.32c.24-1-.05-1.64-.64-1.91-1.34-.61-4.26.51-6.18,2.12L17,60.8c-1.95,1.81-2.56,4.12,1.4,5.4l.16,0"/><path class="cls-6" d="M23.17,54.68c.3-1.3-.22-1.92-1.14-2-1.69-.24-4.71,1.15-6.35,2.9s-1.91,3.63,1.25,4.85l.42.15.25.08"/><path class="cls-6" d="M21.24,49.44c.22-1,0-1.55-.52-1.83-1.28-.75-4.32.38-6.3,2l-.22.19c-2,1.84-2.72,4.22,1.43,5.52h0"/><path class="cls-6" d="M20.24,43.81c.29-1.25-.18-1.87-1-2-1.64-.32-4.68,1-6.38,2.79s-2.05,3.75,1.3,5l.29.1.25.08"/><path class="cls-6" d="M18.39,37.77c.25-1.09-.07-1.69-.72-1.94-1.47-.57-4.61.73-6.46,2.48s-2.47,4,1.38,5.31l.23.08"/><path class="cls-6" d="M16.77,31.84c.24-1,0-1.63-.63-1.91-1.34-.61-4.27.51-6.19,2.13l-.29.26c-2,1.8-2.59,4.13,1.4,5.41l.14.05"/><path class="cls-6" d="M15.76,26.21c.3-1.29-.22-1.91-1.12-2C13,23.9,10,25.29,8.29,27S6.35,30.7,9.55,31.92l.4.14.24.08"/><path class="cls-6" d="M13.82,20.13c.25-1.09-.08-1.7-.73-1.94-1.48-.56-4.61.73-6.46,2.48l-.17.17C4.71,22.59,4.3,24.75,8,26l.24.08"/><path class="cls-6" d="M12.53,15.08c.25-1.11-.08-1.72-.75-1.95-1.49-.54-4.61.75-6.45,2.51s-2.4,3.92,1.13,5.2l.24.09L7,21"/><path class="cls-6" d="M10.88,9.14c.24-1,0-1.64-.63-1.91a2.3,2.3,0,0,0-1-.17A9.53,9.53,0,0,0,2.62,11c-.84,1.49-.47,3.05,2.55,4l.14.05"/><path class="cls-6" d="M9.65,5.66C11-.1-3.8,7.57,2.62,11a9,9,0,0,0,1.46.59"/><path class="cls-7" d="M96.51,72.48c.35,4.23.8,17.49,4.38,18.86S60.6,97.76,60.6,97.76,62.7,76,67.85,74.4,96.51,72.48,96.51,72.48Z"/><path class="cls-7" d="M49.37,72A7.26,7.26,0,1,1,46,62.31,7.25,7.25,0,0,1,49.37,72Z"/><path class="cls-7" d="M41.42,83.7c2.11-4.42,6.78-6.58,10.43-4.84s4.9,6.73,2.79,11.15-6.77,6.58-10.42,4.84S39.32,88.12,41.42,83.7Z"/></g></g></svg>