<svg xmlns="http://www.w3.org/2000/svg" viewBox="0 0 148.96 58.82"><defs><style>.cls-1{fill:#58595b;}.cls-2{fill:#92278f;}.cls-3{fill:#2d2a2b;}.cls-4{fill:#2e3192;}.cls-5{fill:#939598;}.cls-6,.cls-7{fill:none;stroke:#231f20;stroke-miterlimit:10;}.cls-6{stroke-width:2px;}.cls-7{stroke-width:1.5px;}</style></defs><title>umbrella</title><g id="Layer_2" data-name="Layer 2"><g id="Layer_2-2" data-name="Layer 2"><path class="cls-1" d="M131.86,33.09a14.75,14.75,0,0,1,.08,2.25l-7.56-.86a4.18,4.18,0,0,1-.57-2.61c0-.11,0-.22,0-.33h3.08Z"/><path class="cls-1" d="M124.38,34.48l7.56.86c0,.82-.09,1.68-.19,2.54h0l-6.41-.77C125.76,36.23,124.9,35.31,124.38,34.48Z"/><path class="cls-1" d="M123.77,38.2c.57-.32,1.28-.51,1.56-1.09l6.41.77h0a27.11,27.11,0,0,1-.61,3.25l-8.32-1a2.51,2.51,0,0,1,.34-1.49A1.84,1.84,0,0,1,123.77,38.2Z"/><path class="cls-1" d="M122.82,40.18l8.32,1a14.7,14.7,0,0,1-1,2.83l-4.57-1.05c.71.08.07-.71,0,0a3.9,3.9,0,0,1-2.08-.43A2.75,2.75,0,0,1,122.82,40.18Z"/><path class="cls-2" d="M123.51,31.82a17,17,0,0,1-3.32.51c-.11,2.18-.65,4.26-2.77,4.78a17.59,17.59,0,0,1,.32-2.6,8.3,8.3,0,0,1,1.19-3.1,7.34,7.34,0,0,1,4.86-2.81,21.49,21.49,0,0,1,5.72,0h0l.38.25L129,30.23a2.7,2.7,0,0,1-1.16,1.18,3,3,0,0,1-.94.12h-3.08c0,.11,0,.22,0,.33Z"/><path class="cls-2" d="M120.19,32.33a17,17,0,0,0,3.32-.51l.3.05a4.18,4.18,0,0,0,.57,2.61c.52.83,1.38,1.75,1,2.63-.28.58-1,.77-1.56,1.09a4.69,4.69,0,0,0-3.55,2.14,13.28,13.28,0,0,0-1.65,3.8,17.39,17.39,0,0,1-1.15-7C119.54,36.59,120.08,34.51,120.19,32.33Z"/><path class="cls-2" d="M122.82,40.18a2.75,2.75,0,0,0,.68,2.3,3.9,3.9,0,0,0,2.08.43c-1.35.59-1.59,1.25-2.83,2a8.47,8.47,0,0,0-1.35,1.39,2,2,0,0,1-1.51.74,20,20,0,0,0-.84-1.82c-.17-.37-.33-.74-.48-1.12a13.28,13.28,0,0,1,1.65-3.8,4.69,4.69,0,0,1,3.55-2.14,1.84,1.84,0,0,0-.61.49A2.51,2.51,0,0,0,122.82,40.18Z"/><path class="cls-2" d="M7.56,8.4a2.57,2.57,0,0,1,1.24.74c.16,1.76,0,3.6-1.24,4.73-.5.44-1.13.72-1.62,1.18-1.47,1.39-1.11,3.75-1.15,5.77a20,20,0,0,1-.9,5c-.52-.56-1.82-2.31-2.35-2.87a2,2,0,0,1-.48-.68c-.21-.6.15-1.22.35-1.82a12.13,12.13,0,0,0,.18-3.86A9.66,9.66,0,0,1,5.46,9l.8-.52.25,0h0Z"/><path class="cls-2" d="M8.71,8.31,7.56,8.4a1.7,1.7,0,0,0-1,.1h0l-.25,0A37.58,37.58,0,0,1,25.55.8a3.44,3.44,0,0,1,2,.21A3.67,3.67,0,0,1,29,3.11l6.23,16.5c.7,1.87,1.46,3.82,3,5.09a10.93,10.93,0,0,0,2.48,1.44c-2.38-.79-8.59,1-10.31-.34-.94-.72-1.12-2-1.34-3.2s-.73-2.48-1.88-2.79c-2-.55-3.91,2.63-5.83,1.73a3.21,3.21,0,0,1-1.09-1c-1.56-2-3.18-4.15-3.53-6.67-.27-1.91,0-4.28-1.55-5.37A4.79,4.79,0,0,0,12,8Z"/><path class="cls-2" d="M21.31,21.54c1.92.9,3.79-2.28,5.83-1.73.82,3.44.31,7.85,0,11.51l-.5,0c-.91-.67-2.17-.21-3.29,0-2.25.39-4.51-.44-6.64-1.26a12.36,12.36,0,0,1-3.93-2.08A10.3,10.3,0,0,1,10,22.09a30.67,30.67,0,0,1-.48-8.55A7.86,7.86,0,0,0,9.35,10a2.59,2.59,0,0,0-.55-.85c0-.28-.05-.56-.09-.83L12,8a4.79,4.79,0,0,1,3.14.45c1.6,1.09,1.28,3.46,1.55,5.37.35,2.52,2,4.66,3.53,6.67A3.21,3.21,0,0,0,21.31,21.54Z"/><path class="cls-2" d="M30,41.44a19.55,19.55,0,0,0-6.21-4.56A8.38,8.38,0,0,0,20.22,36c-3.71.08-6.28,3.89-9.87,4.82a4,4,0,0,1-1.81.09A5.25,5.25,0,0,1,7,40.17,10.61,10.61,0,0,1,4,37.79c-1.81-2.3-1.74-5.56-1.09-8.41.27-1.2.63-2.38,1-3.56a20,20,0,0,0,.9-5c0-2-.32-4.38,1.15-5.77.49-.46,1.12-.74,1.62-1.18,1.28-1.13,1.4-3,1.24-4.73a2.59,2.59,0,0,1,.55.85,7.86,7.86,0,0,1,.17,3.55A30.67,30.67,0,0,0,10,22.09a10.3,10.3,0,0,0,2.78,5.83A12.36,12.36,0,0,0,16.71,30c2.13.82,4.39,1.65,6.64,1.26,1.12-.19,2.38-.65,3.29,0l.5,0A35.73,35.73,0,0,0,27,35.25a6.55,6.55,0,0,0,.34,2.16,6.72,6.72,0,0,0,1,1.61l1.82,2.3Z"/><path class="cls-3" d="M60.46,39.93a1.41,1.41,0,0,0,.2.51c-2.09.27-4.39,2.08-5.82,3.64a11.79,11.79,0,0,1-1.94,2,7,7,0,0,1-3.64.84q-6.78.31-13.56.31a37.73,37.73,0,0,1-10.07-1c-1.58-.43-3.1-1.06-4.7-1.44a31.23,31.23,0,0,0-8-.54c.24-1-1.92-2.78-2.61-3.49,3.59-.93,6.16-4.74,9.87-4.82a8.38,8.38,0,0,1,3.58.92A19.55,19.55,0,0,1,30,41.44l.15-.12.31.39A3.93,3.93,0,0,0,31.84,43a3.65,3.65,0,0,0,2,.13,23.61,23.61,0,0,0,6.59-1.85A37.69,37.69,0,0,1,45.72,39a21.08,21.08,0,0,1,6.54-.39C55.38,38.71,57.72,38.45,60.46,39.93Z"/><path class="cls-3" d="M30.36,25.8c1.72,1.32,7.93-.45,10.31.34h0l.39.18a13.08,13.08,0,0,1,1.81,1c1.88,1.25,3.27,3.36,5.46,3.89a8.44,8.44,0,0,0,2.56.1l9.42-.59.38.06a29.7,29.7,0,0,0-.26,9.17c-2.74-1.48-5.08-1.22-8.2-1.35a21.08,21.08,0,0,0-6.54.39,37.69,37.69,0,0,0-5.32,2.28,23.61,23.61,0,0,1-6.59,1.85,3.65,3.65,0,0,1-2-.13,3.93,3.93,0,0,1-1.37-1.26l-.31-.39L28.34,39a6.72,6.72,0,0,1-1-1.61A6.55,6.55,0,0,1,27,35.25a35.73,35.73,0,0,1,.18-3.93c.31-3.66.82-8.07,0-11.51,1.15.31,1.65,1.63,1.88,2.79S29.42,25.08,30.36,25.8Z"/><path class="cls-3" d="M60.91,27.73l.36.08c-.23,1-.41,2-.55,3l-.38-.06-9.42.59a8.44,8.44,0,0,1-2.56-.1c-2.19-.53-3.58-2.64-5.46-3.89a13.08,13.08,0,0,0-1.81-1,1.76,1.76,0,0,0-.39-.18h0a10.93,10.93,0,0,1-2.48-1.44c-1.53-1.27-2.29-3.22-3-5.09L29,3.11c3-.21,5-.27,7.23,1.63a7.75,7.75,0,0,1,1.59,1.88c.37.56.68,1.14,1,1.72Q43.49,16.91,48.93,25a3.4,3.4,0,0,0,1.35,1.36,4,4,0,0,0,2.17,0A14.15,14.15,0,0,1,60.91,27.73Z"/><path class="cls-3" d="M51.11,10.77A36.08,36.08,0,0,1,57,19.69a16.3,16.3,0,0,0,1.38,3A5.87,5.87,0,0,0,61.86,25l.14,0c-.28.9-.52,1.81-.73,2.73l-.36-.08a14.15,14.15,0,0,0-8.46-1.33,4,4,0,0,1-2.17,0A3.4,3.4,0,0,1,48.93,25Q43.49,16.91,38.79,8.34c-.32-.58-.63-1.16-1-1.72,3.09.61,7.24-.56,10,.94a5.93,5.93,0,0,1,1.13.8,15.84,15.84,0,0,1,1.77,1.89Z"/><path class="cls-3" d="M65.92,16.83a4.6,4.6,0,0,1-2.12-.3c-.87-.41-1.38-1.31-2-2A9.63,9.63,0,0,0,56.58,12a34.51,34.51,0,0,1-5.47-1.27l-.42-.52a15.84,15.84,0,0,0-1.77-1.89,17.58,17.58,0,0,1,11.27,2.77,8.34,8.34,0,0,1,1.71,1.42c.44.51.79,1.1,1.22,1.62a5.93,5.93,0,0,0,4.1,2.07l.09.12a9.18,9.18,0,0,0-.9.77Z"/><path class="cls-3" d="M63.8,16.53a4.6,4.6,0,0,0,2.12.3l.49.3a18.7,18.7,0,0,0-4.41,8l-.14,0a5.87,5.87,0,0,1-3.52-2.39,16.3,16.3,0,0,1-1.38-3,36.08,36.08,0,0,0-5.85-8.92A34.51,34.51,0,0,0,56.58,12a9.63,9.63,0,0,1,5.18,2.47C62.42,15.22,62.93,16.12,63.8,16.53Z"/><path class="cls-3" d="M99.56,48c1,.07,2,.17,3,.3h0c-3.72,1.15-9.9,3.63-12.52,6.52a8.77,8.77,0,0,1-3,2.62,7.19,7.19,0,0,1-2.4.34l-2.83.08a2.47,2.47,0,0,1-1-.12,2.56,2.56,0,0,1-.91-.88A100.27,100.27,0,0,0,65.87,41.5l-2.25-.17a12.59,12.59,0,0,0,2.24-.2,15,15,0,0,1-.24-2,2,2,0,0,1,.11-.21c.25-.41.54-.39,1.18-.58a7.59,7.59,0,0,1,4.62.54,18.5,18.5,0,0,1,5.19,3.47,59.64,59.64,0,0,1,9,9.93,49.28,49.28,0,0,0,5.83-3.44,29.64,29.64,0,0,0,3.15-2.65l0,0C95.78,47.65,97.79,47.82,99.56,48Z"/><path class="cls-3" d="M129.52,28.51a8.31,8.31,0,0,0-6.4-2.63,19.92,19.92,0,0,0-6.93,1.58,33.7,33.7,0,0,0-6,2.88C103.89,34.29,100,41.07,94.68,46.18a29.64,29.64,0,0,1-3.15,2.65,49.28,49.28,0,0,1-5.83,3.44,59.64,59.64,0,0,0-9-9.93,18.5,18.5,0,0,0-5.19-3.47,7.59,7.59,0,0,0-4.62-.54c-.64.19-.93.17-1.18.58l-.12-.12A33.71,33.71,0,0,1,66,33.1c3.15,1.69,8.62,2,11.59,4C80.41,39,81.93,42.61,85.05,44a28.21,28.21,0,0,1,8-11.37,20.71,20.71,0,0,1,6.44-4.24c2.69-1,5.61-1.17,8.47-1.49a65.9,65.9,0,0,0,16.65-4.11,5.21,5.21,0,0,1,2.1-.5,1.68,1.68,0,0,1,.5.07,3.48,3.48,0,0,1,1.49,1,13.44,13.44,0,0,1,2.53,3.55h0l-1.28,2-.38-.25h0Z"/><path class="cls-3" d="M124.56,22.75a65.9,65.9,0,0,1-16.65,4.11c-2.86.32-5.78.47-8.47,1.49A20.71,20.71,0,0,0,93,32.59a28.21,28.21,0,0,0-8,11.37c-3.12-1.35-4.64-5-7.46-6.84-3-2-8.44-2.33-11.59-4a52.77,52.77,0,0,1,1-5.22l.29.07a5,5,0,0,0,3.54,2.68c.94.16,1.9.06,2.84.17a6.17,6.17,0,0,1,4.07,2.29q5.13-2.79,10.42-5.25a32.42,32.42,0,0,1,5.19-2,66.75,66.75,0,0,1,7.73-1.18,37.77,37.77,0,0,0,12-3.88,10,10,0,0,1,2.55-1.08l.18,0a9.51,9.51,0,0,1,2.5,0c2.9.27,5.9.58,8.39,2.07l0,.52A5.21,5.21,0,0,0,124.56,22.75Z"/><path class="cls-3" d="M115.77,19.45l0,.2-.18,0a10,10,0,0,0-2.55,1.08,37.77,37.77,0,0,1-12,3.88,66.75,66.75,0,0,0-7.73,1.18,32.42,32.42,0,0,0-5.19,2q-5.3,2.46-10.42,5.25a6.17,6.17,0,0,0-4.07-2.29c-.94-.11-1.9,0-2.84-.17A5,5,0,0,1,67.31,28L67,27.88A37.41,37.41,0,0,1,70.7,18c-1.2,2.38,1.92,4.41,4.11,5.51a10.54,10.54,0,0,1,4.32,4A12.5,12.5,0,0,0,85,21.32a6.42,6.42,0,0,1,1.46-2.57,5,5,0,0,1,2.29-.85,48.37,48.37,0,0,1,17.79.24l1,.22c-.07-.17-.14-.33-.22-.48C110,17.43,115.82,18.89,115.77,19.45Z"/><path class="cls-3" d="M107.34,17.88a2.46,2.46,0,0,0-.83.26,48.37,48.37,0,0,0-17.79-.24,5,5,0,0,0-2.29.85A6.42,6.42,0,0,0,85,21.32a12.5,12.5,0,0,1-5.84,6.26,10.54,10.54,0,0,0-4.32-4C72.62,22.43,69.5,20.4,70.7,18c.11-.19.23-.37.35-.54a5,5,0,0,1,.76-.78c3.07-2.59,7.84-3.66,11.7-4.08a52.59,52.59,0,0,1,16.08.74C102.62,14,106,15.17,107.34,17.88Z"/><path class="cls-2" d="M123.12,25.88a8.31,8.31,0,0,1,6.4,2.63v.12a21.49,21.49,0,0,0-5.72,0,7.34,7.34,0,0,0-4.86,2.81,8.3,8.3,0,0,0-1.19,3.1,17.59,17.59,0,0,0-.32,2.6,17.39,17.39,0,0,0,1.15,7c.15.38.31.75.48,1.12a20,20,0,0,1,.84,1.82,5.57,5.57,0,0,1,.22.8,2.58,2.58,0,0,1-.84,2.55,3.11,3.11,0,0,1-1.52.46c-2.75.25-5.46-.63-8.13-1.31a60.38,60.38,0,0,0-7.05-1.33c-1-.13-2-.23-3-.3-1.77-.13-3.78-.3-4.83-1.72l0,0c5.34-5.11,9.21-11.89,15.48-15.84a33.7,33.7,0,0,1,6-2.88A19.92,19.92,0,0,1,123.12,25.88Z"/><path class="cls-4" d="M68,15.88l3.51,1c-.16.2-.31.41-.46.64a3.29,3.29,0,0,0-.35.54A37.41,37.41,0,0,0,67,27.88a52.77,52.77,0,0,0-1,5.22,33.71,33.71,0,0,0-.39,5.69l.12.12a2,2,0,0,0-.11.21,15,15,0,0,0,.24,2,12.59,12.59,0,0,1-2.24.2c-1.14,0-2.41-.18-3-.89a1.41,1.41,0,0,1-.2-.51,29.7,29.7,0,0,1,.26-9.17c.14-1,.32-2,.55-3s.45-1.83.73-2.73a18.7,18.7,0,0,1,4.41-7.95,9.18,9.18,0,0,1,.9-.77Q67.64,16.11,68,15.88Z"/><path class="cls-5" d="M131.94,35.34a14.75,14.75,0,0,0-.08-2.25,6.55,6.55,0,0,0-.45-1.9c4.29-1.71,18.42-3.57,16.34,9.94s-16.11,7.29-18.34,3.94a4.55,4.55,0,0,0,.74-1.11,14.7,14.7,0,0,0,1-2.83,27.11,27.11,0,0,0,.61-3.25C131.85,37,131.92,36.16,131.94,35.34Z"/><path class="cls-6" d="M131.86,33.09a6.55,6.55,0,0,0-.45-1.9c4.29-1.71,18.42-3.57,16.34,9.94s-16.11,7.29-18.34,3.94a4.55,4.55,0,0,0,.74-1.11,14.7,14.7,0,0,0,1-2.83,27.11,27.11,0,0,0,.61-3.25c.1-.86.17-1.72.19-2.54A14.75,14.75,0,0,0,131.86,33.09Z"/><path class="cls-7" d="M65.62,39.12a2,2,0,0,1,.11-.21c.25-.41.54-.39,1.18-.58a7.59,7.59,0,0,1,4.62.54,18.5,18.5,0,0,1,5.19,3.47,59.64,59.64,0,0,1,9,9.93,49.28,49.28,0,0,0,5.83-3.44,29.64,29.64,0,0,0,3.15-2.65c5.34-5.11,9.21-11.89,15.48-15.84a33.7,33.7,0,0,1,6-2.88,19.92,19.92,0,0,1,6.93-1.58,8.31,8.31,0,0,1,6.4,2.63"/><path class="cls-6" d="M65.61,38.79A33.71,33.71,0,0,1,66,33.1a52.77,52.77,0,0,1,1-5.22A37.41,37.41,0,0,1,70.7,18c.11-.19.23-.37.35-.54s.3-.44.46-.64l-3.51-1q-.36.22-.69.48a9.18,9.18,0,0,0-.9.77,18.7,18.7,0,0,0-4.41,8c-.28.9-.52,1.81-.73,2.73s-.41,2-.55,3a29.7,29.7,0,0,0-.26,9.17,1.41,1.41,0,0,0,.2.51c.55.71,1.82.89,3,.89a12.59,12.59,0,0,0,2.24-.2,15,15,0,0,1-.24-2"/><path class="cls-7" d="M131.18,26.89l.15.31"/><path class="cls-7" d="M66,33.1c3.15,1.69,8.62,2,11.59,4C80.41,39,81.93,42.61,85.05,44a28.21,28.21,0,0,1,8-11.37,20.71,20.71,0,0,1,6.44-4.24c2.69-1,5.61-1.17,8.47-1.49a65.9,65.9,0,0,0,16.65-4.11,5.21,5.21,0,0,1,2.1-.5,1.68,1.68,0,0,1,.5.07,3.48,3.48,0,0,1,1.49,1,13.44,13.44,0,0,1,2.53,3.55"/><path class="cls-6" d="M71.05,17.48a5,5,0,0,1,.76-.78c3.07-2.59,7.84-3.66,11.7-4.08a52.59,52.59,0,0,1,16.08.74c3,.61,6.37,1.81,7.75,4.52.08.15.15.31.22.48l-1-.22a48.37,48.37,0,0,0-17.79-.24,5,5,0,0,0-2.29.85A6.42,6.42,0,0,0,85,21.32a12.5,12.5,0,0,1-5.84,6.26,10.54,10.54,0,0,0-4.32-4C72.62,22.43,69.5,20.4,70.7,18A3.29,3.29,0,0,1,71.05,17.48Z"/><path class="cls-7" d="M126.69,21.73c-2.49-1.49-5.49-1.8-8.39-2.07a9.51,9.51,0,0,0-2.5,0l-.18,0a10,10,0,0,0-2.55,1.08,37.77,37.77,0,0,1-12,3.88,66.75,66.75,0,0,0-7.73,1.18,32.42,32.42,0,0,0-5.19,2q-5.3,2.46-10.42,5.25a6.17,6.17,0,0,0-4.07-2.29c-.94-.11-1.9,0-2.84-.17A5,5,0,0,1,67.31,28"/><path class="cls-6" d="M129.52,28.63h0a21.49,21.49,0,0,0-5.72,0,7.34,7.34,0,0,0-4.86,2.81,8.3,8.3,0,0,0-1.19,3.1,17.59,17.59,0,0,0-.32,2.6,17.39,17.39,0,0,0,1.15,7c.15.38.31.75.48,1.12a20,20,0,0,1,.84,1.82,5.57,5.57,0,0,1,.22.8,2.58,2.58,0,0,1-.84,2.55,3.11,3.11,0,0,1-1.52.46c-2.75.25-5.46-.63-8.13-1.31a60.38,60.38,0,0,0-7.05-1.33c-1-.13-2-.23-3-.3-1.77-.13-3.78-.3-4.83-1.72"/><path class="cls-6" d="M65.87,41.5A100.27,100.27,0,0,1,79.81,56.82a2.56,2.56,0,0,0,.91.88,2.47,2.47,0,0,0,1,.12l2.83-.08A7.19,7.19,0,0,0,87,57.4a8.77,8.77,0,0,0,3-2.62c2.62-2.89,8.8-5.37,12.52-6.52"/><path class="cls-6" d="M106.41,18.2l.1-.06a2.46,2.46,0,0,1,.83-.26c2.65-.45,8.48,1,8.43,1.57"/><path class="cls-6" d="M125.58,42.91c-1.35.59-1.59,1.25-2.83,2a8.47,8.47,0,0,0-1.35,1.39,2,2,0,0,1-1.51.74l-.2,0"/><path class="cls-6" d="M125.58,42.91c.71.08.07-.71,0,0Z"/><path class="cls-6" d="M131.18,26.88h0l-1.28,2L129,30.23a2.7,2.7,0,0,1-1.16,1.18,3,3,0,0,1-.94.12h-3.08c0,.11,0,.22,0,.33a4.18,4.18,0,0,0,.57,2.61c.52.83,1.38,1.75,1,2.63-.28.58-1,.77-1.56,1.09a1.84,1.84,0,0,0-.61.49,2.51,2.51,0,0,0-.34,1.49,2.75,2.75,0,0,0,.68,2.3,3.9,3.9,0,0,0,2.08.43"/><line class="cls-6" x1="131.86" y1="33.09" x2="126.94" y2="31.53"/><line class="cls-6" x1="130.15" y1="43.96" x2="125.58" y2="42.91"/><line class="cls-6" x1="131.14" y1="41.13" x2="122.82" y2="40.18"/><line class="cls-6" x1="131.74" y1="37.88" x2="125.33" y2="37.11"/><polyline class="cls-6" points="131.95 35.34 131.94 35.34 124.38 34.48"/><path class="cls-7" d="M40.7,26.15a1.76,1.76,0,0,1,.39.18"/><path class="cls-7" d="M6.52,8.5l1-.1,1.15-.09L12,8a4.79,4.79,0,0,1,3.14.45c1.6,1.09,1.28,3.46,1.55,5.37.35,2.52,2,4.66,3.53,6.67a3.21,3.21,0,0,0,1.09,1c1.92.9,3.79-2.28,5.83-1.73,1.15.31,1.65,1.63,1.88,2.79s.4,2.48,1.34,3.2c1.72,1.32,7.93-.45,10.31.34"/><path class="cls-7" d="M40.67,26.14a10.93,10.93,0,0,1-2.48-1.44c-1.53-1.27-2.29-3.22-3-5.09L29,3.11A3.67,3.67,0,0,0,27.54,1a3.44,3.44,0,0,0-2-.21A37.58,37.58,0,0,0,6.26,8.52l.25,0"/><path class="cls-7" d="M40.67,26.14h0"/><path class="cls-7" d="M60.34,30.7l-9.42.59a8.44,8.44,0,0,1-2.56-.1c-2.19-.53-3.58-2.64-5.46-3.89a13.08,13.08,0,0,0-1.81-1l-.39-.18"/><path class="cls-7" d="M60.46,39.93c-2.74-1.48-5.08-1.22-8.2-1.35a21.08,21.08,0,0,0-6.54.39,37.69,37.69,0,0,0-5.32,2.28,23.61,23.61,0,0,1-6.59,1.85,3.65,3.65,0,0,1-2-.13,3.93,3.93,0,0,1-1.37-1.26l-.31-.39L28.34,39a6.72,6.72,0,0,1-1-1.61A6.55,6.55,0,0,1,27,35.25a35.73,35.73,0,0,1,.18-3.93c.31-3.66.82-8.07,0-11.51"/><path class="cls-7" d="M29,3.11c3-.21,5-.27,7.23,1.63a7.75,7.75,0,0,1,1.59,1.88c.37.56.68,1.14,1,1.72Q43.49,16.91,48.93,25a3.4,3.4,0,0,0,1.35,1.36,4,4,0,0,0,2.17,0,14.15,14.15,0,0,1,8.46,1.33"/><path class="cls-7" d="M6.51,8.5h0a1.7,1.7,0,0,1,1-.1A2.7,2.7,0,0,1,9.35,10a7.86,7.86,0,0,1,.17,3.55A30.67,30.67,0,0,0,10,22.09a10.3,10.3,0,0,0,2.78,5.83A12.36,12.36,0,0,0,16.71,30c2.13.82,4.39,1.65,6.64,1.26,1.12-.19,2.38-.65,3.29,0"/><path class="cls-7" d="M37.79,6.62c3.09.61,7.24-.56,10,.94a5.93,5.93,0,0,1,1.13.8,15.84,15.84,0,0,1,1.77,1.89l.42.52A36.08,36.08,0,0,1,57,19.69a16.3,16.3,0,0,0,1.38,3A5.87,5.87,0,0,0,61.86,25"/><path class="cls-6" d="M30,41.44a19.55,19.55,0,0,0-6.21-4.56A8.38,8.38,0,0,0,20.22,36c-3.71.08-6.28,3.89-9.87,4.82a4,4,0,0,1-1.81.09A5.25,5.25,0,0,1,7,40.17,10.61,10.61,0,0,1,4,37.79c-1.81-2.3-1.74-5.56-1.09-8.41.27-1.2.63-2.38,1-3.56a20,20,0,0,0,.9-5c0-2-.32-4.38,1.15-5.77.49-.46,1.12-.74,1.62-1.18,1.28-1.13,1.4-3,1.24-4.73,0-.28-.05-.56-.09-.83s0-.24-.05-.36"/><path class="cls-6" d="M60.66,40.44c-2.09.27-4.39,2.08-5.82,3.64a11.79,11.79,0,0,1-1.94,2,7,7,0,0,1-3.64.84q-6.78.31-13.56.31a37.73,37.73,0,0,1-10.07-1c-1.58-.43-3.1-1.06-4.7-1.44a31.23,31.23,0,0,0-8-.54c.24-1-1.92-2.78-2.61-3.49"/><path class="cls-6" d="M65.92,16.83a4.6,4.6,0,0,1-2.12-.3c-.87-.41-1.38-1.31-2-2A9.63,9.63,0,0,0,56.58,12a34.51,34.51,0,0,1-5.47-1.27l-.2-.08"/><path class="cls-6" d="M5.46,9a9.66,9.66,0,0,0-3.87,7.55,12.13,12.13,0,0,1-.18,3.86c-.2.6-.56,1.22-.35,1.82a2,2,0,0,0,.48.68c.53.56,1.83,2.31,2.35,2.87"/><path class="cls-6" d="M67.22,16.24a5.93,5.93,0,0,1-4.1-2.07c-.43-.52-.78-1.11-1.22-1.62a8.34,8.34,0,0,0-1.71-1.42A17.58,17.58,0,0,0,48.92,8.36c-.12,0-.23,0-.35,0"/><path class="cls-6" d="M123.51,31.82a17,17,0,0,1-3.32.51c-.11,2.18-.65,4.26-2.77,4.78"/><path class="cls-6" d="M123.77,38.2a4.69,4.69,0,0,0-3.55,2.14,13.28,13.28,0,0,0-1.65,3.8s0,.09,0,.14"/></g></g></svg>