<svg xmlns="http://www.w3.org/2000/svg" viewBox="0 0 59.76 154.96"><defs><style>.cls-1{fill:#fff;}.cls-2{fill:#a9c4e6;}.cls-3{fill:#bf77b2;}.cls-4{fill:#ae8ec2;}.cls-5{fill:#92278f;}.cls-6{fill:#58595b;}.cls-7,.cls-8{fill:none;stroke:#231f20;stroke-miterlimit:10;}.cls-7{stroke-width:2px;}.cls-8{stroke-width:1.5px;}</style></defs><title>waterbottle</title><g id="Layer_2" data-name="Layer 2"><g id="Layer_2-2" data-name="Layer 2"><path class="cls-1" d="M24.64,102.58C21.42,73.33,18.08,40,18.08,40c1.75-.12,3.72-.33,5.93-.64,0,0,5,32.68,9,61.82.17,1.2.33,2.4.5,3.6-1.09.25-2.17.5-3.27.69a45.23,45.23,0,0,1-4.78.6l-.45-.11c-.05-.41-.09-.82-.14-1.24C24.8,104,24.72,103.28,24.64,102.58Z"/><path class="cls-2" d="M29.72,107.87l4.14-.51c2.72,20.3,4.7,37.47,3.73,38.33a5.64,5.64,0,0,1-7.29,0c-.71-.57-2.78-17.37-5-37.42C26.79,108.18,28.28,108,29.72,107.87Z"/><path class="cls-3" d="M53.29,68.07c.82,5.39,1.53,11.1,2.1,16.9-4,7.61-8.58,2.53-9.83-6.74S49.84,63.8,53.29,68.07Z"/><path class="cls-3" d="M49.35,101.45c.94-6.52,4.94-6.65,7.18-2.2.06,1,.12,2,.17,3h-.17C53.22,102,51.37,102.12,49.35,101.45Z"/><path class="cls-4" d="M56.7,102.27c.26,5,.39,10,.38,14.62-2.43,5.52-7.77,2.94-8-12.25v0a64.84,64.84,0,0,0,7.46-2.34Z"/><path class="cls-4" d="M33.51,104.73c-.17-1.2-.33-2.4-.5-3.6h0a111,111,0,0,1,13.28-.08,11.15,11.15,0,0,1,3.05.4c2,.67,3.87.51,7.18.83a64.84,64.84,0,0,1-7.46,2.34,131,131,0,0,1-15.21,2.74C33.74,106.48,33.63,105.61,33.51,104.73Z"/><path class="cls-4" d="M49.07,104.64c.24,15.19,5.58,17.77,8,12.25,0,15.58-1.57,28.17-5.28,31.88-5.94,4-29.93,7.6-42.88,3.09-2.25-.78-3.94-4.53-5.17-10.22l.11,0s4.29.56,5.9-1c.45-.45.76-7.63,1-17.74,0-2.1.08-4.33.11-6.65,0-2.74.07-5.6.09-8.55a63.41,63.41,0,0,0,14.35.63c2.25,20,4.32,36.85,5,37.42a5.64,5.64,0,0,0,7.29,0c1-.86-1-18-3.73-38.33a131,131,0,0,0,15.21-2.74Z"/><path class="cls-2" d="M25.46,106a45.23,45.23,0,0,0,4.78-.6c1.1-.19,2.18-.44,3.27-.69.12.88.23,1.75.35,2.63l-4.14.51c-1.44.17-2.93.31-4.45.4-.08-.78-.17-1.57-.26-2.36Z"/><path class="cls-4" d="M25.27,108.27a63.41,63.41,0,0,1-14.35-.63c0-1.32,0-2.67,0-4,2,.08,4.05.33,6.07.26a38.94,38.94,0,0,0,7.62-1.3c.08.7.16,1.4.23,2.09-2.05.5-.66,1,.14,1.24C25.1,106.7,25.19,107.49,25.27,108.27Z"/><path class="cls-4" d="M10.92,107.64a36.75,36.75,0,0,1-8.38-2.38c.71-.18,3.88-1.37,4.61-1.48a18.58,18.58,0,0,1,3.8-.16C10.94,105,10.93,106.32,10.92,107.64Z"/><path class="cls-4" d="M10.92,107.64c0,3-.05,5.81-.09,8.55-2.11,1.55-9.1,1.06-9.1,1.06l-.49,0c-.15-3.87-.22-7.9-.24-12H2.54A36.75,36.75,0,0,0,10.92,107.64Z"/><path class="cls-3" d="M11,103.62a18.58,18.58,0,0,0-3.8.16c-.73.11-3.9,1.3-4.61,1.48H1c0-8,.18-16.18.56-24l.37,0s6.74,1.18,8.9-.77H11C11,87.88,11,95.91,11,103.62Z"/><path class="cls-4" d="M10.72,122.84c-.2,10.11-.51,17.29-1,17.74-1.61,1.6-5.9,1-5.9,1l-.11,0a125.84,125.84,0,0,1-2.18-17.78l.38,0S7.45,124.53,10.72,122.84Z"/><path class="cls-4" d="M10.83,116.19c0,2.32-.07,4.55-.11,6.65-3.27,1.69-8.77,1-8.77,1l-.38,0q-.2-3.19-.33-6.59l.49,0S8.72,117.74,10.83,116.19Z"/><path class="cls-3" d="M1.56,81.23A309.94,309.94,0,0,1,4.69,47.65s5.41-.31,5.94,3.43c.2,1.4.35,14,.37,29.4h-.17c-2.16,2-8.9.77-8.9.77Z"/><path class="cls-3" d="M24.64,102.58a38.94,38.94,0,0,1-7.62,1.3c-2,.07-4-.18-6.07-.26C11,95.91,11,87.88,11,80.48c0-15.36-.17-28-.37-29.4-.53-3.74-5.94-3.43-5.94-3.43.82-4.84,1.71-8.1,2.61-9,2.17,1.24,5.52,1.71,10.78,1.35C18.08,40,21.42,73.33,24.64,102.58Z"/><path class="cls-3" d="M55.39,85c.48,4.74.86,9.55,1.14,14.28-2.24-4.45-6.24-4.32-7.18,2.2a11.15,11.15,0,0,0-3.05-.4,111,111,0,0,0-13.28.08h0C29,72,24,39.31,24,39.31c11.19-1.55,16.54-3,18.92-5.6,4,3.09,7.75,17.08,10.36,34.36-3.45-4.27-9,.9-7.73,10.16S51.34,92.58,55.39,85Z"/><path class="cls-5" d="M44.57,25.51c.06.74.1,1.57.1,2.52,0,2.41-.42,4.23-1.74,5.68-2.38,2.64-7.73,4-18.92,5.6-2.21.31-4.18.52-5.93.64-5.26.36-8.61-.11-10.78-1.35a6.3,6.3,0,0,1-2.25-2.12A2,2,0,0,0,7.3,34.65c5.14,1.55,20.93-10.5,37-9.13Z"/><path class="cls-6" d="M30.42,15.71s7.84.7,7.13,3.11C37.23,19.9,33,21.56,28.2,23c.35-2.51-3-5.38-6.74-5.91A25.67,25.67,0,0,0,30.42,15.71Z"/><path class="cls-6" d="M21.46,17.05c3.77.53,7.09,3.4,6.74,5.91-6,1.73-12.92,3.07-14.88,2.46C9.76,24.32,20.21,17,20.21,17h0C20.38,17,20.81,17,21.46,17.05Z"/><path class="cls-6" d="M30.89,7.9c-.95,1.45-.47,7.81-.47,7.81a25.67,25.67,0,0,1-9,1.34A9.83,9.83,0,0,0,20.25,17h0s-10.45,7.35-6.89,8.45c2,.61,8.92-.73,14.88-2.46,4.84-1.4,9-3.06,9.35-4.14C42.77,16.48,45.38,10,43,7.9S31.84,6.45,30.89,7.9ZM3.34,30.05c-.71-8.28,13.54-12.86,22.33-15.93,0,0,.24-9.75,2.53-11.31C30.8,1,48.71-.38,51.8,3.3S52,13.63,47.28,17c-4.09,2.87-3.07,4-2.71,8.54h-.24c-16.1-1.37-31.89,10.68-37,9.13.23-2.07-1.77-4.91-3.81-3.17C3.43,31,3.38,30.54,3.34,30.05Z"/><path class="cls-7" d="M5.05,36.48A6.3,6.3,0,0,0,7.3,38.6c2.17,1.24,5.52,1.71,10.78,1.35,1.75-.12,3.72-.33,5.93-.64,11.19-1.55,16.54-3,18.92-5.6,1.32-1.45,1.74-3.27,1.74-5.68,0-1,0-1.78-.1-2.52-.36-4.58-1.38-5.67,2.71-8.54C52,13.63,54.88,7,51.8,3.3S30.8,1,28.2,2.81c-2.29,1.56-2.53,11.31-2.53,11.31-8.79,3.07-23,7.65-22.33,15.93,0,.49.09,1,.15,1.43a12,12,0,0,0,1.55,5"/><path class="cls-7" d="M20.25,17c.13,0,.56.06,1.21.08a25.67,25.67,0,0,0,9-1.34s7.84.7,7.13,3.11C37.23,19.9,33,21.56,28.2,23c-6,1.73-12.92,3.07-14.88,2.46C9.76,24.32,20.21,17,20.21,17"/><path class="cls-7" d="M20.21,17h0a9.83,9.83,0,0,1,1.21.08c3.77.53,7.09,3.4,6.74,5.91"/><path class="cls-7" d="M37.55,18.82C42.77,16.48,45.38,10,43,7.9s-11.17-1.45-12.12,0-.47,7.81-.47,7.81"/><path class="cls-7" d="M3.32,31.64l.17-.16c2-1.74,4,1.1,3.81,3.17a2,2,0,0,1-2.25,1.83H5"/><path class="cls-7" d="M44.33,25.52c-16.1-1.37-31.89,10.68-37,9.13"/><path class="cls-7" d="M7.3,38.6c-.9.95-1.79,4.21-2.61,9A309.94,309.94,0,0,0,1.56,81.23c-.38,7.85-.59,16.08-.56,24,0,4.11.09,8.14.24,12q.14,3.39.33,6.59a125.84,125.84,0,0,0,2.18,17.78c1.23,5.69,2.92,9.44,5.17,10.22,13,4.51,36.94.95,42.88-3.09,3.71-3.71,5.26-16.3,5.28-31.88,0-4.66-.12-9.59-.38-14.62-.05-1-.11-2-.17-3-.28-4.73-.66-9.54-1.14-14.28-.57-5.8-1.28-11.51-2.1-16.9C50.68,50.79,47,36.8,42.93,33.71"/><path class="cls-7" d="M24,39.31S29,72,33,101.13c.17,1.2.33,2.4.5,3.6.12.88.23,1.75.35,2.63,2.72,20.3,4.7,37.47,3.73,38.33a5.64,5.64,0,0,1-7.29,0c-.71-.57-2.78-17.37-5-37.42-.08-.78-.17-1.57-.26-2.36-.05-.41-.09-.82-.14-1.24-.07-.69-.15-1.39-.23-2.09C21.42,73.33,18.08,40,18.08,40"/><path class="cls-8" d="M33.4,103.26c3.14.17.45,1.4.45,1.4l-.34.07c-1.09.25-2.17.5-3.27.69a45.23,45.23,0,0,1-4.78.6l-.45-.11c-.8-.22-2.19-.74-.14-1.24l.13,0"/><path class="cls-8" d="M24.65,102.58h0a38.94,38.94,0,0,1-7.62,1.3c-2,.07-4-.18-6.07-.26a18.58,18.58,0,0,0-3.8.16c-.73.11-3.9,1.3-4.61,1.48a36.75,36.75,0,0,0,8.38,2.38,63.41,63.41,0,0,0,14.35.63c1.52-.09,3-.23,4.45-.4l4.14-.51a131,131,0,0,0,15.21-2.74,64.84,64.84,0,0,0,7.46-2.34c-3.31-.32-5.16-.16-7.18-.83a11.15,11.15,0,0,0-3.05-.4,111,111,0,0,0-13.28.08"/><path class="cls-8" d="M4.69,47.65s5.41-.31,5.94,3.43c.2,1.4.35,14,.37,29.4,0,7.4,0,15.43-.05,23.14,0,1.35,0,2.7,0,4,0,3-.05,5.81-.09,8.55,0,2.32-.07,4.55-.11,6.65-.2,10.11-.51,17.29-1,17.74-1.61,1.6-5.9,1-5.9,1"/><path class="cls-8" d="M53.29,68.07c-3.45-4.27-9,.9-7.73,10.16S51.34,92.58,55.39,85a0,0,0,0,0,0,0"/><path class="cls-8" d="M56.53,99.25c-2.24-4.45-6.24-4.32-7.18,2.2"/><path class="cls-8" d="M57.08,116.89c-2.43,5.52-7.77,2.94-8-12.25"/><path class="cls-8" d="M10.83,80.48c-2.16,2-8.9.77-8.9.77"/><path class="cls-8" d="M11,116l-.21.18c-2.11,1.55-9.1,1.06-9.1,1.06"/><path class="cls-8" d="M10.87,122.77l-.15.07c-3.27,1.69-8.77,1-8.77,1"/><path class="cls-8" d="M10.72,52.86a39.19,39.19,0,0,0-5.84-1.07"/></g></g></svg>